<svg width="42" height="10" viewBox="0 0 42 10" fill="none" xmlns="http://www.w3.org/2000/svg">
<path d="M0.521271 4.97759C0.521271 7.4689 2.54004 9.52695 4.98381 9.52695C7.42758 9.52695 9.44635 7.4689 9.44635 4.97759C9.44635 2.48627 7.42758 0.428223 4.98381 0.428223C2.54004 0.428223 0.521271 2.37795 0.521271 4.97759Z" fill="#263238"/>
<path d="M16.5645 4.97759C16.5645 7.4689 18.5833 9.52695 21.0271 9.52695C23.4708 9.52695 25.4896 7.4689 25.4896 4.97759C25.4896 2.48627 23.4708 0.428223 21.0271 0.428223C18.5833 0.428223 16.5645 2.37795 16.5645 4.97759Z" fill="#263238"/>
<path d="M32.6096 4.97759C32.6096 7.4689 34.6283 9.52695 37.0721 9.52695C39.5159 9.52695 41.5346 7.4689 41.5346 4.97759C41.5346 2.48627 39.5159 0.428223 37.0721 0.428223C34.6283 0.428223 32.6096 2.37795 32.6096 4.97759Z" fill="#263238"/>
</svg>
