<svg width="19" height="18" viewBox="0 0 19 18" fill="none" xmlns="http://www.w3.org/2000/svg">
<path d="M9.0896 0.320819C10.1521 0.212501 11.3209 0.537459 12.1709 1.18737C12.9146 1.72896 13.4459 2.59551 13.7647 3.46205C13.8709 3.78701 13.8709 4.11196 13.8709 4.43691C13.8709 4.9785 13.8709 5.41178 13.8709 5.95337C13.8709 6.38665 13.7647 6.81991 13.7647 7.14486C13.7647 7.3615 13.7646 7.3615 13.8709 7.3615C14.0834 7.46981 14.4021 7.46981 14.6147 7.3615C14.7209 7.3615 14.8272 7.25319 14.9334 7.25319C15.2522 7.14487 15.5709 7.25319 15.8897 7.46982C15.9959 7.57814 15.9959 7.90309 15.8897 8.01141C15.6772 8.22805 15.4647 8.33636 15.2522 8.44468C15.0397 8.553 14.8272 8.55301 14.6147 8.66133C14.5084 8.76965 14.4022 8.76964 14.2959 8.87796C13.9772 9.0946 13.8709 9.41954 13.9772 9.85282C14.0834 10.2861 14.2959 10.611 14.6147 11.0443C15.0397 11.6942 15.6772 12.3441 16.3147 12.7774C16.7397 13.1024 17.2709 13.2107 17.8022 13.319C17.9084 13.319 18.0147 13.4273 18.0147 13.5356V13.644C17.9084 13.7523 17.8022 13.8606 17.6959 13.9689C17.3772 14.1855 16.9522 14.2939 16.5272 14.4022L15.8897 14.5105C15.7834 14.5105 15.6772 14.6188 15.6772 14.7271C15.5709 14.9438 15.5709 15.1604 15.4647 15.4854C15.3584 15.8103 15.3584 15.8103 15.0397 15.702C14.7209 15.5937 14.4021 15.5937 14.0834 15.5937C13.3396 15.4854 12.5959 15.702 11.9584 16.2436C11.6396 16.4602 11.3209 16.6769 11.0021 16.8935C10.4709 17.2184 9.83337 17.3268 9.19586 17.3268C8.4521 17.3268 7.81459 17.1101 7.28334 16.6769C6.96459 16.4602 6.64584 16.2436 6.32709 16.0269C6.00833 15.8103 5.68958 15.702 5.26458 15.702C4.73332 15.702 4.20206 15.702 3.77705 15.8103C3.4583 15.8103 3.35206 15.8103 3.35206 15.4854C3.35206 15.1604 3.2458 15.0521 3.2458 14.8355C3.2458 14.7271 3.13954 14.5105 2.92704 14.5105C2.39579 14.4022 1.75828 14.2939 1.33328 14.0772C1.22703 14.0772 1.12078 13.9689 1.12078 13.8606C1.01453 13.7523 1.01453 13.7523 0.908279 13.644C0.908279 13.5356 0.908286 13.4273 1.01454 13.4273H1.12078C1.43953 13.319 1.86454 13.2107 2.18329 12.9941C2.82079 12.6691 3.45831 12.1275 3.88331 11.4776C4.20206 11.0443 4.52082 10.611 4.73332 10.0694C4.83957 9.96113 4.83956 9.85282 4.83956 9.63618C4.83956 9.31123 4.73332 8.98628 4.41457 8.87796C4.20206 8.76964 3.98955 8.66132 3.77705 8.553C3.4583 8.44468 3.2458 8.33637 3.0333 8.11974C2.92705 8.11974 2.92705 8.01141 2.8208 8.01141C2.71455 7.90309 2.71455 7.57814 2.8208 7.46982C3.0333 7.25319 3.35206 7.25318 3.67081 7.3615C3.88331 7.46981 4.20206 7.57815 4.41457 7.57815C4.52082 7.57815 4.73331 7.57814 4.83956 7.46982L4.94582 7.3615C4.94582 6.81991 4.83956 6.17001 4.83956 5.62842C4.83956 5.19514 4.83956 4.76188 4.83956 4.3286C4.83956 4.00365 4.94581 3.67868 5.05206 3.35373C5.47707 2.05391 6.43332 1.07905 7.70834 0.645777C8.02709 0.320822 8.55835 0.320819 9.0896 0.320819Z" fill="white"/>
</svg>
