<svg width="14" height="16" viewBox="0 0 14 16" fill="none" xmlns="http://www.w3.org/2000/svg">
<path d="M2.4853 11.837H1.52903C0.891526 11.837 0.466522 11.2954 0.466522 10.7538C0.466522 10.2122 0.997777 9.67059 1.52903 9.67059H2.9103L3.54781 5.87946H2.27279C1.63528 5.87946 1.21028 5.33787 1.21028 4.79628C1.21028 4.25469 1.74153 3.7131 2.27279 3.7131H3.86655L4.29156 1.11345C4.39781 0.571864 4.82282 0.138598 5.35407 0.138598C5.99158 0.138598 6.41658 0.680195 6.41658 1.3301V1.43841L5.99157 3.60477H9.28536L9.71035 1.00515C9.8166 0.463556 10.2416 0.0302734 10.8791 0.0302734C11.5166 0.0302734 11.9416 0.571871 11.9416 1.22178V1.3301L11.6229 3.49647H12.5791C13.2166 3.49647 13.6417 4.03806 13.6417 4.57965C13.6417 5.12124 13.1104 5.66283 12.5791 5.66283H11.1979L10.5604 9.45396H11.7291C12.3666 9.45396 12.7916 9.88723 12.7916 10.5371C12.7916 11.1871 12.3666 11.6203 11.7291 11.6203H10.1354L9.71035 14.22C9.6041 14.7615 9.1791 15.1948 8.64784 15.1948C8.01034 15.1948 7.58533 14.6532 7.58533 14.0033V13.895L8.01035 11.6203H4.71656L4.29156 14.22C4.18531 14.7615 3.76031 15.1948 3.22905 15.1948C2.59155 15.1948 2.16654 14.7615 2.16654 14.1116C2.16654 14.0033 2.16654 13.895 2.16654 13.895L2.4853 11.837ZM8.43535 9.56227L9.07286 5.77114H5.77907L5.14157 9.56227H8.43535Z" fill="white"/>
</svg>
