<svg width="35" height="32" viewBox="0 0 35 32" fill="none" xmlns="http://www.w3.org/2000/svg">
<path fill-rule="evenodd" clip-rule="evenodd" d="M13.893 29.4886C13.1492 29.0553 12.5117 28.4054 11.5555 28.5138C11.2367 28.5138 11.2367 28.2971 11.2367 28.0805C11.2367 24.3977 11.2367 20.7148 11.2367 17.1403C11.2367 16.9237 11.343 16.5988 11.5555 16.4904C14.318 15.0823 15.4867 12.266 17.1868 9.88303C18.8868 7.50003 19.6305 4.46713 19.0993 1.54254C18.993 1.00095 19.3118 0.351033 19.843 0.242714C19.9493 0.242714 19.9493 0.242714 20.0555 0.242714C20.7993 -0.08224 21.6493 0.242721 22.0743 0.89263C22.9243 2.40908 23.4556 4.03385 23.6681 5.65862C23.6681 7.06676 23.5618 8.47489 23.1368 9.77471C23.0306 10.7496 22.8181 11.8328 22.6056 12.8076C22.8181 13.0243 23.1368 12.9159 23.3493 12.9159H32.4869C33.7619 12.9159 34.3994 13.2409 34.6119 14.1074C34.8244 15.1906 34.1869 16.2738 33.2307 16.7071C33.0182 16.8154 32.5932 16.7071 32.5932 17.1403C32.5932 17.5736 33.0182 17.4653 33.2307 17.5736C34.2932 18.3318 34.1869 19.9566 32.9119 20.8232C32.5932 21.0398 32.0619 20.9315 31.9557 21.3647C31.8494 21.798 32.4869 21.6897 32.8057 22.0147C33.5494 22.8812 33.3369 24.181 32.4869 24.9393C32.2744 25.0476 32.1682 25.1559 31.9557 25.2642C31.7432 25.3725 31.6369 25.3725 31.4244 25.4808C31.3181 25.5892 31.1056 25.6975 31.4244 25.9141C32.2744 26.3474 32.6994 27.4306 32.1682 28.4054C31.9557 28.7304 31.7432 29.0553 31.4244 29.1637L30.9994 29.4886C30.4681 29.8136 29.9369 29.9219 29.4056 29.8136H15.168C14.743 29.9219 14.318 29.8136 13.893 29.4886Z" fill="white"/>
<path fill-rule="evenodd" clip-rule="evenodd" d="M0.40094 23.0974C0.40094 20.8227 0.40094 18.4397 0.40094 16.165C0.40094 15.7318 0.400938 15.5151 1.03844 15.5151C3.80097 15.5151 6.56349 15.5151 9.32602 15.5151C9.85727 15.5151 9.96353 15.7318 9.96353 16.165C9.96353 20.8227 9.96353 25.5887 9.96353 30.2464C9.96353 30.8963 9.85728 31.0046 9.21977 31.0046C6.5635 31.0046 3.80097 31.0046 1.1447 31.0046C0.507192 31.0046 0.40094 30.788 0.40094 30.1381C0.40094 27.7551 0.40094 25.4804 0.40094 23.0974Z" fill="white"/>
</svg>
