<svg width="17" height="17" viewBox="0 0 17 17" fill="none" xmlns="http://www.w3.org/2000/svg">
<path d="M7.17129 0.460269C2.815 1.00186 -0.266283 5.00963 0.264972 9.45067C0.796227 13.8917 4.72752 17.0329 9.08381 16.4913C9.72131 16.383 10.3588 16.2747 10.9963 16.0581C11.3151 15.9498 11.5276 15.6248 11.4213 15.2999V15.1915C11.4213 15.0832 11.3151 14.8666 11.2088 14.8666C10.9963 14.7583 10.7838 14.7583 10.5713 14.8666C10.0401 15.0832 9.50881 15.1915 8.97756 15.1915C5.36502 15.6248 2.17749 13.0252 1.75249 9.34235C1.32748 5.65954 3.87751 2.40999 7.49004 1.97672C11.1026 1.54345 14.2901 4.14308 14.7151 7.8259C14.8214 8.90908 14.7151 9.99226 14.2901 10.9671C14.0776 11.5087 13.7588 11.942 13.2276 12.1586H13.1213C12.9088 12.1586 12.9088 12.1586 12.9088 12.1586C12.8026 12.0503 12.8026 11.8337 12.6963 11.7253C12.4838 10.9671 12.2713 8.47581 12.2713 8.47581V8.15085C11.8463 5.87617 9.72131 4.35972 7.49004 4.79299C5.25877 5.22627 3.77126 7.39263 4.19626 9.66731C4.62127 11.8337 6.53378 13.3501 8.76505 13.1335C9.72131 13.0252 10.6776 12.4836 11.3151 11.7253V12.0503C11.4213 12.4836 11.5276 12.8085 11.8463 13.1335C12.2713 13.5668 12.8026 13.6751 13.3338 13.6751C13.4401 13.6751 13.6526 13.5668 13.7588 13.5668C14.6089 13.1335 15.2464 12.4836 15.5651 11.617C15.9901 10.4255 16.0964 9.12572 15.9901 7.8259C15.3526 3.16822 11.5276 0.0269967 7.17129 0.460269ZM8.34004 11.4004C6.85253 11.5087 5.47127 10.4255 5.36502 8.80076C5.15252 7.28431 6.10878 5.76786 7.70254 5.55122C9.19005 5.4429 10.5713 6.6344 10.6776 8.15085C10.9963 9.66731 9.93381 11.0754 8.34004 11.4004Z" fill="white"/>
</svg>
