<svg width="62" height="62" viewBox="0 0 62 62" fill="none" xmlns="http://www.w3.org/2000/svg">
<path d="M9.99982 7.68301L0.91818 22.3449L5.40429 25.1898C6.7173 25.9557 7.3738 27.4876 7.26439 29.0194C7.15497 29.8947 7.15497 30.6607 7.15497 31.536C7.15497 33.0678 6.38905 34.5997 4.96662 35.2562L0.371094 37.6634L8.46798 52.8724L13.0635 50.3558C14.3765 49.5899 16.0178 49.6993 17.2214 50.5746C17.9873 51.1217 18.7532 51.5594 19.5191 51.997C20.8321 52.763 21.5981 54.1854 21.5981 55.7172V60.9693L38.7766 61.5163L38.886 56.2643C38.886 54.7325 39.8708 53.4195 41.1838 52.763C41.6214 52.5441 41.9497 52.3253 42.3874 52.2159C42.825 51.997 43.1533 51.7782 43.5909 51.5594C44.904 50.7934 46.5452 50.7934 47.8582 51.5594L52.3443 54.4042L61.426 39.7423L56.9399 36.8974C55.6269 36.1315 54.9703 34.5997 55.0798 33.0678C55.1892 32.1925 55.1892 31.4266 55.1892 30.5512C55.1892 29.0194 55.9551 27.4876 57.3775 26.831L61.9731 24.3144L53.8762 9.10544L49.2806 11.622C47.8582 12.388 46.217 12.1691 45.0134 11.2938C44.3569 10.8561 43.5909 10.4184 42.9344 9.98078C41.6214 9.21486 40.7461 7.79243 40.7461 6.26059L40.8555 0.899137L23.677 0.352051L23.3487 5.7135C23.3487 7.24534 22.364 8.55835 20.9416 9.21486C20.5039 9.43369 20.1756 9.54311 19.8474 9.76194C19.5191 9.98078 19.0815 10.1996 18.7532 10.4184C17.4402 11.1844 15.7989 11.2938 14.4859 10.4184L9.99982 7.68301ZM22.9111 19.5001C30.4609 14.1386 40.9649 17.3117 44.3569 25.9557C46.6546 31.8642 44.5757 38.7575 39.4331 42.3683C31.8833 47.7298 21.3792 44.5567 17.9873 35.9127C15.6895 30.0042 17.7684 23.2203 22.9111 19.5001Z" fill="#FE9563"/>
</svg>
