<svg width="57" height="57" viewBox="0 0 57 57" fill="none" xmlns="http://www.w3.org/2000/svg">
<g clip-path="url(#clip0_19_581)">
<rect x="3.38763" y="3.3877" width="49.2248" height="49.2248" rx="8.79014" fill="#FE9563"/>
<path d="M28.1285 12.7456C19.6307 12.7456 12.7457 19.6306 12.7457 28.1283C12.7457 36.6261 19.6307 43.5111 28.1285 43.5111C36.6262 43.5111 43.5112 36.6261 43.5112 28.1283C43.5112 19.6306 36.6262 12.7456 28.1285 12.7456ZM33.0906 23.1662C34.1885 23.1662 35.0755 24.0532 35.0755 25.151C35.0755 26.2489 34.1885 27.1359 33.0906 27.1359C31.9928 27.1359 31.1058 26.2489 31.1058 25.151C31.1058 24.0532 31.9928 23.1662 33.0906 23.1662ZM23.1663 23.1662C24.2642 23.1662 25.1512 24.0532 25.1512 25.151C25.1512 26.2489 24.2642 27.1359 23.1663 27.1359C22.0684 27.1359 21.1814 26.2489 21.1814 25.151C21.1814 24.0532 22.0684 23.1662 23.1663 23.1662ZM35.2492 33.7232C33.4814 35.8445 30.8887 37.0603 28.1285 37.0603C25.3683 37.0603 22.7755 35.8445 21.0077 33.7232C20.1642 32.7122 21.69 31.4468 22.5336 32.4516C23.923 34.1202 25.9575 35.0692 28.1285 35.0692C30.2994 35.0692 32.3339 34.114 33.7233 32.4516C34.5545 31.4468 36.0866 32.7122 35.2492 33.7232Z" fill="#FAFBFC"/>
</g>
<defs>
<clipPath id="clip0_19_581">
<rect width="56.2569" height="56.2569" fill="white"/>
</clipPath>
</defs>
</svg>
