<svg width="38" height="45" viewBox="0 0 38 45" fill="none" xmlns="http://www.w3.org/2000/svg">
<path d="M29.1642 8.00014C29.3767 8.32509 29.5892 8.65004 29.8017 8.975C29.5892 8.65004 29.3767 8.32509 29.1642 8.00014ZM29.8017 9.08332L30.2267 9.29995L29.8017 9.08332ZM35.858 15.5824V12.7661C35.5393 12.6578 35.1143 12.6578 34.7955 12.5495C34.158 12.3329 33.6268 12.1162 32.9892 11.7913C32.458 11.4663 31.9267 11.1414 31.3955 10.7081C31.183 10.4915 30.8642 10.2748 30.6517 10.0582L30.5455 9.94986L30.4392 9.84155C30.2267 9.62491 30.0142 9.29995 29.908 9.08332C29.8017 9.08332 29.6955 8.975 29.6955 8.86668C29.2705 8.54173 28.9517 8.10846 28.633 7.67518C28.1017 7.02527 27.6767 6.37536 27.2517 5.61714C26.9329 4.85891 26.6142 4.10068 26.4017 3.23414C26.2955 2.90918 26.2954 2.69255 26.1892 2.36759V2.25928H20.7704C20.6641 2.25928 20.6641 2.25928 20.6641 2.36759V28.4723C20.6641 29.2305 20.6641 29.9887 20.6641 30.7469C20.6641 31.1802 20.6642 31.6135 20.5579 32.0468C20.4517 32.5883 20.4516 33.1299 20.2391 33.6715C20.1329 33.8882 20.0266 34.1048 19.9204 34.3214C19.6016 34.863 19.1766 35.4046 18.7516 35.8379C18.0079 36.5961 16.9453 37.0294 15.8828 37.246L15.2454 37.3543C15.0329 37.3543 14.8203 37.3543 14.6078 37.3543C13.8641 37.3543 13.1203 37.1377 12.3766 36.9211C11.8453 36.7044 11.4203 36.4878 10.9953 36.0545C10.5703 35.6213 10.1453 35.188 9.82655 34.6464C9.61405 34.2131 9.5078 33.7798 9.40155 33.3466C9.5078 33.7798 9.61405 34.1048 9.82655 34.5381C9.7203 34.4298 9.5078 34.3214 9.40155 34.2131C9.18905 34.1048 9.0828 33.8882 8.8703 33.7798C8.44529 33.3466 8.12651 32.805 7.91401 32.1551C7.80776 31.8301 7.70152 31.3968 7.59527 31.0719C7.48902 30.7469 7.48901 30.5303 7.48901 30.2053C7.48901 29.9887 7.48901 29.8804 7.48901 29.6638C7.48901 29.0138 7.59528 28.3639 7.80779 27.8224C8.02029 27.1724 8.23278 26.6309 8.65778 26.0893C9.08278 25.5477 9.61404 25.0061 10.2515 24.6811C10.7828 24.3562 11.4203 24.1395 12.0578 23.9229C12.3766 23.8146 12.5891 23.8146 12.9078 23.8146C13.3328 23.8146 13.7578 23.8146 14.1828 23.8146C14.5016 23.8146 14.8203 23.8146 15.1391 23.9229C15.2453 23.9229 15.2454 23.9229 15.2454 23.8146V17.7488C14.8203 17.7488 14.3953 17.7488 13.8641 17.7488C13.3328 17.7488 12.8016 17.8571 12.2703 17.9654C11.7391 18.0737 11.1015 18.182 10.5703 18.3987C10.1453 18.507 9.82655 18.7236 9.40155 18.8319C8.76404 19.1569 8.23278 19.4819 7.70153 19.8068C7.27652 20.0234 6.95777 20.3484 6.63902 20.6734C6.21401 20.9983 5.89526 21.3233 5.57651 21.6482C5.1515 22.0815 4.83275 22.6231 4.40774 23.0564C3.98274 23.7063 3.66398 24.2479 3.34523 24.8978C3.13273 25.4394 2.92022 25.8726 2.70772 26.4142C2.49522 27.1724 2.28272 27.8223 2.17646 28.5806C2.07021 28.9055 2.07021 29.3388 2.07021 29.6638C1.96396 30.422 1.96398 31.0719 1.96398 31.8301C1.96398 32.2634 1.96396 32.6967 2.07021 33.0216C2.17646 33.6715 2.28273 34.3214 2.38898 34.9713C2.60148 35.6213 2.81399 36.2712 3.02649 36.9211C3.34524 37.6793 3.664 38.3292 4.089 38.9791C4.19525 39.0874 4.30149 39.3041 4.40774 39.4124C4.51399 39.5207 4.93898 40.0623 5.25774 40.3872C5.04523 40.1706 4.83276 39.8457 4.62026 39.629C4.62026 39.629 4.62026 39.629 4.62026 39.5207L4.72648 39.629C4.83273 39.7373 4.939 39.7373 4.939 39.8457C5.25775 40.1706 5.68276 40.3873 6.10776 40.7122C6.63902 41.0372 7.17027 41.3621 7.70153 41.5787C8.33903 41.9037 9.08279 42.2287 9.82655 42.4453C10.1453 42.5536 10.5703 42.6619 10.8891 42.6619L11.8453 42.8786C11.9516 42.8786 12.1641 42.8786 12.2703 42.8786C12.8016 42.8786 13.2266 42.9869 13.7578 42.9869C14.1828 42.9869 14.6078 42.9869 15.0328 42.8786C15.5641 42.8786 15.9891 42.7702 16.5203 42.6619C17.2641 42.4453 18.0079 42.2287 18.6454 41.9037C19.4954 41.5788 20.2391 41.0372 20.8766 40.6039C21.4079 40.1706 21.9392 39.7373 22.4704 39.1958C22.8954 38.7625 23.2142 38.3292 23.5329 37.8959C23.9579 37.246 24.3829 36.5961 24.7017 35.9462C25.0204 35.188 25.3392 34.3214 25.5517 33.5632C25.6579 33.1299 25.7642 32.6967 25.8705 32.1551C25.9767 31.6135 25.9767 31.5052 25.9767 31.1802C25.9767 30.9636 25.9767 30.7469 25.9767 30.6386C26.0829 28.039 25.9767 25.4394 26.0829 22.8397C26.1892 20.2401 26.0829 17.6404 26.0829 15.0408V14.8242L26.2954 15.0408C26.7205 15.3658 27.1454 15.6907 27.5704 16.0157C27.9954 16.2323 28.4205 16.4489 28.8455 16.7739C29.5892 17.0989 30.4392 17.4238 31.183 17.6404C31.7143 17.8571 32.3517 17.9654 32.9892 18.0737C33.6268 18.182 33.9455 18.2904 34.3705 18.2904C34.6893 18.2904 34.9018 18.3987 35.2205 18.3987H35.7518C35.858 18.3987 35.858 18.3987 35.858 18.2904V15.5824Z" fill="#FEFEFE"/>
<path d="M37.5579 20.1318C37.5579 20.2401 37.5579 20.2401 37.4517 20.2401C37.0267 20.2401 36.6017 20.1318 36.2829 20.1318C35.9641 20.1318 35.6454 20.0234 35.3266 20.0234C35.0079 20.0234 34.5829 19.9151 34.2641 19.8068C33.5204 19.6985 32.8829 19.4818 32.2454 19.2652C31.7141 19.0486 31.1829 18.8319 30.6516 18.6153C30.0141 18.2903 29.3766 17.9654 28.7391 17.5321C28.4203 17.3155 28.1016 16.9905 27.7828 16.7739C27.7828 17.8571 27.7828 18.9402 27.7828 20.0234C27.7828 23.9229 27.7828 27.714 27.7828 31.6135C27.7828 32.0467 27.7828 32.3717 27.6766 32.805C27.6766 33.0216 27.5703 33.3466 27.5703 33.5632C27.5703 33.7798 27.4641 34.3214 27.3578 34.6464C27.2516 34.9713 27.1453 35.6212 26.9328 36.1628C26.7203 36.8127 26.5078 37.3543 26.1891 37.8959C25.8703 38.5458 25.4453 39.3041 25.0203 39.8456C24.8078 40.1706 24.5953 40.3872 24.3828 40.7122C24.1703 40.9288 23.9578 41.1455 23.7453 41.4704C23.4265 41.7954 23.1078 42.1203 22.789 42.337C22.4703 42.5536 22.1515 42.7702 21.8328 43.0952C21.3015 43.4201 20.664 43.7451 20.0265 44.0701C19.4953 44.2867 18.964 44.5033 18.3265 44.6116C18.0077 44.72 17.5827 44.72 17.264 44.8283C16.9452 44.9366 16.5202 44.9366 16.2015 44.9366C16.0952 44.9366 15.989 44.9366 15.8827 44.9366H14.5015H14.3952C13.9702 44.9366 13.6514 44.9366 13.2264 44.8283L12.2702 44.72C11.6327 44.6116 10.8889 44.395 10.2514 44.1784C9.82641 44.0701 9.50766 43.8534 9.1889 43.7451C8.5514 43.4201 7.91388 43.0952 7.38262 42.6619C7.06387 42.4453 6.74512 42.2286 6.42637 41.9037C6.00137 41.5787 5.57636 41.2538 5.2576 40.8205V40.7122C4.93885 40.3872 4.40761 39.7373 4.40761 39.7373C4.51386 39.8456 4.6201 39.8456 4.72635 39.954L4.93886 40.1706C5.25762 40.4956 5.68263 40.7122 6.10763 41.0371C6.63889 41.3621 7.17014 41.6871 7.70139 41.9037C8.3389 42.2286 9.08266 42.5536 9.82641 42.7702C10.1452 42.8786 10.5702 42.9869 10.8889 42.9869L11.8452 43.2035C11.9514 43.2035 12.1639 43.2035 12.2702 43.2035C12.8014 43.2035 13.2264 43.3118 13.7577 43.3118C14.1827 43.3118 14.6077 43.3118 15.0327 43.2035C15.564 43.2035 15.989 43.0952 16.5202 42.9869C17.264 42.7702 18.0077 42.5536 18.6452 42.2287C19.4952 41.9037 20.239 41.3621 20.8765 40.9288C21.4078 40.4956 21.939 40.0623 22.4703 39.5207C22.8953 39.0874 23.214 38.6541 23.5328 38.2209C23.9578 37.571 24.3828 36.9211 24.7016 36.2712C25.0203 35.5129 25.339 34.6464 25.5515 33.8881C25.6578 33.4549 25.7641 33.0216 25.8703 32.48C25.9766 31.9384 25.9765 31.8301 25.9765 31.5052C25.9765 31.2885 25.9765 31.0719 25.9765 30.9636C26.0828 28.3639 25.9765 25.7643 26.0828 23.1647C26.1891 20.565 26.0828 17.9654 26.0828 15.3658V14.8242L26.2953 15.0408C26.7203 15.3658 27.1453 15.6907 27.5703 16.0157C27.9953 16.2323 28.4203 16.4489 28.8453 16.7739C29.5891 17.0988 30.4391 17.4238 31.1829 17.6404C31.7141 17.8571 32.3516 17.9654 32.9891 18.0737C33.6266 18.182 33.9454 18.2903 34.3704 18.2903C34.6891 18.2903 34.9016 18.3987 35.2204 18.3987H35.7516C35.8579 18.3987 35.8579 18.3987 35.8579 18.2903V12.7661C36.0704 12.7661 36.1767 12.8744 36.3892 12.8744C36.6017 12.8744 36.9204 12.9828 37.1329 12.9828C37.3454 12.9828 37.3454 12.9828 37.4517 12.9828C37.5579 12.9828 37.5579 12.9828 37.5579 13.0911C37.5579 13.0911 37.5579 13.1994 37.5579 13.0911C37.5579 15.4741 37.5579 17.8571 37.5579 20.1318Z" fill="#455A64"/>
<path d="M15.1394 17.9649C14.7144 17.9649 14.2894 17.9649 13.7581 17.9649C13.2269 17.9649 12.6956 18.0732 12.1644 18.1815C11.6331 18.2898 10.9956 18.3981 10.4644 18.6148C10.0394 18.7231 9.72061 18.9397 9.29561 19.048C8.6581 19.373 8.12684 19.698 7.59559 20.0229C7.17058 20.2395 6.85183 20.5645 6.53308 20.8895C6.10807 21.2144 5.78932 21.5394 5.47057 21.8643C5.04557 22.2976 4.72681 22.8392 4.3018 23.2725C3.8768 23.9224 3.55804 24.464 3.23929 25.1139C3.02679 25.6555 2.81428 26.0887 2.60178 26.6303C2.38928 27.3885 2.17678 28.0385 2.07052 28.7967C1.96427 29.1216 1.9643 29.5549 1.9643 29.8799C1.85805 30.6381 1.85804 31.288 1.85804 32.0462C1.85804 32.4795 1.85805 32.9128 1.9643 33.2377C2.07055 33.8876 2.17679 34.5375 2.28304 35.1874C2.49554 35.8374 2.70805 36.4873 2.92055 37.1372C3.2393 37.8954 3.55806 38.5453 3.98306 39.1952C4.08931 39.3035 4.19555 39.5202 4.3018 39.6285L3.98306 39.4118C3.55806 38.9786 3.13304 38.437 2.70804 37.8954C2.28303 37.3538 1.96428 36.8122 1.64553 36.2706C1.22052 35.5124 0.901777 34.7542 0.689275 33.9959C0.476773 33.4544 0.370528 32.8044 0.264277 32.1545C0.264277 31.8296 0.15802 31.3963 0.15802 31.0714C0.15802 30.963 0.15802 30.7464 0.15802 30.6381V28.905C0.15802 28.905 0.15802 28.905 0.15802 28.7967C0.15802 28.4717 0.158027 28.1468 0.264277 27.8218C0.476779 26.522 0.795526 25.2222 1.22053 24.0307C1.64553 23.0558 2.07053 22.1893 2.70804 21.3227C2.92054 20.9978 3.23931 20.5645 3.55806 20.2395C3.87682 19.8063 4.19557 19.4813 4.62057 19.1564C5.25808 18.6148 5.89558 18.0732 6.63934 17.6399C7.38309 17.2066 8.23309 16.7734 9.0831 16.5567C9.7206 16.3401 10.2519 16.2318 10.8894 16.1235L11.9519 16.0151C12.4831 16.0151 13.0144 16.0151 13.5456 16.0151C13.9707 16.0151 14.3956 16.0151 14.8206 16.1235C14.9269 16.1235 15.1394 16.1235 15.2457 16.1235C15.3519 16.1235 15.3519 16.1235 15.3519 16.2318C15.1394 16.8817 15.1394 17.4233 15.1394 17.9649Z" fill="#FE9563"/>
<path d="M26.1891 2.36729H20.7702C20.664 2.36729 20.664 2.36729 20.664 2.4756V28.5803C20.664 29.3385 20.664 30.0967 20.664 30.855C20.664 31.2882 20.664 31.7215 20.5578 32.1548C20.4515 32.6964 20.4515 33.2379 20.239 33.7795C20.1327 33.9962 20.0265 34.2128 19.9203 34.4294C19.6015 34.971 19.1765 35.5126 18.7515 35.9459C18.0077 36.7041 16.9452 37.1374 15.8827 37.354L15.2452 37.4624C15.0327 37.4624 14.8202 37.4624 14.6077 37.4624C13.8639 37.4624 13.1202 37.2457 12.3764 37.0291C11.8452 36.8124 11.4202 36.5958 10.9952 36.1625C10.5702 35.7293 10.1452 35.296 9.82641 34.7544L10.0389 34.8627C11.1014 35.4043 12.2702 35.7293 13.4389 35.6209C14.1827 35.5126 15.0327 35.296 15.6702 34.971C16.0952 34.7544 16.414 34.5378 16.7327 34.2128C17.264 33.7795 17.689 33.2379 18.0077 32.6964C18.3265 32.2631 18.4327 31.7215 18.539 31.1799L18.6452 30.0967C18.6452 29.8801 18.6452 29.6635 18.6452 29.4468C18.6452 29.2302 18.6452 28.6886 18.6452 28.2553V0.6342C18.6452 0.6342 18.6452 0.525879 18.7515 0.525879H25.5515C25.764 0.525879 25.7641 0.52588 25.7641 0.742516C25.7641 1.28411 25.7641 1.71738 25.8703 2.25897C26.0828 2.25897 26.1891 2.25897 26.1891 2.36729Z" fill="#FE9563"/>
<path d="M16.8399 19.5902V25.7643C16.8399 25.8726 16.8399 25.8726 16.7337 25.8726C16.6274 25.8726 16.4149 25.8726 16.2024 25.8726H15.5649C14.9274 25.8726 14.2899 25.8726 13.7586 26.0893C12.8024 26.3059 11.8461 26.7392 11.1023 27.3891C10.5711 27.8224 10.2524 28.364 9.93361 28.9055C9.61486 29.4471 9.50861 29.9887 9.40236 30.5303C9.40236 30.747 9.2961 30.9636 9.2961 31.2885C9.2961 31.6135 9.2961 31.9385 9.2961 32.1551C9.2961 32.48 9.40236 32.9133 9.40236 33.2383L9.50858 33.5632C9.61484 33.9965 9.82736 34.4298 9.93361 34.863C9.72111 34.7547 9.61486 34.6464 9.40236 34.5381C9.18986 34.4298 9.08361 34.2131 8.8711 34.1048C8.4461 33.6715 8.12732 33.13 7.91482 32.48C7.80857 32.1551 7.70233 31.7218 7.59608 31.3969C7.48983 31.0719 7.48982 30.8553 7.48982 30.5303C7.48982 30.3137 7.48982 30.2054 7.48982 29.9887C7.48982 29.3388 7.59609 28.6889 7.80859 28.1473C8.0211 27.4974 8.23359 26.9558 8.65859 26.4142C9.08359 25.8726 9.61485 25.331 10.2524 25.0061C10.7836 24.6811 11.4211 24.4645 12.0586 24.2479C12.3774 24.1395 12.5899 24.1395 12.9086 24.1395C13.3336 24.1395 13.7586 24.1395 14.1837 24.1395C14.5024 24.1395 14.8212 24.1395 15.1399 24.2479C15.2462 24.2479 15.2462 24.2479 15.2462 24.1395V18.0737C15.3524 18.0737 15.3524 18.0737 15.4586 18.0737C15.8836 18.0737 16.3087 18.0737 16.6274 18.182C16.7337 18.182 16.7337 18.182 16.8399 18.182C16.9462 18.182 16.9462 18.182 16.9462 18.2904L16.8399 19.5902Z" fill="#455A64"/>
<path d="M29.8015 9.08332C29.6952 9.08332 29.589 8.975 29.589 8.86668C29.164 8.54173 28.8452 8.10846 28.5265 7.67518C27.9952 7.02527 27.5702 6.37536 27.2514 5.61714C26.9327 4.85891 26.614 4.10068 26.4014 3.23414C26.2952 2.90918 26.2952 2.69255 26.1889 2.36759V2.25928H27.6764C27.7827 2.25928 27.7827 2.25928 27.7827 2.36759C27.7827 2.80087 27.7827 3.23414 27.889 3.66741C27.9952 4.31732 28.1015 5.07555 28.314 5.72545C28.5265 6.26704 28.739 6.91696 28.9515 7.45855C29.0577 7.67518 29.1639 7.7835 29.1639 8.00014C29.3765 8.43341 29.589 8.75836 29.8015 9.08332Z" fill="#263238"/>
<path d="M35.8589 11.2489V12.7653C35.5401 12.657 35.1151 12.657 34.7964 12.5487C34.1589 12.3321 33.6276 12.1154 32.9901 11.7905C32.4588 11.4655 31.9276 11.1406 31.3963 10.7073C31.1838 10.4907 30.8651 10.274 30.6526 10.0574L30.5463 9.94906C30.3338 9.73243 30.1213 9.40747 29.9088 9.08252L30.3338 9.29916C30.7588 9.62411 31.2901 9.84074 31.7151 10.0574C32.0338 10.1657 32.3526 10.3823 32.6713 10.4907C33.3089 10.7073 33.9463 10.8156 34.5838 10.9239C35.0089 11.0322 35.4339 11.0322 35.8589 11.0322C35.8589 11.1406 35.8589 11.2489 35.8589 11.2489Z" fill="#FE9563"/>
</svg>
