<svg width="27" height="7" viewBox="0 0 27 7" fill="none" xmlns="http://www.w3.org/2000/svg">
<path d="M26.9166 3.38699C26.9166 5.01176 25.6416 6.31158 24.0479 6.31158C22.4541 6.31158 21.1791 5.01176 21.1791 3.38699C21.1791 1.76222 22.4541 0.462402 24.0479 0.462402C25.6416 0.462402 26.9166 1.76222 26.9166 3.38699Z" fill="white"/>
<path d="M16.5054 3.38699C16.5054 5.01176 15.2303 6.31158 13.6366 6.31158C12.0428 6.31158 10.7678 5.01176 10.7678 3.38699C10.7678 1.76222 12.0428 0.462402 13.6366 0.462402C15.2303 0.462402 16.5054 1.76222 16.5054 3.38699Z" fill="white"/>
<path d="M6.19748 3.38699C6.19748 5.01176 4.92248 6.31158 3.32872 6.31158C1.73495 6.31158 0.45993 5.01176 0.45993 3.38699C0.45993 1.76222 1.73495 0.462402 3.32872 0.462402C4.92248 0.462402 6.19748 1.76222 6.19748 3.38699Z" fill="white"/>
</svg>
