<svg width="54" height="49" viewBox="0 0 54 49" fill="none" xmlns="http://www.w3.org/2000/svg">
<path d="M53.33 27.1201C52.905 31.5611 51.205 35.8939 48.5487 39.36C47.9112 40.2266 47.1674 41.0931 46.4237 41.8514C45.6799 42.6096 44.8299 43.3678 43.8737 44.0177C42.1736 45.4259 40.1549 46.509 38.1361 47.2673C36.1173 48.1338 33.9923 48.5671 31.761 48.7837C30.6985 48.892 29.5298 48.892 28.4673 48.892C27.4048 48.892 26.236 48.7837 25.1735 48.5671C20.8172 47.7005 16.6734 45.6425 13.3796 42.6096L13.6984 42.7179L1.79827 44.5593L0.948242 44.6676L1.37327 43.9094L7.3233 33.4025V33.8358C2.22325 21.4876 8.06707 7.08124 20.2859 1.99029C32.5048 -3.10066 46.6362 2.85684 51.63 15.3134C53.2237 19.1046 53.755 23.1123 53.33 27.1201Z" fill="#455A64"/>
</svg>
