<svg width="224" height="457" viewBox="0 0 224 457" fill="none" xmlns="http://www.w3.org/2000/svg">
<g filter="url(#filter0_d_2_10805)">
<g clip-path="url(#clip0_2_10805)">
<rect x="8" y="8" width="199.969" height="433" rx="9.59852" fill="white"/>
<rect x="159.177" y="31.7296" width="27.1958" height="27.1958" rx="7.73214" fill="white" stroke="#FE9868" stroke-width="0.533251"/>
<path fill-rule="evenodd" clip-rule="evenodd" d="M173.708 39.995C174.003 39.995 174.241 40.2337 174.241 40.5282V42.6613C174.241 42.9558 174.003 43.1945 173.708 43.1945C173.414 43.1945 173.175 42.9558 173.175 42.6613V42.128H167.842C167.548 42.128 167.309 41.8893 167.309 41.5947C167.309 41.3002 167.548 41.0615 167.842 41.0615H173.175V40.5282C173.175 40.2337 173.414 39.995 173.708 39.995ZM175.308 41.5947C175.308 41.3002 175.547 41.0615 175.841 41.0615H177.441C177.735 41.0615 177.974 41.3002 177.974 41.5947C177.974 41.8893 177.735 42.128 177.441 42.128H175.841C175.547 42.128 175.308 41.8893 175.308 41.5947ZM172.108 43.7278C172.403 43.7278 172.642 43.9665 172.642 44.261V44.7943H177.974C178.269 44.7943 178.507 45.033 178.507 45.3275C178.507 45.622 178.269 45.8608 177.974 45.8608H172.642V46.394C172.642 46.6885 172.403 46.9273 172.108 46.9273C171.814 46.9273 171.575 46.6885 171.575 46.394V44.261C171.575 43.9665 171.814 43.7278 172.108 43.7278ZM167.309 45.3275C167.309 45.033 167.548 44.7943 167.842 44.7943H169.975C170.27 44.7943 170.509 45.033 170.509 45.3275C170.509 45.622 170.27 45.8608 169.975 45.8608H167.842C167.548 45.8608 167.309 45.622 167.309 45.3275ZM173.708 47.4605C174.003 47.4605 174.241 47.6993 174.241 47.9938V50.1268C174.241 50.4213 174.003 50.66 173.708 50.66C173.414 50.66 173.175 50.4213 173.175 50.1268V49.5935H167.842C167.548 49.5935 167.309 49.3548 167.309 49.0603C167.309 48.7658 167.548 48.527 167.842 48.527H173.175V47.9938C173.175 47.6993 173.414 47.4605 173.708 47.4605ZM175.308 49.0603C175.308 48.7658 175.547 48.527 175.841 48.527H177.441C177.735 48.527 177.974 48.7658 177.974 49.0603C177.974 49.3548 177.735 49.5935 177.441 49.5935H175.841C175.547 49.5935 175.308 49.3548 175.308 49.0603Z" fill="#FE9868"/>
<rect x="29.5967" y="31.7296" width="27.1958" height="27.1958" rx="7.73214" fill="white" stroke="#FE9868" stroke-width="0.533251"/>
<path fill-rule="evenodd" clip-rule="evenodd" d="M44.9047 48.9041C44.6965 49.1124 44.3588 49.1124 44.1506 48.9041L40.9511 45.7046C40.7428 45.4964 40.7428 45.1587 40.9511 44.9505L44.1506 41.751C44.3588 41.5427 44.6965 41.5427 44.9047 41.751C45.113 41.9592 45.113 42.2969 44.9047 42.5051L42.0823 45.3275L44.9047 48.15C45.113 48.3582 45.113 48.6959 44.9047 48.9041Z" fill="#FE9868"/>
<rect width="199.969" height="18.1305" transform="translate(8 422.869)" fill="#455A64"/>
<rect x="71.9902" y="434.068" width="71.4557" height="2.66626" rx="1.33313" fill="black"/>
<path d="M8 397.273H207.969V422.869H8V397.273Z" fill="#455A64"/>
<rect x="8" y="397.273" width="199.969" height="0.533251" fill="#E8E6EA"/>
<path d="M179.174 409.005C180.204 409.005 181.04 408.169 181.04 407.139C181.04 406.108 180.204 405.272 179.174 405.272C178.143 405.272 177.307 406.108 177.307 407.139C177.307 408.169 178.143 409.005 179.174 409.005Z" fill="#ADAFBB" stroke="#ADAFBB" stroke-width="1.0665" stroke-linecap="round" stroke-linejoin="round"/>
<path d="M174.374 414.551V414.871H183.973V414.551C183.973 413.356 183.973 412.759 183.74 412.303C183.536 411.901 183.21 411.575 182.808 411.37C182.352 411.138 181.755 411.138 180.56 411.138H177.787C176.593 411.138 175.995 411.138 175.539 411.37C175.138 411.575 174.811 411.901 174.607 412.303C174.374 412.759 174.374 413.356 174.374 414.551Z" fill="#ADAFBB" stroke="#ADAFBB" stroke-width="1.0665" stroke-linecap="round" stroke-linejoin="round"/>
<path d="M137.047 410.071C137.047 413.017 134.659 415.404 131.714 415.404C130.122 415.404 126.382 415.404 126.382 415.404C126.382 415.404 126.382 411.424 126.382 410.071C126.382 407.126 128.769 404.739 131.714 404.739C134.659 404.739 137.047 407.126 137.047 410.071Z" fill="#ADAFBB" stroke="#ADAFBB" stroke-width="1.0665" stroke-linecap="round" stroke-linejoin="round"/>
<path d="M129.048 408.472H133.847H129.048Z" fill="#C4C4C4"/>
<path d="M129.048 408.472H133.847" stroke="white" stroke-width="1.0665" stroke-linecap="round" stroke-linejoin="round"/>
<path d="M129.048 410.605H133.847H129.048Z" fill="#C4C4C4"/>
<path d="M129.048 410.605H133.847" stroke="white" stroke-width="1.0665" stroke-linecap="round" stroke-linejoin="round"/>
<path d="M129.048 412.738H131.714H129.048Z" fill="#C4C4C4"/>
<path d="M129.048 412.738H131.714" stroke="white" stroke-width="1.0665" stroke-linecap="round" stroke-linejoin="round"/>
<path d="M81.8553 405.805C80.2355 405.805 78.9224 407.119 78.9224 408.738C78.9224 411.671 82.3885 414.338 84.2549 414.958C86.1213 414.338 89.5874 411.671 89.5874 408.738C89.5874 407.119 88.2743 405.805 86.6545 405.805C85.6626 405.805 84.7857 406.298 84.2549 407.052C83.7241 406.298 82.8472 405.805 81.8553 405.805Z" fill="#ADAFBB" stroke="#ADAFBB" stroke-width="1.0665" stroke-linecap="round" stroke-linejoin="round"/>
<circle cx="88.5209" cy="406.872" r="2.66626" fill="#EEB738" stroke="#F3F3F3" stroke-width="1.0665"/>
<g clip-path="url(#clip1_2_10805)">
<rect x="35.462" y="406.071" width="6.93227" height="9.59852" rx="1.0665" fill="#EEB738" stroke="#F3F3F3" stroke-width="0.533251"/>
<rect x="30.6054" y="406.066" width="6.93227" height="9.59852" rx="1.0665" transform="rotate(-15 30.6054 406.066)" fill="#EEB738" stroke="#F3F3F3" stroke-width="0.533251"/>
</g>
<rect x="20.798" y="397.273" width="31.9951" height="1.0665" fill="#EEB738"/>
<g clip-path="url(#clip2_2_10805)">
<rect x="12" y="152" width="191.756" height="242" rx="3.68762" fill="white"/>
<rect x="41.5009" y="340.069" width="132.754" height="30.8838" rx="8" fill="#FE9868"/>
<path d="M85.2235 352.694H86.888C87.6098 352.694 88.1544 352.798 88.5218 353.007C88.8891 353.217 89.0728 353.577 89.0728 354.09C89.0728 354.304 89.0345 354.498 88.958 354.672C88.884 354.843 88.7756 354.984 88.6327 355.096C88.4899 355.206 88.3139 355.28 88.1047 355.318V355.357C88.3215 355.395 88.5141 355.463 88.6825 355.559C88.8534 355.656 88.9873 355.795 89.0842 355.977C89.1837 356.158 89.2335 356.392 89.2335 356.681C89.2335 357.022 89.1518 357.313 88.9886 357.553C88.8279 357.793 88.597 357.975 88.296 358.1C87.9976 358.225 87.643 358.288 87.2323 358.288H85.2235V352.694ZM86.1418 355.001H87.0219C87.4377 355.001 87.7259 354.933 87.8866 354.798C88.0473 354.663 88.1277 354.465 88.1277 354.205C88.1277 353.94 88.032 353.748 87.8407 353.631C87.6519 353.514 87.3509 353.455 86.9377 353.455H86.1418V355.001ZM86.1418 355.743V357.519H87.1099C87.5384 357.519 87.8394 357.436 88.0129 357.27C88.1863 357.104 88.2731 356.88 88.2731 356.596C88.2731 356.423 88.2335 356.272 88.1544 356.145C88.0779 356.017 87.9517 355.919 87.7756 355.85C87.5996 355.779 87.3624 355.743 87.064 355.743H86.1418ZM96.3488 352.694V356.313C96.3488 356.704 96.2659 357.053 96.1001 357.362C95.9368 357.67 95.6894 357.915 95.3578 358.096C95.0262 358.275 94.6091 358.364 94.1066 358.364C93.3898 358.364 92.8439 358.177 92.4689 357.802C92.0965 357.424 91.9103 356.923 91.9103 356.298V352.694H92.8286V356.218C92.8286 356.684 92.9383 357.029 93.1577 357.251C93.377 357.473 93.7048 357.584 94.141 357.584C94.442 357.584 94.6869 357.531 94.8757 357.427C95.067 357.32 95.2073 357.164 95.2966 356.96C95.3884 356.753 95.4343 356.505 95.4343 356.214V352.694H96.3488ZM100.931 355.246L102.259 352.694H103.25L101.39 356.114V358.288H100.476V356.149L98.6124 352.694H99.6111L100.931 355.246ZM113.823 358.288H112.694L109.954 353.822H109.92C109.93 353.973 109.939 354.132 109.947 354.301C109.957 354.469 109.964 354.642 109.97 354.821C109.977 355 109.984 355.181 109.989 355.364V358.288H109.155V352.694H110.276L113.011 357.128H113.038C113.033 356.998 113.027 356.849 113.019 356.681C113.011 356.512 113.004 356.339 112.996 356.16C112.991 355.979 112.987 355.804 112.985 355.636V352.694H113.823V358.288ZM121.826 355.483C121.826 355.914 121.771 356.307 121.661 356.661C121.554 357.013 121.392 357.317 121.175 357.572C120.958 357.825 120.687 358.02 120.36 358.158C120.034 358.295 119.651 358.364 119.212 358.364C118.766 358.364 118.378 358.295 118.049 358.158C117.723 358.02 117.451 357.823 117.234 357.568C117.02 357.313 116.859 357.008 116.752 356.654C116.645 356.299 116.591 355.906 116.591 355.475C116.591 354.899 116.686 354.396 116.874 353.968C117.066 353.537 117.355 353.202 117.743 352.965C118.133 352.725 118.626 352.606 119.22 352.606C119.801 352.606 120.285 352.724 120.67 352.961C121.055 353.199 121.343 353.533 121.535 353.964C121.729 354.392 121.826 354.899 121.826 355.483ZM117.555 355.483C117.555 355.914 117.614 356.288 117.731 356.604C117.849 356.918 118.029 357.16 118.271 357.331C118.516 357.499 118.83 357.584 119.212 357.584C119.597 357.584 119.911 357.499 120.153 357.331C120.396 357.16 120.574 356.918 120.689 356.604C120.804 356.288 120.861 355.914 120.861 355.483C120.861 354.827 120.73 354.315 120.467 353.945C120.207 353.572 119.791 353.386 119.22 353.386C118.837 353.386 118.522 353.47 118.275 353.639C118.03 353.807 117.849 354.048 117.731 354.362C117.614 354.673 117.555 355.047 117.555 355.483ZM131.21 352.694L129.748 358.288H128.746L127.812 354.936C127.789 354.854 127.764 354.757 127.736 354.645C127.708 354.533 127.68 354.418 127.651 354.301C127.626 354.183 127.603 354.076 127.583 353.979C127.565 353.88 127.552 353.803 127.544 353.75C127.539 353.803 127.528 353.878 127.51 353.975C127.492 354.072 127.47 354.179 127.445 354.297C127.422 354.412 127.396 354.526 127.368 354.641C127.34 354.753 127.315 354.853 127.292 354.94L126.373 358.288H125.375L123.917 352.694H124.839L125.646 355.973C125.672 356.077 125.698 356.191 125.723 356.313C125.751 356.433 125.777 356.554 125.8 356.677C125.825 356.799 125.848 356.919 125.868 357.036C125.889 357.151 125.905 357.256 125.918 357.35C125.931 357.253 125.947 357.146 125.968 357.029C125.988 356.909 126.01 356.788 126.033 356.665C126.058 356.54 126.084 356.42 126.109 356.306C126.138 356.191 126.166 356.087 126.194 355.996L127.104 352.694H128L128.929 356.007C128.957 356.102 128.984 356.207 129.01 356.325C129.038 356.442 129.065 356.562 129.09 356.684C129.116 356.807 129.139 356.925 129.159 357.04C129.179 357.155 129.196 357.258 129.209 357.35C129.227 357.225 129.25 357.082 129.278 356.922C129.306 356.761 129.338 356.598 129.373 356.432C129.409 356.266 129.445 356.113 129.48 355.973L130.284 352.694H131.21Z" fill="white"/>
<path d="M61.9148 266.236V267.527H63.648V268.345H61.9148V269.71H63.8693V270.55H60.8823V265.395H63.8693V266.236H61.9148ZM66.5113 269.599L67.5438 266.465H68.6427L67.1308 270.55H65.877L64.3725 266.465H65.4788L66.5113 269.599ZM73.0209 268.419C73.0209 268.567 73.0111 268.699 72.9914 268.817H70.0044C70.029 269.112 70.1323 269.343 70.3142 269.511C70.4961 269.678 70.7198 269.761 70.9853 269.761C71.3689 269.761 71.6417 269.597 71.804 269.267H72.9177C72.7997 269.661 72.5735 269.985 72.2391 270.241C71.9048 270.491 71.4942 270.617 71.0075 270.617C70.6141 270.617 70.2601 270.531 69.9454 270.359C69.6357 270.182 69.3923 269.933 69.2153 269.614C69.0432 269.294 68.9572 268.925 68.9572 268.508C68.9572 268.085 69.0432 267.713 69.2153 267.394C69.3874 267.074 69.6283 266.828 69.9381 266.656C70.2478 266.484 70.6043 266.398 71.0075 266.398C71.3959 266.398 71.7425 266.482 72.0474 266.649C72.3571 266.816 72.5956 267.055 72.7628 267.364C72.9349 267.669 73.0209 268.021 73.0209 268.419ZM71.9515 268.124C71.9466 267.859 71.8507 267.647 71.6639 267.49C71.477 267.327 71.2484 267.246 70.978 267.246C70.7223 267.246 70.506 267.325 70.329 267.482C70.1569 267.635 70.0512 267.849 70.0118 268.124H71.9515ZM74.8071 267.099C74.9399 266.883 75.1119 266.713 75.3234 266.59C75.5397 266.467 75.7856 266.406 76.0609 266.406V267.49H75.788C75.4635 267.49 75.2177 267.566 75.0505 267.718C74.8882 267.871 74.8071 268.136 74.8071 268.515V270.55H73.7746V266.465H74.8071V267.099ZM80.6652 266.465L78.1355 272.483H77.0366L77.9216 270.447L76.2843 266.465H77.4423L78.4969 269.319L79.5663 266.465H80.6652ZM80.9563 268.493C80.9563 268.08 81.0375 267.713 81.1997 267.394C81.3669 267.074 81.5931 266.828 81.8782 266.656C82.1634 266.484 82.4805 266.398 82.8296 266.398C83.0951 266.398 83.3484 266.457 83.5893 266.575C83.8302 266.688 84.022 266.841 84.1646 267.032V265.093H85.2118V270.55H84.1646V269.946C84.0367 270.147 83.8573 270.31 83.6262 270.432C83.3951 270.555 83.1271 270.617 82.8223 270.617C82.4781 270.617 82.1634 270.528 81.8782 270.351C81.5931 270.174 81.3669 269.926 81.1997 269.606C81.0375 269.282 80.9563 268.911 80.9563 268.493ZM84.1719 268.508C84.1719 268.257 84.1228 268.043 84.0244 267.866C83.9261 267.684 83.7933 267.546 83.6262 267.453C83.459 267.355 83.2795 267.305 83.0878 267.305C82.896 267.305 82.719 267.352 82.5567 267.446C82.3945 267.539 82.2617 267.677 82.1585 267.859C82.0602 268.036 82.011 268.247 82.011 268.493C82.011 268.739 82.0602 268.955 82.1585 269.142C82.2617 269.324 82.3945 269.464 82.5567 269.562C82.7239 269.661 82.9009 269.71 83.0878 269.71C83.2795 269.71 83.459 269.663 83.6262 269.57C83.7933 269.471 83.9261 269.334 84.0244 269.157C84.1228 268.975 84.1719 268.758 84.1719 268.508ZM85.9548 268.493C85.9548 268.08 86.0359 267.713 86.1982 267.394C86.3653 267.074 86.589 266.828 86.8693 266.656C87.1545 266.484 87.4716 266.398 87.8207 266.398C88.1256 266.398 88.3911 266.46 88.6172 266.583C88.8483 266.706 89.0327 266.86 89.1704 267.047V266.465H90.2103V270.55H89.1704V269.953C89.0376 270.145 88.8532 270.305 88.6172 270.432C88.3861 270.555 88.1182 270.617 87.8133 270.617C87.4692 270.617 87.1545 270.528 86.8693 270.351C86.589 270.174 86.3653 269.926 86.1982 269.606C86.0359 269.282 85.9548 268.911 85.9548 268.493ZM89.1704 268.508C89.1704 268.257 89.1212 268.043 89.0229 267.866C88.9245 267.684 88.7918 267.546 88.6246 267.453C88.4574 267.355 88.278 267.305 88.0862 267.305C87.8945 267.305 87.7175 267.352 87.5552 267.446C87.3929 267.539 87.2602 267.677 87.1569 267.859C87.0586 268.036 87.0094 268.247 87.0094 268.493C87.0094 268.739 87.0586 268.955 87.1569 269.142C87.2602 269.324 87.3929 269.464 87.5552 269.562C87.7224 269.661 87.8994 269.71 88.0862 269.71C88.278 269.71 88.4574 269.663 88.6246 269.57C88.7918 269.471 88.9245 269.334 89.0229 269.157C89.1212 268.975 89.1704 268.758 89.1704 268.508ZM95.1276 266.465L92.5979 272.483H91.499L92.384 270.447L90.7467 266.465H91.9046L92.9593 269.319L94.0287 266.465H95.1276ZM57.3374 284.403V287.589C57.3374 287.938 57.4283 288.206 57.6103 288.393C57.7922 288.574 58.0479 288.665 58.3773 288.665C58.7116 288.665 58.9698 288.574 59.1517 288.393C59.3336 288.206 59.4246 287.938 59.4246 287.589V284.403H60.4645V287.581C60.4645 288.019 60.3686 288.39 60.1769 288.695C59.99 288.995 59.7368 289.221 59.4172 289.373C59.1025 289.526 58.751 289.602 58.3625 289.602C57.979 289.602 57.6299 289.526 57.3153 289.373C57.0055 289.221 56.7597 288.995 56.5777 288.695C56.3958 288.39 56.3049 288.019 56.3049 287.581V284.403H57.3374ZM63.7263 285.406C64.2131 285.406 64.6064 285.56 64.9063 285.87C65.2063 286.175 65.3562 286.603 65.3562 287.154V289.55H64.3237V287.294C64.3237 286.969 64.2426 286.721 64.0803 286.549C63.9181 286.372 63.6968 286.283 63.4165 286.283C63.1314 286.283 62.9052 286.372 62.738 286.549C62.5758 286.721 62.4946 286.969 62.4946 287.294V289.55H61.4621V285.465H62.4946V285.973C62.6323 285.796 62.8069 285.659 63.0183 285.56C63.2346 285.457 63.4706 285.406 63.7263 285.406ZM67.3706 284.093V289.55H66.3381V284.093H67.3706ZM68.9144 284.978C68.7325 284.978 68.5801 284.921 68.4572 284.808C68.3392 284.69 68.2802 284.545 68.2802 284.373C68.2802 284.201 68.3392 284.058 68.4572 283.945C68.5801 283.827 68.7325 283.768 68.9144 283.768C69.0964 283.768 69.2463 283.827 69.3643 283.945C69.4872 284.058 69.5487 284.201 69.5487 284.373C69.5487 284.545 69.4872 284.69 69.3643 284.808C69.2463 284.921 69.0964 284.978 68.9144 284.978ZM69.4233 285.465V289.55H68.3908V285.465H69.4233ZM75.5176 285.406C76.0192 285.406 76.4223 285.56 76.7272 285.87C77.0369 286.175 77.1918 286.603 77.1918 287.154V289.55H76.1593V287.294C76.1593 286.974 76.0782 286.731 75.9159 286.564C75.7536 286.391 75.5324 286.305 75.2521 286.305C74.9719 286.305 74.7482 286.391 74.581 286.564C74.4187 286.731 74.3376 286.974 74.3376 287.294V289.55H73.3051V287.294C73.3051 286.974 73.2239 286.731 73.0617 286.564C72.8994 286.391 72.6782 286.305 72.3979 286.305C72.1127 286.305 71.8866 286.391 71.7194 286.564C71.5571 286.731 71.476 286.974 71.476 287.294V289.55H70.4435V285.465H71.476V285.959C71.6088 285.787 71.7784 285.651 71.9849 285.553C72.1963 285.455 72.4274 285.406 72.6782 285.406C72.9978 285.406 73.2829 285.474 73.5337 285.612C73.7845 285.745 73.9787 285.937 74.1163 286.187C74.2491 285.951 74.4409 285.762 74.6916 285.619C74.9473 285.477 75.2226 285.406 75.5176 285.406ZM78.6953 284.978C78.5133 284.978 78.3609 284.921 78.238 284.808C78.12 284.69 78.061 284.545 78.061 284.373C78.061 284.201 78.12 284.058 78.238 283.945C78.3609 283.827 78.5133 283.768 78.6953 283.768C78.8772 283.768 79.0272 283.827 79.1452 283.945C79.2681 284.058 79.3295 284.201 79.3295 284.373C79.3295 284.545 79.2681 284.69 79.1452 284.808C79.0272 284.921 78.8772 284.978 78.6953 284.978ZM79.2042 285.465V289.55H78.1716V285.465H79.2042ZM81.4265 286.313V288.289C81.4265 288.427 81.4584 288.528 81.5223 288.592C81.5912 288.651 81.7043 288.68 81.8616 288.68H82.341V289.55H81.692C80.8217 289.55 80.3866 289.128 80.3866 288.282V286.313H79.8998V285.465H80.3866V284.454H81.4265V285.465H82.341V286.313H81.4265ZM86.8819 287.419C86.8819 287.567 86.8721 287.699 86.8524 287.817H83.8654C83.89 288.112 83.9933 288.343 84.1752 288.511C84.3571 288.678 84.5808 288.761 84.8463 288.761C85.2298 288.761 85.5027 288.597 85.665 288.267H86.7786C86.6606 288.661 86.4345 288.985 86.1001 289.241C85.7658 289.491 85.3552 289.617 84.8685 289.617C84.4751 289.617 84.1211 289.531 83.8064 289.359C83.4967 289.182 83.2533 288.933 83.0763 288.614C82.9042 288.294 82.8181 287.925 82.8181 287.508C82.8181 287.085 82.9042 286.713 83.0763 286.394C83.2484 286.074 83.4893 285.828 83.799 285.656C84.1088 285.484 84.4653 285.398 84.8685 285.398C85.2569 285.398 85.6035 285.482 85.9084 285.649C86.2181 285.816 86.4566 286.055 86.6238 286.364C86.7959 286.669 86.8819 287.021 86.8819 287.419ZM85.8125 287.124C85.8076 286.859 85.7117 286.647 85.5249 286.49C85.338 286.327 85.1094 286.246 84.839 286.246C84.5833 286.246 84.3669 286.325 84.1899 286.482C84.0178 286.635 83.9121 286.849 83.8728 287.124H85.8125ZM87.37 287.493C87.37 287.08 87.4512 286.713 87.6134 286.394C87.7806 286.074 88.0068 285.828 88.292 285.656C88.5771 285.484 88.8943 285.398 89.2434 285.398C89.5089 285.398 89.7621 285.457 90.003 285.575C90.2439 285.688 90.4357 285.841 90.5783 286.032V284.093H91.6256V289.55H90.5783V288.946C90.4504 289.147 90.271 289.31 90.0399 289.432C89.8088 289.555 89.5408 289.617 89.236 289.617C88.8918 289.617 88.5771 289.528 88.292 289.351C88.0068 289.174 87.7806 288.926 87.6134 288.606C87.4512 288.282 87.37 287.911 87.37 287.493ZM90.5856 287.508C90.5856 287.257 90.5365 287.043 90.4381 286.866C90.3398 286.684 90.2071 286.546 90.0399 286.453C89.8727 286.355 89.6932 286.305 89.5015 286.305C89.3097 286.305 89.1327 286.352 88.9705 286.446C88.8082 286.539 88.6755 286.677 88.5722 286.859C88.4739 287.036 88.4247 287.247 88.4247 287.493C88.4247 287.739 88.4739 287.955 88.5722 288.142C88.6755 288.324 88.8082 288.464 88.9705 288.562C89.1376 288.661 89.3147 288.71 89.5015 288.71C89.6932 288.71 89.8727 288.663 90.0399 288.57C90.2071 288.471 90.3398 288.334 90.4381 288.157C90.5365 287.975 90.5856 287.758 90.5856 287.508ZM63.3586 302.403V305.589C63.3586 305.938 63.4495 306.206 63.6315 306.393C63.8134 306.574 64.0691 306.665 64.3985 306.665C64.7328 306.665 64.991 306.574 65.1729 306.393C65.3548 306.206 65.4458 305.938 65.4458 305.589V302.403H66.4857V305.581C66.4857 306.019 66.3898 306.39 66.198 306.695C66.0112 306.995 65.758 307.221 65.4384 307.373C65.1237 307.526 64.7722 307.602 64.3837 307.602C64.0002 307.602 63.6511 307.526 63.3365 307.373C63.0267 307.221 62.7808 306.995 62.5989 306.695C62.417 306.39 62.326 306.019 62.326 305.581V302.403H63.3586ZM68.5158 304.055C68.6486 303.868 68.8305 303.713 69.0616 303.59C69.2976 303.462 69.5656 303.398 69.8655 303.398C70.2146 303.398 70.5293 303.484 70.8095 303.656C71.0947 303.828 71.3184 304.074 71.4807 304.394C71.6478 304.709 71.7314 305.075 71.7314 305.493C71.7314 305.911 71.6478 306.282 71.4807 306.606C71.3184 306.926 71.0947 307.174 70.8095 307.351C70.5293 307.528 70.2146 307.617 69.8655 307.617C69.5656 307.617 69.3001 307.555 69.069 307.432C68.8428 307.31 68.6584 307.155 68.5158 306.968V309.498H67.4833V303.465H68.5158V304.055ZM70.6768 305.493C70.6768 305.247 70.6251 305.036 70.5219 304.859C70.4236 304.677 70.2908 304.539 70.1236 304.446C69.9614 304.352 69.7844 304.305 69.5926 304.305C69.4058 304.305 69.2288 304.355 69.0616 304.453C68.8993 304.546 68.7666 304.684 68.6633 304.866C68.565 305.048 68.5158 305.262 68.5158 305.508C68.5158 305.753 68.565 305.967 68.6633 306.149C68.7666 306.331 68.8993 306.471 69.0616 306.57C69.2288 306.663 69.4058 306.71 69.5926 306.71C69.7844 306.71 69.9614 306.661 70.1236 306.562C70.2908 306.464 70.4236 306.324 70.5219 306.142C70.6251 305.96 70.6768 305.744 70.6768 305.493ZM75.4413 304.313V306.289C75.4413 306.427 75.4732 306.528 75.5372 306.592C75.606 306.651 75.7191 306.68 75.8764 306.68H76.3558V307.55H75.7068C74.8365 307.55 74.4014 307.128 74.4014 306.282V304.313H73.9146V303.465H74.4014V302.454H75.4413V303.465H76.3558V304.313H75.4413ZM78.9128 307.617C78.5194 307.617 78.1654 307.531 77.8507 307.359C77.5361 307.182 77.2878 306.933 77.1058 306.614C76.9288 306.294 76.8403 305.925 76.8403 305.508C76.8403 305.09 76.9313 304.721 77.1132 304.401C77.3001 304.082 77.5533 303.836 77.8729 303.664C78.1925 303.487 78.5489 303.398 78.9423 303.398C79.3356 303.398 79.6921 303.487 80.0117 303.664C80.3313 303.836 80.582 304.082 80.764 304.401C80.9508 304.721 81.0442 305.09 81.0442 305.508C81.0442 305.925 80.9483 306.294 80.7566 306.614C80.5698 306.933 80.3141 307.182 79.9896 307.359C79.67 307.531 79.311 307.617 78.9128 307.617ZM78.9128 306.717C79.0996 306.717 79.2742 306.673 79.4364 306.584C79.6036 306.491 79.7363 306.353 79.8347 306.171C79.933 305.989 79.9822 305.768 79.9822 305.508C79.9822 305.119 79.8789 304.822 79.6724 304.615C79.4708 304.404 79.2225 304.298 78.9275 304.298C78.6325 304.298 78.3842 304.404 78.1826 304.615C77.986 304.822 77.8876 305.119 77.8876 305.508C77.8876 305.896 77.9835 306.196 78.1753 306.407C78.3719 306.614 78.6178 306.717 78.9128 306.717ZM83.4558 303.59C83.4803 303.098 83.6524 302.72 83.972 302.454C84.2965 302.184 84.7218 302.049 85.2479 302.049C85.6069 302.049 85.9142 302.112 86.1698 302.24C86.4255 302.363 86.6173 302.533 86.7451 302.749C86.8779 302.961 86.9442 303.202 86.9442 303.472C86.9442 303.782 86.8631 304.045 86.7009 304.261C86.5435 304.473 86.3542 304.615 86.133 304.689V304.718C86.4181 304.807 86.6394 304.964 86.7967 305.19C86.959 305.417 87.0401 305.707 87.0401 306.061C87.0401 306.356 86.9713 306.619 86.8336 306.85C86.7009 307.081 86.5017 307.263 86.2362 307.396C85.9756 307.523 85.661 307.587 85.2922 307.587C84.7366 307.587 84.2842 307.447 83.9351 307.167C83.5861 306.887 83.4017 306.474 83.382 305.928H84.385C84.3949 306.169 84.476 306.363 84.6284 306.511C84.7858 306.653 84.9996 306.724 85.2701 306.724C85.5208 306.724 85.7126 306.656 85.8453 306.518C85.983 306.375 86.0518 306.193 86.0518 305.972C86.0518 305.677 85.9584 305.466 85.7716 305.338C85.5847 305.21 85.2946 305.146 84.9013 305.146H84.6874V304.298H84.9013C85.5995 304.298 85.9486 304.064 85.9486 303.597C85.9486 303.386 85.8847 303.221 85.7568 303.103C85.6339 302.985 85.4544 302.926 85.2184 302.926C84.9873 302.926 84.8079 302.99 84.68 303.118C84.5571 303.241 84.4858 303.398 84.4662 303.59H83.4558Z" fill="#081F32"/>
<path d="M100.615 265.41V265.956H98.3806V267.689H100.195V268.235H98.3806V270.55H97.7095V265.41H100.615ZM101.175 268.515C101.175 268.102 101.259 267.741 101.426 267.431C101.593 267.116 101.822 266.873 102.112 266.701C102.407 266.529 102.734 266.442 103.093 266.442C103.447 266.442 103.754 266.519 104.015 266.671C104.275 266.824 104.469 267.015 104.597 267.246V266.509H105.276V270.55H104.597V269.798C104.464 270.034 104.265 270.231 104 270.388C103.739 270.541 103.434 270.617 103.085 270.617C102.726 270.617 102.402 270.528 102.112 270.351C101.822 270.174 101.593 269.926 101.426 269.606C101.259 269.287 101.175 268.923 101.175 268.515ZM104.597 268.522C104.597 268.217 104.536 267.952 104.413 267.726C104.29 267.5 104.123 267.327 103.911 267.209C103.705 267.087 103.476 267.025 103.225 267.025C102.975 267.025 102.746 267.084 102.54 267.202C102.333 267.32 102.168 267.492 102.045 267.718C101.922 267.945 101.861 268.21 101.861 268.515C101.861 268.825 101.922 269.095 102.045 269.326C102.168 269.552 102.333 269.727 102.54 269.85C102.746 269.968 102.975 270.027 103.225 270.027C103.476 270.027 103.705 269.968 103.911 269.85C104.123 269.727 104.29 269.552 104.413 269.326C104.536 269.095 104.597 268.827 104.597 268.522ZM107.841 270.617C107.531 270.617 107.253 270.565 107.007 270.462C106.761 270.354 106.567 270.206 106.425 270.019C106.282 269.828 106.203 269.609 106.189 269.363H106.882C106.902 269.565 106.995 269.729 107.162 269.857C107.334 269.985 107.558 270.049 107.833 270.049C108.089 270.049 108.291 269.992 108.438 269.879C108.586 269.766 108.659 269.624 108.659 269.452C108.659 269.275 108.581 269.144 108.423 269.061C108.266 268.972 108.023 268.886 107.693 268.803C107.393 268.724 107.147 268.645 106.956 268.567C106.769 268.483 106.607 268.362 106.469 268.205C106.336 268.043 106.27 267.831 106.27 267.571C106.27 267.364 106.331 267.175 106.454 267.003C106.577 266.831 106.752 266.696 106.978 266.597C107.204 266.494 107.462 266.442 107.752 266.442C108.2 266.442 108.561 266.556 108.836 266.782C109.112 267.008 109.259 267.318 109.279 267.711H108.608C108.593 267.5 108.507 267.33 108.35 267.202C108.197 267.074 107.991 267.01 107.73 267.01C107.489 267.01 107.297 267.062 107.155 267.165C107.012 267.268 106.941 267.404 106.941 267.571C106.941 267.704 106.983 267.814 107.066 267.903C107.155 267.986 107.263 268.055 107.391 268.109C107.524 268.158 107.706 268.215 107.937 268.279C108.227 268.358 108.463 268.436 108.645 268.515C108.827 268.589 108.981 268.702 109.109 268.854C109.242 269.007 109.311 269.206 109.316 269.452C109.316 269.673 109.254 269.872 109.131 270.049C109.008 270.226 108.834 270.366 108.608 270.469C108.387 270.568 108.131 270.617 107.841 270.617ZM112.269 266.435C112.574 266.435 112.849 266.501 113.095 266.634C113.341 266.762 113.533 266.956 113.671 267.217C113.813 267.477 113.884 267.795 113.884 268.168V270.55H113.221V268.264C113.221 267.861 113.12 267.554 112.918 267.342C112.717 267.126 112.441 267.018 112.092 267.018C111.738 267.018 111.456 267.128 111.244 267.35C111.038 267.571 110.934 267.893 110.934 268.316V270.55H110.263V265.093H110.934V267.084C111.067 266.878 111.249 266.718 111.48 266.605C111.716 266.492 111.979 266.435 112.269 266.435ZM115.327 265.852C115.2 265.852 115.091 265.808 115.003 265.72C114.914 265.631 114.87 265.523 114.87 265.395C114.87 265.267 114.914 265.159 115.003 265.071C115.091 264.982 115.2 264.938 115.327 264.938C115.45 264.938 115.554 264.982 115.637 265.071C115.726 265.159 115.77 265.267 115.77 265.395C115.77 265.523 115.726 265.631 115.637 265.72C115.554 265.808 115.45 265.852 115.327 265.852ZM115.652 266.509V270.55H114.981V266.509H115.652ZM118.558 270.617C118.18 270.617 117.836 270.531 117.526 270.359C117.221 270.187 116.98 269.943 116.803 269.629C116.631 269.309 116.545 268.94 116.545 268.522C116.545 268.109 116.634 267.745 116.811 267.431C116.992 267.111 117.238 266.868 117.548 266.701C117.858 266.529 118.204 266.442 118.588 266.442C118.971 266.442 119.318 266.529 119.628 266.701C119.938 266.868 120.181 267.109 120.358 267.423C120.54 267.738 120.631 268.104 120.631 268.522C120.631 268.94 120.537 269.309 120.351 269.629C120.169 269.943 119.92 270.187 119.606 270.359C119.291 270.531 118.942 270.617 118.558 270.617ZM118.558 270.027C118.799 270.027 119.026 269.97 119.237 269.857C119.448 269.744 119.618 269.574 119.746 269.348C119.879 269.122 119.945 268.847 119.945 268.522C119.945 268.198 119.881 267.922 119.753 267.696C119.625 267.47 119.458 267.303 119.252 267.195C119.045 267.082 118.822 267.025 118.581 267.025C118.335 267.025 118.109 267.082 117.902 267.195C117.7 267.303 117.538 267.47 117.415 267.696C117.292 267.922 117.231 268.198 117.231 268.522C117.231 268.852 117.29 269.13 117.408 269.356C117.531 269.582 117.693 269.751 117.895 269.865C118.096 269.973 118.318 270.027 118.558 270.027ZM123.483 266.435C123.974 266.435 124.372 266.585 124.677 266.885C124.982 267.18 125.135 267.608 125.135 268.168V270.55H124.471V268.264C124.471 267.861 124.37 267.554 124.168 267.342C123.967 267.126 123.691 267.018 123.342 267.018C122.988 267.018 122.706 267.128 122.494 267.35C122.288 267.571 122.184 267.893 122.184 268.316V270.55H121.513V266.509H122.184V267.084C122.317 266.878 122.497 266.718 122.723 266.605C122.954 266.492 123.207 266.435 123.483 266.435ZM128.868 267.165C128.986 266.934 129.153 266.755 129.37 266.627C129.591 266.499 129.859 266.435 130.174 266.435V267.128H129.997C129.244 267.128 128.868 267.536 128.868 268.353V270.55H128.197V266.509H128.868V267.165ZM134.636 268.375C134.636 268.503 134.629 268.638 134.614 268.78H131.384C131.408 269.179 131.543 269.491 131.789 269.717C132.04 269.938 132.342 270.049 132.696 270.049C132.986 270.049 133.227 269.983 133.419 269.85C133.616 269.712 133.753 269.53 133.832 269.304H134.555C134.447 269.692 134.23 270.01 133.906 270.255C133.581 270.496 133.178 270.617 132.696 270.617C132.313 270.617 131.969 270.531 131.664 270.359C131.364 270.187 131.128 269.943 130.956 269.629C130.784 269.309 130.698 268.94 130.698 268.522C130.698 268.104 130.781 267.738 130.948 267.423C131.116 267.109 131.349 266.868 131.649 266.701C131.954 266.529 132.303 266.442 132.696 266.442C133.08 266.442 133.419 266.526 133.714 266.693C134.009 266.86 134.235 267.091 134.393 267.386C134.555 267.677 134.636 268.006 134.636 268.375ZM133.943 268.235C133.943 267.979 133.886 267.76 133.773 267.578C133.66 267.391 133.505 267.251 133.309 267.158C133.117 267.06 132.903 267.01 132.667 267.01C132.328 267.01 132.038 267.119 131.797 267.335C131.561 267.551 131.425 267.851 131.391 268.235H133.943ZM137.027 269.931L138.28 266.509H138.996L137.41 270.55H136.628L135.043 266.509H135.765L137.027 269.931ZM140.003 265.852C139.875 265.852 139.767 265.808 139.678 265.72C139.59 265.631 139.546 265.523 139.546 265.395C139.546 265.267 139.59 265.159 139.678 265.071C139.767 264.982 139.875 264.938 140.003 264.938C140.126 264.938 140.229 264.982 140.313 265.071C140.401 265.159 140.445 265.267 140.445 265.395C140.445 265.523 140.401 265.631 140.313 265.72C140.229 265.808 140.126 265.852 140.003 265.852ZM140.327 266.509V270.55H139.656V266.509H140.327ZM145.159 268.375C145.159 268.503 145.151 268.638 145.137 268.78H141.906C141.931 269.179 142.066 269.491 142.312 269.717C142.563 269.938 142.865 270.049 143.219 270.049C143.509 270.049 143.75 269.983 143.942 269.85C144.138 269.712 144.276 269.53 144.355 269.304H145.078C144.969 269.692 144.753 270.01 144.429 270.255C144.104 270.496 143.701 270.617 143.219 270.617C142.836 270.617 142.491 270.531 142.187 270.359C141.887 270.187 141.651 269.943 141.478 269.629C141.306 269.309 141.22 268.94 141.22 268.522C141.22 268.104 141.304 267.738 141.471 267.423C141.638 267.109 141.872 266.868 142.172 266.701C142.477 266.529 142.826 266.442 143.219 266.442C143.603 266.442 143.942 266.526 144.237 266.693C144.532 266.86 144.758 267.091 144.915 267.386C145.078 267.677 145.159 268.006 145.159 268.375ZM144.465 268.235C144.465 267.979 144.409 267.76 144.296 267.578C144.183 267.391 144.028 267.251 143.831 267.158C143.639 267.06 143.426 267.01 143.19 267.01C142.85 267.01 142.56 267.119 142.319 267.335C142.083 267.551 141.948 267.851 141.914 268.235H144.465ZM151.429 266.509L150.167 270.55H149.474L148.501 267.342L147.527 270.55H146.834L145.565 266.509H146.251L147.18 269.901L148.183 266.509H148.869L149.85 269.909L150.765 266.509H151.429ZM153.525 270.617C153.216 270.617 152.938 270.565 152.692 270.462C152.446 270.354 152.252 270.206 152.109 270.019C151.967 269.828 151.888 269.609 151.873 269.363H152.567C152.586 269.565 152.68 269.729 152.847 269.857C153.019 269.985 153.243 270.049 153.518 270.049C153.774 270.049 153.975 269.992 154.123 269.879C154.27 269.766 154.344 269.624 154.344 269.452C154.344 269.275 154.265 269.144 154.108 269.061C153.951 268.972 153.707 268.886 153.378 268.803C153.078 268.724 152.832 268.645 152.64 268.567C152.454 268.483 152.291 268.362 152.154 268.205C152.021 268.043 151.955 267.831 151.955 267.571C151.955 267.364 152.016 267.175 152.139 267.003C152.262 266.831 152.436 266.696 152.663 266.597C152.889 266.494 153.147 266.442 153.437 266.442C153.884 266.442 154.246 266.556 154.521 266.782C154.796 267.008 154.944 267.318 154.964 267.711H154.292C154.278 267.5 154.192 267.33 154.034 267.202C153.882 267.074 153.675 267.01 153.415 267.01C153.174 267.01 152.982 267.062 152.84 267.165C152.697 267.268 152.626 267.404 152.626 267.571C152.626 267.704 152.667 267.814 152.751 267.903C152.84 267.986 152.948 268.055 153.076 268.109C153.208 268.158 153.39 268.215 153.621 268.279C153.911 268.358 154.147 268.436 154.329 268.515C154.511 268.589 154.666 268.702 154.794 268.854C154.927 269.007 154.996 269.206 155 269.452C155 269.673 154.939 269.872 154.816 270.049C154.693 270.226 154.519 270.366 154.292 270.469C154.071 270.568 153.816 270.617 153.525 270.617ZM96.2892 289.602C95.9499 289.602 95.6451 289.543 95.3747 289.425C95.1091 289.302 94.9002 289.135 94.7478 288.924C94.5953 288.707 94.5167 288.459 94.5118 288.179H95.2272C95.2517 288.42 95.3501 288.624 95.5222 288.791C95.6992 288.953 95.9548 289.034 96.2892 289.034C96.6088 289.034 96.8595 288.956 97.0415 288.798C97.2283 288.636 97.3217 288.429 97.3217 288.179C97.3217 287.982 97.2676 287.822 97.1595 287.699C97.0513 287.576 96.9161 287.483 96.7538 287.419C96.5916 287.355 96.3728 287.286 96.0974 287.213C95.7582 287.124 95.4853 287.036 95.2788 286.947C95.0772 286.859 94.9026 286.721 94.7551 286.534C94.6125 286.342 94.5413 286.087 94.5413 285.767C94.5413 285.487 94.6125 285.238 94.7551 285.022C94.8977 284.806 95.0969 284.639 95.3525 284.521C95.6131 284.403 95.9106 284.344 96.2449 284.344C96.7268 284.344 97.1201 284.464 97.425 284.705C97.7347 284.946 97.9093 285.265 97.9486 285.664H97.2111C97.1865 285.467 97.0833 285.295 96.9013 285.147C96.7194 284.995 96.4785 284.919 96.1786 284.919C95.8983 284.919 95.6697 284.993 95.4927 285.14C95.3157 285.283 95.2272 285.484 95.2272 285.745C95.2272 285.932 95.2788 286.084 95.382 286.202C95.4902 286.32 95.6205 286.411 95.7729 286.475C95.9303 286.534 96.1491 286.603 96.4293 286.682C96.7686 286.775 97.0415 286.868 97.248 286.962C97.4545 287.05 97.6315 287.19 97.779 287.382C97.9265 287.569 98.0002 287.825 98.0002 288.149C98.0002 288.4 97.9339 288.636 97.8011 288.857C97.6684 289.078 97.4717 289.258 97.2111 289.396C96.9505 289.533 96.6432 289.602 96.2892 289.602ZM98.7371 287.515C98.7371 287.102 98.8207 286.741 98.9879 286.431C99.1551 286.116 99.3837 285.873 99.6738 285.701C99.9688 285.529 100.296 285.442 100.655 285.442C101.009 285.442 101.316 285.519 101.577 285.671C101.837 285.824 102.031 286.015 102.159 286.246V285.509H102.838V289.55H102.159V288.798C102.026 289.034 101.827 289.231 101.562 289.388C101.301 289.541 100.996 289.617 100.647 289.617C100.288 289.617 99.9639 289.528 99.6738 289.351C99.3837 289.174 99.1551 288.926 98.9879 288.606C98.8207 288.287 98.7371 287.923 98.7371 287.515ZM102.159 287.522C102.159 287.217 102.098 286.952 101.975 286.726C101.852 286.5 101.685 286.327 101.473 286.209C101.267 286.087 101.038 286.025 100.787 286.025C100.537 286.025 100.308 286.084 100.102 286.202C99.895 286.32 99.7303 286.492 99.6074 286.718C99.4845 286.945 99.423 287.21 99.423 287.515C99.423 287.825 99.4845 288.095 99.6074 288.326C99.7303 288.552 99.895 288.727 100.102 288.85C100.308 288.968 100.537 289.027 100.787 289.027C101.038 289.027 101.267 288.968 101.473 288.85C101.685 288.727 101.852 288.552 101.975 288.326C102.098 288.095 102.159 287.827 102.159 287.522ZM104.643 284.093V289.55H103.972V284.093H104.643ZM109.475 287.375C109.475 287.503 109.467 287.638 109.452 287.78H106.222C106.247 288.179 106.382 288.491 106.628 288.717C106.878 288.938 107.181 289.049 107.535 289.049C107.825 289.049 108.066 288.983 108.258 288.85C108.454 288.712 108.592 288.53 108.671 288.304H109.393C109.285 288.692 109.069 289.01 108.744 289.255C108.42 289.496 108.017 289.617 107.535 289.617C107.151 289.617 106.807 289.531 106.502 289.359C106.202 289.187 105.966 288.943 105.794 288.629C105.622 288.309 105.536 287.94 105.536 287.522C105.536 287.104 105.62 286.738 105.787 286.423C105.954 286.109 106.188 285.868 106.488 285.701C106.792 285.529 107.142 285.442 107.535 285.442C107.918 285.442 108.258 285.526 108.553 285.693C108.848 285.86 109.074 286.091 109.231 286.386C109.393 286.677 109.475 287.006 109.475 287.375ZM108.781 287.235C108.781 286.979 108.725 286.76 108.612 286.578C108.499 286.391 108.344 286.251 108.147 286.158C107.955 286.06 107.741 286.01 107.505 286.01C107.166 286.01 106.876 286.119 106.635 286.335C106.399 286.551 106.264 286.851 106.229 287.235H108.781ZM112.076 287.522C112.076 287.104 112.16 286.741 112.327 286.431C112.494 286.116 112.725 285.873 113.02 285.701C113.32 285.529 113.662 285.442 114.045 285.442C114.542 285.442 114.95 285.563 115.269 285.804C115.594 286.045 115.808 286.379 115.911 286.807H115.188C115.119 286.561 114.984 286.367 114.783 286.224C114.586 286.082 114.34 286.01 114.045 286.01C113.662 286.01 113.352 286.143 113.116 286.409C112.88 286.669 112.762 287.04 112.762 287.522C112.762 288.009 112.88 288.385 113.116 288.651C113.352 288.916 113.662 289.049 114.045 289.049C114.34 289.049 114.586 288.98 114.783 288.842C114.979 288.705 115.115 288.508 115.188 288.252H115.911C115.803 288.665 115.587 288.997 115.262 289.248C114.938 289.494 114.532 289.617 114.045 289.617C113.662 289.617 113.32 289.531 113.02 289.359C112.725 289.187 112.494 288.943 112.327 288.629C112.16 288.314 112.076 287.945 112.076 287.522ZM118.569 289.617C118.191 289.617 117.846 289.531 117.537 289.359C117.232 289.187 116.991 288.943 116.814 288.629C116.642 288.309 116.556 287.94 116.556 287.522C116.556 287.109 116.644 286.745 116.821 286.431C117.003 286.111 117.249 285.868 117.559 285.701C117.869 285.529 118.215 285.442 118.599 285.442C118.982 285.442 119.329 285.529 119.639 285.701C119.948 285.868 120.192 286.109 120.369 286.423C120.551 286.738 120.642 287.104 120.642 287.522C120.642 287.94 120.548 288.309 120.361 288.629C120.18 288.943 119.931 289.187 119.617 289.359C119.302 289.531 118.953 289.617 118.569 289.617ZM118.569 289.027C118.81 289.027 119.036 288.97 119.248 288.857C119.459 288.744 119.629 288.574 119.757 288.348C119.889 288.122 119.956 287.847 119.956 287.522C119.956 287.198 119.892 286.922 119.764 286.696C119.636 286.47 119.469 286.303 119.263 286.195C119.056 286.082 118.832 286.025 118.591 286.025C118.346 286.025 118.119 286.082 117.913 286.195C117.711 286.303 117.549 286.47 117.426 286.696C117.303 286.922 117.242 287.198 117.242 287.522C117.242 287.852 117.301 288.13 117.419 288.356C117.542 288.582 117.704 288.751 117.905 288.865C118.107 288.973 118.328 289.027 118.569 289.027ZM126.384 285.435C126.699 285.435 126.979 285.501 127.225 285.634C127.471 285.762 127.665 285.956 127.808 286.217C127.95 286.477 128.022 286.795 128.022 287.168V289.55H127.358V287.264C127.358 286.861 127.257 286.554 127.056 286.342C126.859 286.126 126.591 286.018 126.252 286.018C125.903 286.018 125.625 286.131 125.418 286.357C125.212 286.578 125.108 286.9 125.108 287.323V289.55H124.445V287.264C124.445 286.861 124.344 286.554 124.142 286.342C123.946 286.126 123.678 286.018 123.338 286.018C122.989 286.018 122.712 286.131 122.505 286.357C122.299 286.578 122.195 286.9 122.195 287.323V289.55H121.524V285.509H122.195V286.091C122.328 285.88 122.505 285.718 122.726 285.605C122.952 285.492 123.201 285.435 123.471 285.435C123.81 285.435 124.11 285.511 124.371 285.664C124.632 285.816 124.826 286.04 124.954 286.335C125.067 286.05 125.254 285.828 125.514 285.671C125.775 285.514 126.065 285.435 126.384 285.435ZM129.794 286.254C129.927 286.023 130.123 285.831 130.384 285.678C130.649 285.521 130.957 285.442 131.306 285.442C131.665 285.442 131.989 285.529 132.279 285.701C132.574 285.873 132.805 286.116 132.973 286.431C133.14 286.741 133.223 287.102 133.223 287.515C133.223 287.923 133.14 288.287 132.973 288.606C132.805 288.926 132.574 289.174 132.279 289.351C131.989 289.528 131.665 289.617 131.306 289.617C130.962 289.617 130.657 289.541 130.391 289.388C130.131 289.231 129.931 289.037 129.794 288.806V291.468H129.123V285.509H129.794V286.254ZM132.537 287.515C132.537 287.21 132.476 286.945 132.353 286.718C132.23 286.492 132.063 286.32 131.851 286.202C131.645 286.084 131.416 286.025 131.166 286.025C130.92 286.025 130.691 286.087 130.48 286.209C130.273 286.327 130.106 286.502 129.978 286.733C129.855 286.959 129.794 287.222 129.794 287.522C129.794 287.827 129.855 288.095 129.978 288.326C130.106 288.552 130.273 288.727 130.48 288.85C130.691 288.968 130.92 289.027 131.166 289.027C131.416 289.027 131.645 288.968 131.851 288.85C132.063 288.727 132.23 288.552 132.353 288.326C132.476 288.095 132.537 287.825 132.537 287.515ZM134.453 284.852C134.325 284.852 134.217 284.808 134.129 284.72C134.04 284.631 133.996 284.523 133.996 284.395C133.996 284.267 134.04 284.159 134.129 284.071C134.217 283.982 134.325 283.938 134.453 283.938C134.576 283.938 134.68 283.982 134.763 284.071C134.852 284.159 134.896 284.267 134.896 284.395C134.896 284.523 134.852 284.631 134.763 284.72C134.68 284.808 134.576 284.852 134.453 284.852ZM134.778 285.509V289.55H134.107V285.509H134.778ZM136.593 284.093V289.55H135.922V284.093H136.593ZM137.486 287.515C137.486 287.102 137.57 286.741 137.737 286.431C137.904 286.116 138.133 285.873 138.423 285.701C138.718 285.529 139.045 285.442 139.404 285.442C139.758 285.442 140.065 285.519 140.325 285.671C140.586 285.824 140.78 286.015 140.908 286.246V285.509H141.587V289.55H140.908V288.798C140.775 289.034 140.576 289.231 140.311 289.388C140.05 289.541 139.745 289.617 139.396 289.617C139.037 289.617 138.713 289.528 138.423 289.351C138.133 289.174 137.904 288.926 137.737 288.606C137.57 288.287 137.486 287.923 137.486 287.515ZM140.908 287.522C140.908 287.217 140.847 286.952 140.724 286.726C140.601 286.5 140.434 286.327 140.222 286.209C140.016 286.087 139.787 286.025 139.536 286.025C139.286 286.025 139.057 286.084 138.85 286.202C138.644 286.32 138.479 286.492 138.356 286.718C138.233 286.945 138.172 287.21 138.172 287.515C138.172 287.825 138.233 288.095 138.356 288.326C138.479 288.552 138.644 288.727 138.85 288.85C139.057 288.968 139.286 289.027 139.536 289.027C139.787 289.027 140.016 288.968 140.222 288.85C140.434 288.727 140.601 288.552 140.724 288.326C140.847 288.095 140.908 287.827 140.908 287.522ZM143.539 286.062V288.444C143.539 288.641 143.581 288.781 143.665 288.865C143.748 288.943 143.893 288.983 144.1 288.983H144.594V289.55H143.989C143.616 289.55 143.335 289.464 143.149 289.292C142.962 289.12 142.868 288.838 142.868 288.444V286.062H142.345V285.509H142.868V284.491H143.539V285.509H144.594V286.062H143.539ZM145.754 284.852C145.626 284.852 145.518 284.808 145.429 284.72C145.341 284.631 145.297 284.523 145.297 284.395C145.297 284.267 145.341 284.159 145.429 284.071C145.518 283.982 145.626 283.938 145.754 283.938C145.877 283.938 145.98 283.982 146.064 284.071C146.152 284.159 146.196 284.267 146.196 284.395C146.196 284.523 146.152 284.631 146.064 284.72C145.98 284.808 145.877 284.852 145.754 284.852ZM146.078 285.509V289.55H145.407V285.509H146.078ZM148.985 289.617C148.606 289.617 148.262 289.531 147.952 289.359C147.648 289.187 147.407 288.943 147.23 288.629C147.058 288.309 146.971 287.94 146.971 287.522C146.971 287.109 147.06 286.745 147.237 286.431C147.419 286.111 147.665 285.868 147.975 285.701C148.284 285.529 148.631 285.442 149.014 285.442C149.398 285.442 149.745 285.529 150.054 285.701C150.364 285.868 150.607 286.109 150.784 286.423C150.966 286.738 151.057 287.104 151.057 287.522C151.057 287.94 150.964 288.309 150.777 288.629C150.595 288.943 150.347 289.187 150.032 289.359C149.718 289.531 149.368 289.617 148.985 289.617ZM148.985 289.027C149.226 289.027 149.452 288.97 149.663 288.857C149.875 288.744 150.044 288.574 150.172 288.348C150.305 288.122 150.371 287.847 150.371 287.522C150.371 287.198 150.308 286.922 150.18 286.696C150.052 286.47 149.885 286.303 149.678 286.195C149.472 286.082 149.248 286.025 149.007 286.025C148.761 286.025 148.535 286.082 148.329 286.195C148.127 286.303 147.965 286.47 147.842 286.696C147.719 286.922 147.657 287.198 147.657 287.522C147.657 287.852 147.716 288.13 147.834 288.356C147.957 288.582 148.12 288.751 148.321 288.865C148.523 288.973 148.744 289.027 148.985 289.027ZM153.909 285.435C154.401 285.435 154.799 285.585 155.104 285.885C155.409 286.18 155.561 286.608 155.561 287.168V289.55H154.897V287.264C154.897 286.861 154.796 286.554 154.595 286.342C154.393 286.126 154.118 286.018 153.769 286.018C153.415 286.018 153.132 286.128 152.921 286.35C152.714 286.571 152.611 286.893 152.611 287.316V289.55H151.94V285.509H152.611V286.084C152.744 285.878 152.923 285.718 153.149 285.605C153.38 285.492 153.634 285.435 153.909 285.435ZM158.088 289.617C157.778 289.617 157.501 289.565 157.255 289.462C157.009 289.354 156.815 289.206 156.672 289.019C156.53 288.828 156.451 288.609 156.436 288.363H157.129C157.149 288.565 157.242 288.729 157.41 288.857C157.582 288.985 157.805 289.049 158.081 289.049C158.336 289.049 158.538 288.992 158.686 288.879C158.833 288.766 158.907 288.624 158.907 288.452C158.907 288.275 158.828 288.144 158.671 288.061C158.513 287.972 158.27 287.886 157.941 287.803C157.641 287.724 157.395 287.645 157.203 287.567C157.016 287.483 156.854 287.362 156.716 287.205C156.584 287.043 156.517 286.831 156.517 286.571C156.517 286.364 156.579 286.175 156.702 286.003C156.825 285.831 156.999 285.696 157.225 285.597C157.451 285.494 157.71 285.442 158 285.442C158.447 285.442 158.808 285.556 159.084 285.782C159.359 286.008 159.507 286.318 159.526 286.711H158.855C158.84 286.5 158.754 286.33 158.597 286.202C158.445 286.074 158.238 286.01 157.978 286.01C157.737 286.01 157.545 286.062 157.402 286.165C157.26 286.268 157.188 286.404 157.188 286.571C157.188 286.704 157.23 286.814 157.314 286.903C157.402 286.986 157.51 287.055 157.638 287.109C157.771 287.158 157.953 287.215 158.184 287.279C158.474 287.358 158.71 287.436 158.892 287.515C159.074 287.589 159.229 287.702 159.357 287.854C159.489 288.007 159.558 288.206 159.563 288.452C159.563 288.673 159.502 288.872 159.379 289.049C159.256 289.226 159.081 289.366 158.855 289.469C158.634 289.568 158.378 289.617 158.088 289.617ZM93.4362 303.914C93.4362 304.342 93.2887 304.699 92.9937 304.984C92.7036 305.264 92.2586 305.404 91.6587 305.404H90.6705V307.55H89.9993V302.41H91.6587C92.2389 302.41 92.679 302.55 92.9789 302.83C93.2838 303.111 93.4362 303.472 93.4362 303.914ZM91.6587 304.851C92.0324 304.851 92.3078 304.77 92.4848 304.608C92.6618 304.446 92.7503 304.214 92.7503 303.914C92.7503 303.28 92.3864 302.963 91.6587 302.963H90.6705V304.851H91.6587ZM97.958 305.375C97.958 305.503 97.9506 305.638 97.9358 305.78H94.7055C94.7301 306.179 94.8653 306.491 95.1111 306.717C95.3619 306.938 95.6643 307.049 96.0183 307.049C96.3084 307.049 96.5493 306.983 96.741 306.85C96.9377 306.712 97.0754 306.53 97.154 306.304H97.8768C97.7687 306.692 97.5523 307.01 97.2278 307.255C96.9033 307.496 96.5001 307.617 96.0183 307.617C95.6348 307.617 95.2906 307.531 94.9857 307.359C94.6858 307.187 94.4498 306.943 94.2777 306.629C94.1056 306.309 94.0196 305.94 94.0196 305.522C94.0196 305.104 94.1032 304.738 94.2703 304.423C94.4375 304.109 94.6711 303.868 94.971 303.701C95.2758 303.529 95.6249 303.442 96.0183 303.442C96.4018 303.442 96.741 303.526 97.036 303.693C97.3311 303.86 97.5572 304.091 97.7146 304.386C97.8768 304.677 97.958 305.006 97.958 305.375ZM97.2647 305.235C97.2647 304.979 97.2081 304.76 97.095 304.578C96.982 304.391 96.8271 304.251 96.6304 304.158C96.4387 304.06 96.2248 304.01 95.9888 304.01C95.6495 304.01 95.3594 304.119 95.1185 304.335C94.8825 304.551 94.7473 304.851 94.7128 305.235H97.2647ZM99.515 304.165C99.633 303.934 99.8002 303.755 100.017 303.627C100.238 303.499 100.506 303.435 100.82 303.435V304.128H100.643C99.8911 304.128 99.515 304.536 99.515 305.353V307.55H98.8438V303.509H99.515V304.165ZM103.026 307.617C102.716 307.617 102.438 307.565 102.193 307.462C101.947 307.354 101.752 307.206 101.61 307.019C101.467 306.828 101.389 306.609 101.374 306.363H102.067C102.087 306.565 102.18 306.729 102.347 306.857C102.52 306.985 102.743 307.049 103.019 307.049C103.274 307.049 103.476 306.992 103.623 306.879C103.771 306.766 103.845 306.624 103.845 306.452C103.845 306.275 103.766 306.144 103.609 306.061C103.451 305.972 103.208 305.886 102.878 305.803C102.579 305.724 102.333 305.645 102.141 305.567C101.954 305.483 101.792 305.362 101.654 305.205C101.521 305.043 101.455 304.831 101.455 304.571C101.455 304.364 101.516 304.175 101.639 304.003C101.762 303.831 101.937 303.696 102.163 303.597C102.389 303.494 102.647 303.442 102.937 303.442C103.385 303.442 103.746 303.556 104.022 303.782C104.297 304.008 104.444 304.318 104.464 304.711H103.793C103.778 304.5 103.692 304.33 103.535 304.202C103.382 304.074 103.176 304.01 102.915 304.01C102.674 304.01 102.483 304.062 102.34 304.165C102.197 304.268 102.126 304.404 102.126 304.571C102.126 304.704 102.168 304.814 102.252 304.903C102.34 304.986 102.448 305.055 102.576 305.109C102.709 305.158 102.891 305.215 103.122 305.279C103.412 305.358 103.648 305.436 103.83 305.515C104.012 305.589 104.167 305.702 104.294 305.854C104.427 306.007 104.496 306.206 104.501 306.452C104.501 306.673 104.44 306.872 104.317 307.049C104.194 307.226 104.019 307.366 103.793 307.469C103.572 307.568 103.316 307.617 103.026 307.617ZM107.211 307.617C106.833 307.617 106.488 307.531 106.179 307.359C105.874 307.187 105.633 306.943 105.456 306.629C105.284 306.309 105.198 305.94 105.198 305.522C105.198 305.109 105.286 304.745 105.463 304.431C105.645 304.111 105.891 303.868 106.201 303.701C106.51 303.529 106.857 303.442 107.241 303.442C107.624 303.442 107.971 303.529 108.281 303.701C108.59 303.868 108.834 304.109 109.011 304.423C109.193 304.738 109.284 305.104 109.284 305.522C109.284 305.94 109.19 306.309 109.003 306.629C108.821 306.943 108.573 307.187 108.258 307.359C107.944 307.531 107.595 307.617 107.211 307.617ZM107.211 307.027C107.452 307.027 107.678 306.97 107.89 306.857C108.101 306.744 108.271 306.574 108.399 306.348C108.531 306.122 108.598 305.847 108.598 305.522C108.598 305.198 108.534 304.922 108.406 304.696C108.278 304.47 108.111 304.303 107.904 304.195C107.698 304.082 107.474 304.025 107.233 304.025C106.987 304.025 106.761 304.082 106.555 304.195C106.353 304.303 106.191 304.47 106.068 304.696C105.945 304.922 105.884 305.198 105.884 305.522C105.884 305.852 105.943 306.13 106.061 306.356C106.183 306.582 106.346 306.751 106.547 306.865C106.749 306.973 106.97 307.027 107.211 307.027ZM112.135 303.435C112.627 303.435 113.025 303.585 113.33 303.885C113.635 304.18 113.787 304.608 113.787 305.168V307.55H113.123V305.264C113.123 304.861 113.023 304.554 112.821 304.342C112.619 304.126 112.344 304.018 111.995 304.018C111.641 304.018 111.358 304.128 111.147 304.35C110.94 304.571 110.837 304.893 110.837 305.316V307.55H110.166V303.509H110.837V304.084C110.97 303.878 111.149 303.718 111.376 303.605C111.607 303.492 111.86 303.435 112.135 303.435ZM114.633 305.515C114.633 305.102 114.716 304.741 114.884 304.431C115.051 304.116 115.279 303.873 115.569 303.701C115.864 303.529 116.191 303.442 116.55 303.442C116.904 303.442 117.212 303.519 117.472 303.671C117.733 303.824 117.927 304.015 118.055 304.246V303.509H118.733V307.55H118.055V306.798C117.922 307.034 117.723 307.231 117.458 307.388C117.197 307.541 116.892 307.617 116.543 307.617C116.184 307.617 115.86 307.528 115.569 307.351C115.279 307.174 115.051 306.926 114.884 306.606C114.716 306.287 114.633 305.923 114.633 305.515ZM118.055 305.522C118.055 305.217 117.993 304.952 117.871 304.726C117.748 304.5 117.58 304.327 117.369 304.209C117.162 304.087 116.934 304.025 116.683 304.025C116.432 304.025 116.204 304.084 115.997 304.202C115.791 304.32 115.626 304.492 115.503 304.718C115.38 304.945 115.319 305.21 115.319 305.515C115.319 305.825 115.38 306.095 115.503 306.326C115.626 306.552 115.791 306.727 115.997 306.85C116.204 306.968 116.432 307.027 116.683 307.027C116.934 307.027 117.162 306.968 117.369 306.85C117.58 306.727 117.748 306.552 117.871 306.326C117.993 306.095 118.055 305.827 118.055 305.522ZM120.539 302.093V307.55H119.868V302.093H120.539ZM123.398 305.522C123.398 305.104 123.482 304.741 123.649 304.431C123.816 304.116 124.047 303.873 124.342 303.701C124.642 303.529 124.984 303.442 125.367 303.442C125.864 303.442 126.272 303.563 126.592 303.804C126.916 304.045 127.13 304.379 127.233 304.807H126.51C126.442 304.561 126.306 304.367 126.105 304.224C125.908 304.082 125.662 304.01 125.367 304.01C124.984 304.01 124.674 304.143 124.438 304.409C124.202 304.669 124.084 305.04 124.084 305.522C124.084 306.009 124.202 306.385 124.438 306.651C124.674 306.916 124.984 307.049 125.367 307.049C125.662 307.049 125.908 306.98 126.105 306.842C126.301 306.705 126.437 306.508 126.51 306.252H127.233C127.125 306.665 126.909 306.997 126.584 307.248C126.26 307.494 125.854 307.617 125.367 307.617C124.984 307.617 124.642 307.531 124.342 307.359C124.047 307.187 123.816 306.943 123.649 306.629C123.482 306.314 123.398 305.945 123.398 305.522ZM129.891 307.617C129.513 307.617 129.169 307.531 128.859 307.359C128.554 307.187 128.313 306.943 128.136 306.629C127.964 306.309 127.878 305.94 127.878 305.522C127.878 305.109 127.966 304.745 128.143 304.431C128.325 304.111 128.571 303.868 128.881 303.701C129.191 303.529 129.537 303.442 129.921 303.442C130.304 303.442 130.651 303.529 130.961 303.701C131.271 303.868 131.514 304.109 131.691 304.423C131.873 304.738 131.964 305.104 131.964 305.522C131.964 305.94 131.87 306.309 131.684 306.629C131.502 306.943 131.253 307.187 130.939 307.359C130.624 307.531 130.275 307.617 129.891 307.617ZM129.891 307.027C130.132 307.027 130.359 306.97 130.57 306.857C130.781 306.744 130.951 306.574 131.079 306.348C131.212 306.122 131.278 305.847 131.278 305.522C131.278 305.198 131.214 304.922 131.086 304.696C130.958 304.47 130.791 304.303 130.585 304.195C130.378 304.082 130.154 304.025 129.914 304.025C129.668 304.025 129.442 304.082 129.235 304.195C129.033 304.303 128.871 304.47 128.748 304.696C128.625 304.922 128.564 305.198 128.564 305.522C128.564 305.852 128.623 306.13 128.741 306.356C128.864 306.582 129.026 306.751 129.228 306.865C129.429 306.973 129.65 307.027 129.891 307.027ZM134.815 303.435C135.307 303.435 135.705 303.585 136.01 303.885C136.315 304.18 136.468 304.608 136.468 305.168V307.55H135.804V305.264C135.804 304.861 135.703 304.554 135.501 304.342C135.3 304.126 135.024 304.018 134.675 304.018C134.321 304.018 134.039 304.128 133.827 304.35C133.621 304.571 133.517 304.893 133.517 305.316V307.55H132.846V303.509H133.517V304.084C133.65 303.878 133.83 303.718 134.056 303.605C134.287 303.492 134.54 303.435 134.815 303.435ZM138.995 307.617C138.685 307.617 138.407 307.565 138.161 307.462C137.915 307.354 137.721 307.206 137.579 307.019C137.436 306.828 137.357 306.609 137.343 306.363H138.036C138.056 306.565 138.149 306.729 138.316 306.857C138.488 306.985 138.712 307.049 138.987 307.049C139.243 307.049 139.445 306.992 139.592 306.879C139.74 306.766 139.813 306.624 139.813 306.452C139.813 306.275 139.735 306.144 139.577 306.061C139.42 305.972 139.177 305.886 138.847 305.803C138.547 305.724 138.301 305.645 138.11 305.567C137.923 305.483 137.761 305.362 137.623 305.205C137.49 305.043 137.424 304.831 137.424 304.571C137.424 304.364 137.485 304.175 137.608 304.003C137.731 303.831 137.906 303.696 138.132 303.597C138.358 303.494 138.616 303.442 138.906 303.442C139.354 303.442 139.715 303.556 139.99 303.782C140.266 304.008 140.413 304.318 140.433 304.711H139.762C139.747 304.5 139.661 304.33 139.504 304.202C139.351 304.074 139.145 304.01 138.884 304.01C138.643 304.01 138.451 304.062 138.309 304.165C138.166 304.268 138.095 304.404 138.095 304.571C138.095 304.704 138.137 304.814 138.22 304.903C138.309 304.986 138.417 305.055 138.545 305.109C138.678 305.158 138.859 305.215 139.091 305.279C139.381 305.358 139.617 305.436 139.799 305.515C139.98 305.589 140.135 305.702 140.263 305.854C140.396 306.007 140.465 306.206 140.47 306.452C140.47 306.673 140.408 306.872 140.285 307.049C140.162 307.226 139.988 307.366 139.762 307.469C139.54 307.568 139.285 307.617 138.995 307.617ZM145.001 303.509V307.55H144.33V306.953C144.202 307.16 144.023 307.322 143.792 307.44C143.566 307.553 143.315 307.609 143.04 307.609C142.725 307.609 142.442 307.546 142.192 307.418C141.941 307.285 141.742 307.088 141.594 306.828C141.452 306.567 141.38 306.25 141.38 305.876V303.509H142.044V305.788C142.044 306.186 142.145 306.493 142.346 306.71C142.548 306.921 142.823 307.027 143.172 307.027C143.531 307.027 143.814 306.916 144.021 306.695C144.227 306.474 144.33 306.152 144.33 305.729V303.509H145.001ZM146.806 302.093V307.55H146.135V302.093H146.806ZM148.768 304.062V306.444C148.768 306.641 148.81 306.781 148.894 306.865C148.977 306.943 149.122 306.983 149.329 306.983H149.823V307.55H149.218C148.845 307.55 148.564 307.464 148.377 307.292C148.191 307.12 148.097 306.838 148.097 306.444V304.062H147.574V303.509H148.097V302.491H148.768V303.509H149.823V304.062H148.768ZM152.067 307.617C151.757 307.617 151.479 307.565 151.234 307.462C150.988 307.354 150.793 307.206 150.651 307.019C150.508 306.828 150.43 306.609 150.415 306.363H151.108C151.128 306.565 151.221 306.729 151.388 306.857C151.561 306.985 151.784 307.049 152.06 307.049C152.315 307.049 152.517 306.992 152.664 306.879C152.812 306.766 152.886 306.624 152.886 306.452C152.886 306.275 152.807 306.144 152.65 306.061C152.492 305.972 152.249 305.886 151.919 305.803C151.62 305.724 151.374 305.645 151.182 305.567C150.995 305.483 150.833 305.362 150.695 305.205C150.562 305.043 150.496 304.831 150.496 304.571C150.496 304.364 150.557 304.175 150.68 304.003C150.803 303.831 150.978 303.696 151.204 303.597C151.43 303.494 151.688 303.442 151.978 303.442C152.426 303.442 152.787 303.556 153.063 303.782C153.338 304.008 153.485 304.318 153.505 304.711H152.834C152.819 304.5 152.733 304.33 152.576 304.202C152.423 304.074 152.217 304.01 151.956 304.01C151.715 304.01 151.524 304.062 151.381 304.165C151.238 304.268 151.167 304.404 151.167 304.571C151.167 304.704 151.209 304.814 151.293 304.903C151.381 304.986 151.489 305.055 151.617 305.109C151.75 305.158 151.932 305.215 152.163 305.279C152.453 305.358 152.689 305.436 152.871 305.515C153.053 305.589 153.208 305.702 153.335 305.854C153.468 306.007 153.537 306.206 153.542 306.452C153.542 306.673 153.481 306.872 153.358 307.049C153.235 307.226 153.06 307.366 152.834 307.469C152.613 307.568 152.357 307.617 152.067 307.617Z" fill="#6E798C"/>
<path d="M127.963 245.133L130.671 236.31H130.914L128.207 245.133H127.963ZM131.507 243.51V243.409L131.649 243.369C131.777 243.335 131.865 243.277 131.912 243.196C131.966 243.115 131.997 243.007 132.004 242.872V239.697C132.004 239.549 131.98 239.441 131.933 239.373C131.885 239.299 131.794 239.248 131.659 239.221L131.507 239.18V239.079L133.241 238.491L133.342 238.592L133.423 239.282C133.646 239.059 133.9 238.869 134.184 238.714C134.475 238.558 134.775 238.481 135.086 238.481C135.411 238.481 135.671 238.548 135.867 238.683C136.063 238.812 136.212 239.015 136.314 239.292C136.577 239.042 136.861 238.846 137.165 238.704C137.476 238.555 137.777 238.481 138.068 238.481C138.548 238.481 138.899 238.596 139.123 238.825C139.352 239.055 139.467 239.417 139.467 239.91V242.882C139.467 243.145 139.589 243.311 139.832 243.379L139.944 243.409V243.51H137.601V243.409L137.703 243.379C137.831 243.338 137.919 243.277 137.966 243.196C138.021 243.115 138.048 243.007 138.048 242.872V239.768C138.048 239.485 137.997 239.292 137.896 239.19C137.794 239.082 137.632 239.028 137.409 239.028C137.233 239.028 137.061 239.069 136.892 239.15C136.729 239.224 136.557 239.339 136.374 239.495C136.408 239.603 136.428 239.721 136.435 239.85C136.449 239.978 136.455 240.113 136.455 240.255V242.882C136.462 243.145 136.584 243.311 136.821 243.379L136.912 243.409V243.51H134.559V243.409L134.701 243.369C134.83 243.328 134.917 243.27 134.965 243.196C135.019 243.115 135.046 243.007 135.046 242.872V239.779C135.046 239.508 134.995 239.316 134.894 239.201C134.799 239.086 134.634 239.028 134.397 239.028C134.241 239.028 134.086 239.069 133.93 239.15C133.775 239.224 133.613 239.336 133.444 239.485V242.882C133.444 243.145 133.562 243.311 133.799 243.379L133.89 243.409V243.51H131.507ZM143.312 243.663C142.798 243.663 142.352 243.558 141.973 243.348C141.595 243.132 141.3 242.828 141.091 242.436C140.888 242.043 140.787 241.584 140.787 241.056C140.787 240.529 140.895 240.073 141.111 239.687C141.334 239.302 141.635 239.005 142.014 238.795C142.399 238.585 142.832 238.481 143.312 238.481C143.792 238.481 144.221 238.585 144.6 238.795C144.978 238.998 145.276 239.292 145.492 239.677C145.715 240.063 145.827 240.522 145.827 241.056C145.827 241.59 145.722 242.054 145.512 242.446C145.309 242.831 145.019 243.132 144.64 243.348C144.268 243.558 143.826 243.663 143.312 243.663ZM143.312 243.46C143.548 243.46 143.738 243.392 143.88 243.257C144.022 243.122 144.123 242.882 144.184 242.537C144.251 242.192 144.285 241.705 144.285 241.077C144.285 240.441 144.251 239.951 144.184 239.606C144.123 239.261 144.022 239.021 143.88 238.886C143.738 238.751 143.548 238.683 143.312 238.683C143.075 238.683 142.882 238.751 142.734 238.886C142.592 239.021 142.487 239.261 142.419 239.606C142.358 239.951 142.328 240.441 142.328 241.077C142.328 241.705 142.358 242.192 142.419 242.537C142.487 242.882 142.592 243.122 142.734 243.257C142.882 243.392 143.075 243.46 143.312 243.46Z" fill="#6E798C"/>
<path d="M78.282 243.711C76.1579 243.711 74.4542 243.346 73.1709 242.616C71.9098 241.864 71.2792 240.824 71.2792 239.496C71.2792 238.855 71.4672 238.346 71.8434 237.97C72.2416 237.571 72.7174 237.372 73.2705 237.372C73.8236 237.372 74.2993 237.538 74.6976 237.87C75.0959 238.202 75.3503 238.799 75.4609 239.662L75.5605 240.193C75.7154 241.211 76.0141 241.941 76.4566 242.384C76.9212 242.826 77.5408 243.047 78.3152 243.047V234.85L77.3195 234.485C75.4388 233.843 73.9785 233.002 72.9386 231.962C71.9208 230.9 71.4119 229.573 71.4119 227.98C71.4119 226.21 72.0204 224.738 73.2373 223.566C74.4763 222.393 76.18 221.762 78.3483 221.674V218.687H79.1449V221.674C81.0919 221.718 82.6075 222.161 83.6917 223.002C84.798 223.82 85.3511 224.794 85.3511 225.922C85.3511 226.586 85.1741 227.095 84.8201 227.449C84.4882 227.803 84.0236 227.98 83.4262 227.98C82.9173 227.98 82.4527 227.803 82.0323 227.449C81.634 227.095 81.3464 226.431 81.1694 225.457L81.0366 224.694C80.9039 224.008 80.7047 223.499 80.4392 223.167C80.1737 222.813 79.7423 222.603 79.1449 222.537V230.336L79.7423 230.535C82.0655 231.288 83.6917 232.228 84.621 233.356C85.5724 234.485 86.0481 235.801 86.0481 237.306C86.0481 238.478 85.7605 239.529 85.1852 240.459C84.632 241.366 83.8355 242.107 82.7956 242.682C81.7557 243.258 80.5277 243.59 79.1117 243.678V247.03H78.3152V243.711H78.282ZM74.9299 225.989C74.9299 227.006 75.2065 227.847 75.7596 228.511C76.3349 229.175 77.1978 229.706 78.3483 230.104V222.504C77.8173 222.548 77.2863 222.703 76.7553 222.968C76.2243 223.234 75.7818 223.621 75.4278 224.13C75.0959 224.617 74.9299 225.236 74.9299 225.989ZM82.3974 238.998C82.3974 238.003 82.154 237.228 81.6672 236.675C81.1804 236.122 80.3286 235.602 79.1117 235.115V243.014C80.1295 242.859 80.926 242.428 81.5013 241.72C82.0987 241.012 82.3974 240.105 82.3974 238.998ZM97.041 243.711C95.5586 243.711 94.3417 243.545 93.3903 243.213C92.461 242.881 91.5428 242.494 90.6356 242.052L91.0007 237.737H91.3326L92.7929 240.426C93.7664 242.173 95.1161 243.047 96.8419 243.047C97.8597 243.047 98.6783 242.627 99.2979 241.786C99.9395 240.923 100.26 239.485 100.26 237.472C100.26 235.724 99.9948 234.474 99.4638 233.721C98.9328 232.947 98.0256 232.56 96.7423 232.56H94.751V231.896H96.51C97.6827 231.896 98.5235 231.542 99.0323 230.834C99.5634 230.126 99.8289 228.898 99.8289 227.15C99.8289 225.446 99.5744 224.241 99.0655 223.533C98.5566 222.802 97.8818 222.437 97.041 222.437C96.2003 222.437 95.4922 222.681 94.917 223.167C94.3638 223.654 93.9102 224.23 93.5562 224.893L92.0627 227.681L91.7309 227.648L92.0627 222.769C92.7708 222.459 93.5562 222.205 94.4191 222.006C95.3042 221.785 96.2888 221.674 97.3729 221.674C99.6961 221.674 101.455 222.183 102.65 223.201C103.867 224.196 104.475 225.446 104.475 226.951C104.475 228.035 104.011 229.075 103.081 230.071C102.152 231.044 100.692 231.719 98.7005 232.095C100.957 232.294 102.595 232.903 103.612 233.921C104.63 234.938 105.139 236.166 105.139 237.605C105.139 238.755 104.807 239.795 104.143 240.724C103.502 241.654 102.572 242.384 101.356 242.915C100.161 243.446 98.7226 243.711 97.041 243.711ZM115.701 243.711C114.417 243.711 113.267 243.59 112.249 243.346C111.253 243.125 110.368 242.749 109.594 242.218L109.826 238.036H110.158L111.685 240.757C112.127 241.554 112.669 242.14 113.311 242.516C113.953 242.87 114.661 243.047 115.435 243.047C117.979 243.047 119.252 241.111 119.252 237.239C119.252 235.492 118.909 234.164 118.223 233.257C117.559 232.35 116.563 231.896 115.236 231.896C114.616 231.896 113.997 231.985 113.377 232.162C112.78 232.316 112.227 232.527 111.718 232.792L111.121 232.427L111.851 222.172H123.467V225.955H112.514L112.05 231.697C112.559 231.321 113.245 230.967 114.107 230.635C114.97 230.303 115.878 230.137 116.829 230.137C118.267 230.137 119.539 230.392 120.646 230.9C121.774 231.409 122.648 232.162 123.268 233.157C123.909 234.131 124.23 235.337 124.23 236.775C124.23 238.257 123.854 239.518 123.102 240.558C122.371 241.598 121.365 242.384 120.081 242.915C118.798 243.446 117.338 243.711 115.701 243.711Z" fill="#081F32"/>
<path d="M91.7014 202.446C92.0096 202.504 92.263 202.658 92.4615 202.908C92.66 203.159 92.7593 203.447 92.7593 203.77C92.7593 204.063 92.6861 204.322 92.5399 204.546C92.3988 204.766 92.1925 204.938 91.9208 205.063C91.6491 205.189 91.3279 205.251 90.9569 205.251H88.5983V199.782H90.8551C91.226 199.782 91.5447 199.842 91.8111 199.962C92.0827 200.082 92.2865 200.249 92.4223 200.464C92.5634 200.678 92.6339 200.921 92.6339 201.192C92.6339 201.511 92.5477 201.777 92.3753 201.992C92.2081 202.206 91.9835 202.357 91.7014 202.446ZM89.6953 202.039H90.6984C90.9596 202.039 91.1607 201.981 91.3017 201.866C91.4428 201.746 91.5133 201.576 91.5133 201.357C91.5133 201.137 91.4428 200.968 91.3017 200.848C91.1607 200.727 90.9596 200.667 90.6984 200.667H89.6953V202.039ZM90.8002 204.358C91.0667 204.358 91.273 204.295 91.4193 204.17C91.5708 204.045 91.6465 203.867 91.6465 203.637C91.6465 203.402 91.5682 203.219 91.4114 203.089C91.2547 202.953 91.0431 202.885 90.7767 202.885H89.6953V204.358H90.8002ZM98.5547 204.209H96.3763L96.0158 205.251H94.8639L96.8308 199.774H98.1081L100.075 205.251H98.9152L98.5547 204.209ZM98.257 203.332L97.4655 201.043L96.6741 203.332H98.257ZM104.266 205.306C103.885 205.306 103.54 205.241 103.232 205.11C102.929 204.98 102.688 204.792 102.511 204.546C102.333 204.301 102.242 204.011 102.236 203.676H103.412C103.427 203.901 103.506 204.079 103.647 204.209C103.793 204.34 103.992 204.405 104.242 204.405C104.498 204.405 104.7 204.345 104.846 204.225C104.992 204.1 105.065 203.938 105.065 203.739C105.065 203.577 105.016 203.444 104.916 203.339C104.817 203.235 104.692 203.154 104.54 203.097C104.394 203.034 104.19 202.966 103.929 202.893C103.574 202.788 103.284 202.686 103.059 202.587C102.84 202.483 102.649 202.329 102.487 202.125C102.33 201.916 102.252 201.639 102.252 201.294C102.252 200.97 102.333 200.688 102.495 200.448C102.657 200.208 102.884 200.025 103.177 199.899C103.469 199.769 103.804 199.703 104.18 199.703C104.744 199.703 105.201 199.842 105.551 200.119C105.906 200.39 106.102 200.772 106.139 201.263H104.932C104.922 201.075 104.841 200.921 104.689 200.801C104.543 200.675 104.347 200.612 104.101 200.612C103.887 200.612 103.715 200.667 103.584 200.777C103.459 200.887 103.396 201.046 103.396 201.255C103.396 201.401 103.443 201.524 103.537 201.623C103.636 201.717 103.757 201.796 103.898 201.858C104.044 201.916 104.248 201.984 104.509 202.062C104.864 202.167 105.154 202.271 105.379 202.376C105.603 202.48 105.797 202.637 105.959 202.846C106.12 203.055 106.201 203.329 106.201 203.669C106.201 203.961 106.126 204.233 105.974 204.484C105.823 204.734 105.601 204.935 105.308 205.087C105.016 205.233 104.668 205.306 104.266 205.306ZM109.817 199.782V205.251H108.72V199.782H109.817ZM112.202 202.509C112.202 201.971 112.322 201.49 112.562 201.067C112.808 200.639 113.139 200.307 113.557 200.072C113.98 199.831 114.453 199.711 114.976 199.711C115.587 199.711 116.122 199.868 116.582 200.181C117.042 200.495 117.363 200.928 117.546 201.482H116.284C116.159 201.221 115.981 201.025 115.751 200.895C115.527 200.764 115.266 200.699 114.968 200.699C114.649 200.699 114.364 200.774 114.114 200.926C113.868 201.072 113.675 201.281 113.534 201.553C113.398 201.824 113.33 202.143 113.33 202.509C113.33 202.869 113.398 203.188 113.534 203.465C113.675 203.736 113.868 203.948 114.114 204.1C114.364 204.246 114.649 204.319 114.968 204.319C115.266 204.319 115.527 204.254 115.751 204.123C115.981 203.987 116.159 203.789 116.284 203.528H117.546C117.363 204.086 117.042 204.523 116.582 204.836C116.128 205.144 115.592 205.298 114.976 205.298C114.453 205.298 113.98 205.181 113.557 204.946C113.139 204.706 112.808 204.374 112.562 203.951C112.322 203.528 112.202 203.047 112.202 202.509Z" fill="#081F32"/>
<rect x="147.058" y="163.063" width="45.6343" height="11.0629" rx="2" fill="#FE9868"/>
<path d="M153.004 167.772H154.028C154.466 167.772 154.798 167.834 155.023 167.957C155.248 168.08 155.36 168.296 155.36 168.605C155.36 168.73 155.34 168.842 155.3 168.943C155.261 169.043 155.204 169.126 155.129 169.19C155.054 169.255 154.962 169.297 154.854 169.316V169.339C154.964 169.361 155.063 169.4 155.151 169.456C155.24 169.51 155.31 169.589 155.363 169.694C155.417 169.798 155.444 169.936 155.444 170.109C155.444 170.308 155.395 170.479 155.297 170.622C155.2 170.764 155.06 170.874 154.879 170.95C154.699 171.025 154.484 171.063 154.235 171.063H153.004V167.772ZM153.702 169.075H154.107C154.309 169.075 154.45 169.044 154.528 168.981C154.606 168.916 154.645 168.822 154.645 168.697C154.645 168.571 154.598 168.481 154.505 168.427C154.414 168.372 154.268 168.344 154.069 168.344H153.702V169.075ZM153.702 169.629V170.487H154.156C154.366 170.487 154.513 170.446 154.595 170.365C154.678 170.284 154.719 170.175 154.719 170.039C154.719 169.958 154.701 169.886 154.665 169.825C154.629 169.763 154.568 169.715 154.483 169.681C154.399 169.646 154.282 169.629 154.134 169.629H153.702ZM158.918 171.063H157.023V167.772H158.918V168.344H157.721V169.066H158.835V169.638H157.721V170.487H158.918V171.063ZM162.471 170.149C162.471 170.344 162.424 170.514 162.329 170.658C162.235 170.802 162.097 170.913 161.915 170.991C161.735 171.069 161.516 171.108 161.258 171.108C161.144 171.108 161.032 171.1 160.922 171.085C160.814 171.07 160.71 171.049 160.61 171.02C160.511 170.99 160.416 170.953 160.326 170.91V170.262C160.482 170.331 160.644 170.393 160.812 170.448C160.98 170.504 161.147 170.532 161.312 170.532C161.426 170.532 161.517 170.517 161.586 170.487C161.657 170.457 161.708 170.415 161.74 170.363C161.771 170.31 161.787 170.25 161.787 170.183C161.787 170.1 161.759 170.03 161.703 169.971C161.648 169.913 161.571 169.858 161.474 169.807C161.378 169.756 161.269 169.701 161.148 169.643C161.071 169.607 160.988 169.563 160.898 169.512C160.808 169.46 160.722 169.396 160.641 169.321C160.56 169.246 160.493 169.155 160.441 169.048C160.39 168.94 160.364 168.811 160.364 168.661C160.364 168.465 160.409 168.297 160.499 168.157C160.589 168.018 160.718 167.911 160.884 167.838C161.052 167.763 161.25 167.725 161.478 167.725C161.649 167.725 161.812 167.745 161.967 167.786C162.123 167.825 162.286 167.882 162.455 167.957L162.23 168.499C162.079 168.438 161.943 168.39 161.823 168.357C161.703 168.323 161.58 168.306 161.456 168.306C161.369 168.306 161.295 168.32 161.233 168.348C161.172 168.375 161.125 168.414 161.094 168.466C161.062 168.515 161.046 168.573 161.046 168.639C161.046 168.717 161.069 168.783 161.114 168.837C161.16 168.889 161.229 168.94 161.321 168.99C161.414 169.039 161.529 169.097 161.667 169.163C161.836 169.243 161.979 169.326 162.097 169.413C162.217 169.499 162.31 169.6 162.374 169.717C162.439 169.832 162.471 169.977 162.471 170.149ZM165.259 171.063H164.561V168.353H163.667V167.772H166.152V168.353H165.259V171.063ZM172.687 169.413C172.687 169.667 172.655 169.898 172.592 170.106C172.529 170.313 172.433 170.492 172.304 170.642C172.177 170.792 172.014 170.908 171.818 170.989C171.621 171.068 171.389 171.108 171.12 171.108C170.852 171.108 170.619 171.068 170.422 170.989C170.226 170.908 170.063 170.792 169.934 170.642C169.806 170.492 169.711 170.313 169.648 170.104C169.585 169.895 169.554 169.664 169.554 169.409C169.554 169.068 169.609 168.772 169.72 168.52C169.833 168.266 170.005 168.069 170.238 167.93C170.47 167.79 170.766 167.721 171.125 167.721C171.482 167.721 171.775 167.79 172.005 167.93C172.236 168.069 172.407 168.266 172.518 168.52C172.63 168.773 172.687 169.071 172.687 169.413ZM170.285 169.413C170.285 169.643 170.314 169.841 170.371 170.007C170.429 170.172 170.52 170.3 170.643 170.39C170.766 170.478 170.925 170.523 171.12 170.523C171.318 170.523 171.479 170.478 171.602 170.39C171.725 170.3 171.814 170.172 171.87 170.007C171.927 169.841 171.955 169.643 171.955 169.413C171.955 169.068 171.891 168.796 171.762 168.598C171.633 168.4 171.42 168.301 171.125 168.301C170.928 168.301 170.768 168.346 170.643 168.436C170.52 168.525 170.429 168.652 170.371 168.819C170.314 168.984 170.285 169.182 170.285 169.413ZM174.977 171.063H174.291V167.772H176.177V168.344H174.977V169.192H176.093V169.762H174.977V171.063ZM178.429 171.063H177.742V167.772H179.628V168.344H178.429V169.192H179.545V169.762H178.429V171.063ZM183.089 171.063H181.194V167.772H183.089V168.344H181.892V169.066H183.006V169.638H181.892V170.487H183.089V171.063ZM185.659 167.772C185.957 167.772 186.203 167.808 186.397 167.88C186.592 167.952 186.737 168.061 186.831 168.207C186.926 168.352 186.973 168.536 186.973 168.758C186.973 168.908 186.945 169.039 186.888 169.152C186.831 169.265 186.755 169.36 186.662 169.438C186.569 169.516 186.469 169.58 186.361 169.629L187.329 171.063H186.554L185.769 169.8H185.398V171.063H184.7V167.772H185.659ZM185.609 168.344H185.398V169.233H185.623C185.854 169.233 186.019 169.195 186.118 169.118C186.218 169.04 186.269 168.926 186.269 168.776C186.269 168.62 186.215 168.509 186.107 168.443C186 168.377 185.834 168.344 185.609 168.344Z" fill="white"/>
</g>
<g clip-path="url(#clip3_2_10805)">
<path d="M138 175.052V175.967L137.367 176.882V175.263L138 175.052Z" fill="#7E412D"/>
<path d="M78.3618 175.826V176.952L79.2057 177.515L79.4871 176.178L78.3618 175.826Z" fill="#7E412D"/>
<path d="M91.0219 179.063L80.754 175.756C80.754 175.756 78.7145 175.263 78.3629 176.53C78.2222 177.093 78.5036 177.656 78.9958 177.937C80.8947 179.063 86.8022 182.3 91.0922 182.441L126.678 182.582C126.819 182.582 126.959 182.582 127.1 182.511C128.577 182.019 138.001 178.712 138.001 175.967C138.001 174.138 126.819 179.204 126.819 179.204L91.0219 179.063Z" fill="#7E412D"/>
<path d="M91.0216 178.219L80.7538 174.912C80.7538 174.912 78.7846 174.419 78.3626 175.615C78.1516 176.178 78.4329 176.741 78.9252 177.023C80.8241 178.149 86.7316 181.386 91.0216 181.526L126.818 181.667C126.818 181.667 137.93 178.078 137.93 175.052C137.93 173.223 126.748 178.289 126.748 178.289L91.0216 178.219Z" fill="#BC7153"/>
<path d="M94.8893 185.185C94.8893 186.733 93.6937 188 92.1465 188C90.5993 188 89.3334 186.804 89.3334 185.256C89.3334 183.708 90.529 182.441 92.0762 182.441C93.6234 182.441 94.8893 183.637 94.8893 185.185Z" fill="#17161C"/>
<path d="M93.061 185.185C93.061 185.678 92.639 186.1 92.1467 186.171C91.6544 186.171 91.2324 185.748 91.1621 185.256C91.1621 184.763 91.5841 184.341 92.0764 184.271C92.639 184.271 93.061 184.693 93.061 185.185Z" fill="#C6C6C6"/>
<path d="M126.396 185.185C126.396 186.733 125.2 188 123.653 188C122.106 188 120.84 186.804 120.84 185.256C120.84 183.708 122.035 182.441 123.583 182.441C125.059 182.441 126.325 183.637 126.396 185.185Z" fill="#17161C"/>
<path d="M124.497 185.185C124.497 185.678 124.075 186.1 123.583 186.171C123.091 186.171 122.669 185.748 122.598 185.256C122.598 184.763 123.02 184.341 123.513 184.271C124.005 184.2 124.497 184.693 124.497 185.185Z" fill="#C6C6C6"/>
<path d="M71.1868 166.327L77.8679 158.797L80.1888 162.878L73.4373 169.352L71.1868 166.327Z" fill="#E2E2E2"/>
<path d="M71.7493 165.552C71.89 165.341 71.7493 165.06 71.5383 164.919C71.1164 164.778 70.3428 164.567 69.2879 164.638C67.389 164.849 66.8967 165.412 66.8967 165.412L74.7031 180.893C75.547 180.47 75.969 179.556 75.8283 178.571L73.9295 170.126L74.6328 168.649C74.7031 168.508 74.5624 168.297 74.4218 168.297H73.0856C73.0152 168.438 70.9054 167.241 71.7493 165.552Z" fill="#1D1C21"/>
<path d="M74.6821 181.001L66.8513 165.487L65.8469 165.994L73.6777 181.508L74.6821 181.001Z" fill="#EFEEED"/>
<path d="M91.1598 115.45L96.6453 149.016C97.1376 152.534 94.1839 155.56 90.6675 155.068C88.4873 154.786 86.7292 153.238 86.1665 151.057L78.8525 123.613C78.5008 122.276 78.5008 120.869 78.7821 119.532L80.048 113.269L91.1598 115.45Z" fill="#060324"/>
<path d="M86.2371 146.06L74.0704 160.697L79.9076 167.101L94.6061 154.364C97.0675 152.183 97.3489 148.453 95.1687 145.99C92.8479 143.246 88.5579 143.246 86.2371 146.06Z" fill="#060324"/>
<path d="M102.341 175.756L103.677 165.412L108.389 164.919L105.998 174.841L102.341 175.756Z" fill="#E2E2E2"/>
<path d="M102.692 174.489C102.552 174.278 102.27 174.208 102.059 174.419C101.708 174.7 101.215 175.263 100.793 176.319C100.09 178.078 100.371 178.852 100.371 178.852L117.742 178.923C117.742 178.008 117.109 177.163 116.195 176.882L107.826 174.7L106.912 173.363C106.771 173.223 106.56 173.223 106.49 173.434L105.857 174.63C105.857 174.63 103.817 176.037 102.692 174.489Z" fill="#1D1C21"/>
<path d="M117.747 178.914L100.376 178.796L100.368 179.922L117.739 180.039L117.747 178.914Z" fill="#EFEEED"/>
<path d="M81.4548 127.272L102.553 123.332L96.0126 110.454L80.6108 111.932L81.4548 127.272Z" fill="#060324"/>
<path d="M102.553 142.683L101.287 166.819L109.867 168.227L113.453 149.086C114.086 145.849 111.906 142.753 108.671 142.19C105.155 141.487 102.693 139.094 102.553 142.683Z" fill="#060324"/>
<path d="M102.553 123.332L112.821 144.512C114.087 147.398 112.469 150.635 109.445 151.409C107.335 151.901 105.085 150.986 103.96 149.157L87.6436 123.332H102.553Z" fill="#060324"/>
<path d="M118.941 127.835L125.481 128.609C125.833 128.68 126.044 128.891 126.114 129.243C126.184 129.594 125.903 129.946 125.551 130.017L123.723 130.298L126.466 133.324C126.817 133.746 126.677 134.309 126.184 134.52L123.371 135.646C123.16 135.716 122.879 135.716 122.668 135.576C121.261 134.661 117.393 131.846 115.776 129.454L118.941 127.835Z" fill="#F9BFA1"/>
<path d="M100.515 93.9178L101.429 114.325C101.57 116.858 104.242 118.476 106.493 117.35C107.759 116.787 109.165 114.747 109.165 113.41L108.462 93.7067C108.462 91.5253 106.704 89.7661 104.523 89.7661C102.273 89.6957 100.444 91.5956 100.515 93.9178Z" fill="#FE9868"/>
<path d="M107.969 111.51L121.191 127.624L116.901 131.354L102.484 116.717C100.725 114.958 101.569 111.932 103.96 111.299C105.226 110.947 107.125 110.595 107.969 111.51Z" fill="#FE9868"/>
<path d="M102.202 87.5142C102.202 87.5142 94.0443 85.1921 89.895 88.2179C85.7457 91.2437 76.9547 115.591 76.9547 115.591C76.9547 115.591 82.7919 123.895 99.4596 118.406C99.5299 118.054 100.444 105.81 100.444 105.81C103.328 102.714 112.54 93.4955 106.492 89.3438L102.202 87.5142Z" fill="#FE9868"/>
<path d="M101.077 105.177C101.077 105.177 103.328 102.362 106 98.4917" stroke="#E54141" stroke-width="0.200549" stroke-miterlimit="10"/>
<path d="M69.289 118.547L73.6493 123.472C73.8603 123.754 73.8603 124.106 73.7197 124.387C73.4384 124.669 73.0867 124.739 72.7351 124.598L71.1879 123.613V127.695C71.1879 128.187 70.6253 128.609 70.133 128.398L67.3199 127.413C67.1089 127.272 66.9682 127.061 66.8979 126.85C66.4056 125.232 64.6474 120.236 65.843 117.702L69.289 118.547Z" fill="#F9BFA1"/>
<path d="M91.512 87.3736L72.6643 95.1141C70.3434 96.0992 69.7105 99.1251 71.539 100.884C72.5236 101.869 74.5631 102.925 75.8993 102.432L92.356 95.677C94.3955 94.9733 95.4504 92.7216 94.7471 90.6809C93.9735 88.4995 93.6219 86.4588 91.512 87.3736Z" fill="#FE9868"/>
<path d="M78.2204 100.11L70.5547 119.743L64.9988 117.773L70.625 97.3658C71.2579 94.9733 74.282 94.1992 76.0402 95.9584C76.9545 96.8029 78.6423 98.9139 78.2204 100.11Z" fill="#FE9868"/>
<path d="M83.4254 99.3362L91.3021 96.0992" stroke="#E54141" stroke-width="0.200549" stroke-miterlimit="10"/>
<path d="M97.7019 86.7401L95.8734 86.5994C95.8734 86.5994 94.6778 90.9622 99.5304 92.2288C100.163 92.3696 100.796 92.4399 101.359 92.3696C102.554 92.2288 104.453 91.5251 105.016 88.7104L104.031 88.2882L97.7019 86.7401Z" fill="#F5BFA1"/>
<path d="M97.491 87.3031L100.093 81.1107L106.563 83.7847L103.961 89.9771C103.188 91.7363 101.148 92.5807 99.3899 91.8771C97.6317 91.1734 96.7877 89.0623 97.491 87.3031Z" fill="#F5BFA1"/>
<path d="M100.515 79.4219C100.515 79.4219 97.9827 87.4439 104.172 89.4845L105.789 85.6143L100.515 79.4219Z" fill="#E39780"/>
<path d="M114.932 82.0959C114.65 83.2922 113.455 84.0662 112.259 83.7847C111.064 83.5033 110.29 82.307 110.571 81.1107C110.853 79.9145 112.048 79.1404 113.244 79.4219C114.51 79.633 115.213 80.8293 114.932 82.0959Z" fill="#E39780"/>
<path d="M115.425 74.9887C115.425 74.9887 117.394 79.3515 112.4 80.3366L111.557 79.7033C111.557 79.7033 110.642 75.2701 113.244 73.4406L115.425 74.9887Z" fill="#171E21"/>
<path d="M105.297 87.866L105.086 87.7956C101.5 86.9512 99.3196 83.4328 100.164 79.844L101.851 72.5961C102.062 71.6813 102.977 71.1184 103.891 71.3295L112.401 73.2998C114.018 73.6516 115.073 75.3405 114.651 76.9589L113.244 82.9402C112.471 86.4586 108.884 88.7104 105.297 87.866Z" fill="#F5BFA1"/>
<path d="M107.758 80.4774C107.688 80.7588 107.336 80.8996 107.055 80.8292C106.774 80.7588 106.633 80.407 106.703 80.1255C106.774 79.844 107.125 79.7033 107.407 79.7737C107.688 79.9144 107.829 80.1959 107.758 80.4774Z" fill="#171E21"/>
<path d="M112.26 81.5329C112.19 81.8144 111.838 81.9551 111.557 81.8847C111.275 81.8144 111.135 81.4625 111.205 81.1811C111.275 80.8996 111.627 80.7588 111.908 80.8292C112.19 80.8996 112.33 81.2514 112.26 81.5329Z" fill="#171E21"/>
<path d="M110.009 81.6033L109.798 83.1514C109.798 83.1514 109.516 83.9254 108.462 83.3625" stroke="#E39780" stroke-width="0.163702" stroke-miterlimit="10" stroke-linecap="round" stroke-linejoin="round"/>
<path d="M106.141 78.4367H106.211L108.602 78.9293C108.883 78.9997 109.094 78.7886 109.165 78.5071C109.235 78.2256 109.024 78.0145 108.743 77.9441L106.492 77.5219C106.211 77.4516 106 77.6627 105.93 77.9441C105.859 78.1553 105.93 78.3664 106.141 78.4367Z" fill="#171E21"/>
<path d="M111.627 79.6329H111.697L113.174 79.9144C113.455 79.9848 113.736 79.7737 113.736 79.4922C113.807 79.2107 113.596 78.9293 113.314 78.9293L111.837 78.6478C111.556 78.5774 111.275 78.7885 111.275 79.07C111.275 79.2811 111.416 79.4922 111.627 79.6329Z" fill="#171E21"/>
<path d="M106.352 83.3624C106.352 83.3624 106.282 84.7698 108.743 85.0513" stroke="#E39780" stroke-width="0.163702" stroke-miterlimit="10" stroke-linecap="round" stroke-linejoin="round"/>
<path d="M100.656 78.8589C100.656 78.8589 104.454 79.4922 105.508 72.5258L101.992 69.7111L101.781 70.6962L100.656 78.8589Z" fill="#171E21"/>
<path d="M100.797 78.1552L99.4604 77.8034C99.4604 77.8034 100.445 73.5813 100.093 72.3147C99.6714 70.7666 101.008 66.263 104.172 67.7408C105.087 68.2333 106.142 68.4444 107.196 68.3037C107.478 68.2333 107.759 68.163 108.04 68.0926C109.799 67.4593 111.205 65.3482 114.44 67.0371C118.027 68.8666 119.574 74.5665 115.987 76.5368C113.807 77.733 105.72 75.059 104.665 73.6517L102.344 75.8331L100.797 78.1552Z" fill="#171E21"/>
<path d="M102.133 78.7885C101.851 79.9848 100.656 80.7588 99.4601 80.4774C98.2645 80.1959 97.4909 78.9996 97.7722 77.8034C98.0536 76.6071 99.2491 75.8331 100.445 76.1145C101.64 76.396 102.414 77.5923 102.133 78.7885Z" fill="#F5BFA1"/>
</g>
<path d="M71.4635 48.1649L74.1058 39.9553H76.0167L72.4156 50H71.1255L71.4635 48.1649ZM69.0213 39.9553L71.6429 48.1649L72.0016 50H70.7047L67.1173 39.9553H69.0213ZM78.7556 42.5355V50H77.0861V42.5355H78.7556ZM76.9757 40.5762C76.9757 40.3233 77.0585 40.114 77.224 39.9484C77.3942 39.7783 77.6288 39.6932 77.9277 39.6932C78.2221 39.6932 78.4543 39.7783 78.6245 39.9484C78.7947 40.114 78.8797 40.3233 78.8797 40.5762C78.8797 40.8246 78.7947 41.0316 78.6245 41.1971C78.4543 41.3627 78.2221 41.4455 77.9277 41.4455C77.6288 41.4455 77.3942 41.3627 77.224 41.1971C77.0585 41.0316 76.9757 40.8246 76.9757 40.5762ZM83.8676 50.138C83.3157 50.138 82.8167 50.0483 82.3705 49.8689C81.929 49.685 81.5519 49.4297 81.2391 49.1032C80.931 48.7766 80.6941 48.3926 80.5286 47.9511C80.363 47.5095 80.2802 47.0335 80.2802 46.523V46.2471C80.2802 45.663 80.3653 45.134 80.5355 44.6603C80.7056 44.1866 80.9425 43.7819 81.246 43.4461C81.5496 43.1058 81.9083 42.8459 82.3222 42.6666C82.7362 42.4872 83.1846 42.3975 83.6675 42.3975C84.201 42.3975 84.6678 42.4872 85.068 42.6666C85.4681 42.8459 85.7992 43.0989 86.0614 43.4254C86.3281 43.7474 86.5259 44.1314 86.6547 44.5775C86.7881 45.0237 86.8548 45.5158 86.8548 46.0539V46.7645H81.0874V45.571H85.2128V45.4399C85.2036 45.1409 85.1439 44.8604 85.0335 44.5982C84.9277 44.3361 84.7644 44.1245 84.5437 43.9635C84.3229 43.8026 84.0285 43.7221 83.6606 43.7221C83.3847 43.7221 83.1386 43.7819 82.9224 43.9015C82.7109 44.0164 82.5338 44.1843 82.3912 44.4051C82.2487 44.6258 82.1383 44.8926 82.0601 45.2053C81.9865 45.5135 81.9497 45.8607 81.9497 46.2471V46.523C81.9497 46.8495 81.9934 47.1531 82.0808 47.4336C82.1728 47.7096 82.3061 47.9511 82.4809 48.158C82.6557 48.365 82.8672 48.5283 83.1156 48.6478C83.364 48.7628 83.6468 48.8203 83.9642 48.8203C84.3643 48.8203 84.7207 48.7398 85.0335 48.5788C85.3462 48.4179 85.6176 48.1902 85.8475 47.8959L86.7237 48.7444C86.5627 48.979 86.3534 49.2043 86.0959 49.4205C85.8383 49.6321 85.5233 49.8045 85.1508 49.9379C84.7828 50.0713 84.3551 50.138 83.8676 50.138ZM90.18 48.3443L91.9047 42.5355H92.9671L92.6773 44.274L90.9388 50H89.9868L90.18 48.3443ZM89.1659 42.5355L90.5111 48.3719L90.6215 50H89.5591L87.5377 42.5355H89.1659ZM94.5814 48.3029L95.8853 42.5355H97.5065L95.4921 50H94.4296L94.5814 48.3029ZM93.1465 42.5355L94.8505 48.2753L95.0643 50H94.1123L92.3531 44.2671L92.0634 42.5355H93.1465ZM106.137 46.2539H103.522V44.8811H106.137C106.592 44.8811 106.96 44.8075 107.241 44.6603C107.521 44.5132 107.726 44.3108 107.855 44.0532C107.988 43.7911 108.055 43.4921 108.055 43.1564C108.055 42.839 107.988 42.5424 107.855 42.2664C107.726 41.9859 107.521 41.7605 107.241 41.5904C106.96 41.4202 106.592 41.3351 106.137 41.3351H104.053V50H102.322V39.9553H106.137C106.914 39.9553 107.574 40.0933 108.117 40.3693C108.664 40.6406 109.08 41.0178 109.366 41.5007C109.651 41.979 109.793 42.5263 109.793 43.1426C109.793 43.7911 109.651 44.3476 109.366 44.8121C109.08 45.2766 108.664 45.6331 108.117 45.8814C107.574 46.1298 106.914 46.2539 106.137 46.2539ZM112.849 43.9566V50H111.187V42.5355H112.774L112.849 43.9566ZM115.133 42.4872L115.119 44.0325C115.018 44.0141 114.908 44.0003 114.788 43.9911C114.673 43.9819 114.558 43.9773 114.443 43.9773C114.158 43.9773 113.907 44.0187 113.691 44.1015C113.475 44.1797 113.293 44.2947 113.146 44.4465C113.004 44.5936 112.893 44.773 112.815 44.9846C112.737 45.1961 112.691 45.433 112.677 45.6951L112.298 45.7227C112.298 45.2536 112.344 44.819 112.436 44.4189C112.528 44.0187 112.665 43.6669 112.849 43.3634C113.038 43.0598 113.273 42.8229 113.553 42.6528C113.838 42.4826 114.167 42.3975 114.54 42.3975C114.641 42.3975 114.749 42.4067 114.864 42.4251C114.983 42.4435 115.073 42.4642 115.133 42.4872ZM117.955 42.5355V50H116.285V42.5355H117.955ZM116.175 40.5762C116.175 40.3233 116.257 40.114 116.423 39.9484C116.593 39.7783 116.828 39.6932 117.127 39.6932C117.421 39.6932 117.653 39.7783 117.823 39.9484C117.994 40.114 118.079 40.3233 118.079 40.5762C118.079 40.8246 117.994 41.0316 117.823 41.1971C117.653 41.3627 117.421 41.4455 117.127 41.4455C116.828 41.4455 116.593 41.3627 116.423 41.1971C116.257 41.0316 116.175 40.8246 116.175 40.5762ZM122.825 48.8134C123.096 48.8134 123.34 48.7605 123.556 48.6547C123.777 48.5444 123.954 48.3926 124.088 48.1994C124.226 48.0062 124.301 47.7832 124.315 47.5302H125.881C125.872 48.0131 125.73 48.4524 125.454 48.8479C125.178 49.2434 124.812 49.5585 124.357 49.793C123.901 50.023 123.398 50.138 122.846 50.138C122.276 50.138 121.779 50.0414 121.356 49.8482C120.933 49.6505 120.581 49.3791 120.3 49.0342C120.02 48.6892 119.808 48.2914 119.665 47.8407C119.527 47.39 119.459 46.907 119.459 46.3919V46.1505C119.459 45.6354 119.527 45.1524 119.665 44.7017C119.808 44.2464 120.02 43.8463 120.3 43.5013C120.581 43.1564 120.933 42.8873 121.356 42.6942C121.779 42.4964 122.273 42.3975 122.839 42.3975C123.437 42.3975 123.961 42.5171 124.412 42.7563C124.863 42.9908 125.217 43.3197 125.474 43.7428C125.736 44.1613 125.872 44.6488 125.881 45.2053H124.315C124.301 44.9294 124.232 44.681 124.108 44.4603C123.989 44.2349 123.819 44.0555 123.598 43.9222C123.382 43.7888 123.122 43.7221 122.818 43.7221C122.482 43.7221 122.204 43.7911 121.983 43.9291C121.763 44.0624 121.59 44.2464 121.466 44.481C121.342 44.7109 121.252 44.9708 121.197 45.2605C121.146 45.5457 121.121 45.8423 121.121 46.1505V46.3919C121.121 46.7001 121.146 46.999 121.197 47.2888C121.248 47.5785 121.335 47.8384 121.459 48.0683C121.588 48.2937 121.763 48.4754 121.983 48.6133C122.204 48.7467 122.485 48.8134 122.825 48.8134ZM128.937 42.5355V50H127.268V42.5355H128.937ZM127.158 40.5762C127.158 40.3233 127.24 40.114 127.406 39.9484C127.576 39.7783 127.811 39.6932 128.11 39.6932C128.404 39.6932 128.636 39.7783 128.806 39.9484C128.977 40.114 129.062 40.3233 129.062 40.5762C129.062 40.8246 128.977 41.0316 128.806 41.1971C128.636 41.3627 128.404 41.4455 128.11 41.4455C127.811 41.4455 127.576 41.3627 127.406 41.1971C127.24 41.0316 127.158 40.8246 127.158 40.5762ZM132.408 44.1291V50H130.745V42.5355H132.311L132.408 44.1291ZM132.111 45.9918L131.573 45.9849C131.577 45.456 131.651 44.9708 131.794 44.5292C131.941 44.0877 132.143 43.7083 132.401 43.3909C132.663 43.0736 132.976 42.8298 133.339 42.6597C133.702 42.4849 134.107 42.3975 134.553 42.3975C134.912 42.3975 135.236 42.4481 135.526 42.5493C135.82 42.6459 136.071 42.8045 136.278 43.0253C136.489 43.2461 136.65 43.5335 136.761 43.8877C136.871 44.2372 136.926 44.6672 136.926 45.1777V50H135.257V45.1708C135.257 44.8121 135.204 44.5292 135.098 44.3223C134.997 44.1107 134.847 43.9612 134.65 43.8739C134.457 43.7819 134.215 43.7359 133.925 43.7359C133.64 43.7359 133.385 43.7957 133.16 43.9153C132.934 44.0348 132.743 44.1981 132.587 44.4051C132.435 44.612 132.318 44.8512 132.235 45.1225C132.152 45.3939 132.111 45.6836 132.111 45.9918ZM143.404 42.5355H144.915V49.793C144.915 50.4645 144.773 51.0348 144.487 51.5039C144.202 51.9731 143.804 52.3295 143.294 52.5733C142.783 52.8216 142.192 52.9458 141.521 52.9458C141.236 52.9458 140.918 52.9044 140.569 52.8216C140.224 52.7388 139.888 52.6054 139.562 52.4215C139.24 52.2421 138.971 52.0053 138.754 51.7109L139.534 50.7313C139.801 51.0486 140.095 51.2809 140.417 51.4281C140.739 51.5752 141.077 51.6488 141.431 51.6488C141.813 51.6488 142.137 51.5775 142.404 51.435C142.675 51.297 142.885 51.0923 143.032 50.821C143.179 50.5496 143.252 50.2185 143.252 49.8275V44.2257L143.404 42.5355ZM138.334 46.3505V46.2057C138.334 45.64 138.403 45.1248 138.541 44.6603C138.679 44.1912 138.876 43.7888 139.134 43.453C139.391 43.1127 139.704 42.8528 140.072 42.6735C140.44 42.4895 140.856 42.3975 141.321 42.3975C141.804 42.3975 142.215 42.4849 142.556 42.6597C142.901 42.8344 143.188 43.0851 143.418 43.4116C143.648 43.7336 143.827 44.1199 143.956 44.5706C144.09 45.0168 144.188 45.5135 144.253 46.0608V46.523C144.193 47.0565 144.092 47.544 143.949 47.9855C143.807 48.4271 143.618 48.8088 143.384 49.1308C143.149 49.4527 142.859 49.7011 142.514 49.8758C142.174 50.0506 141.772 50.138 141.307 50.138C140.852 50.138 140.44 50.0437 140.072 49.8551C139.709 49.6666 139.396 49.4021 139.134 49.0618C138.876 48.7214 138.679 48.3213 138.541 47.8614C138.403 47.3969 138.334 46.8932 138.334 46.3505ZM139.996 46.2057V46.3505C139.996 46.6909 140.028 47.0082 140.093 47.3026C140.162 47.5969 140.265 47.8568 140.403 48.0821C140.546 48.3029 140.725 48.4777 140.941 48.6064C141.162 48.7306 141.422 48.7927 141.721 48.7927C142.112 48.7927 142.432 48.7099 142.68 48.5444C142.933 48.3788 143.126 48.1557 143.259 47.8752C143.397 47.59 143.494 47.2727 143.549 46.9231V45.6745C143.522 45.4031 143.464 45.1501 143.377 44.9156C143.294 44.681 143.181 44.4764 143.039 44.3016C142.896 44.1222 142.717 43.9842 142.501 43.8877C142.284 43.7865 142.029 43.7359 141.735 43.7359C141.436 43.7359 141.176 43.8003 140.955 43.9291C140.734 44.0578 140.553 44.2349 140.41 44.4603C140.272 44.6856 140.169 44.9478 140.1 45.2467C140.031 45.5457 139.996 45.8653 139.996 46.2057Z" fill="black"/>
</g>
<rect x="8.5" y="8.5" width="198.969" height="432" rx="9.09852" stroke="#455A64"/>
</g>
<defs>
<filter id="filter0_d_2_10805" x="0" y="0" width="223.969" height="457" filterUnits="userSpaceOnUse" color-interpolation-filters="sRGB">
<feFlood flood-opacity="0" result="BackgroundImageFix"/>
<feColorMatrix in="SourceAlpha" type="matrix" values="0 0 0 0 0 0 0 0 0 0 0 0 0 0 0 0 0 0 127 0" result="hardAlpha"/>
<feOffset dx="4" dy="4"/>
<feGaussianBlur stdDeviation="6"/>
<feComposite in2="hardAlpha" operator="out"/>
<feColorMatrix type="matrix" values="0 0 0 0 0 0 0 0 0 0 0 0 0 0 0 0 0 0 0.25 0"/>
<feBlend mode="normal" in2="BackgroundImageFix" result="effect1_dropShadow_2_10805"/>
<feBlend mode="normal" in="SourceGraphic" in2="effect1_dropShadow_2_10805" result="shape"/>
</filter>
<clipPath id="clip0_2_10805">
<rect x="8" y="8" width="199.969" height="433" rx="9.59852" fill="white"/>
</clipPath>
<clipPath id="clip1_2_10805">
<rect width="12.798" height="12.798" fill="white" transform="translate(30.3965 403.672)"/>
</clipPath>
<clipPath id="clip2_2_10805">
<rect width="191.756" height="242" fill="white" transform="translate(12 152)"/>
</clipPath>
<clipPath id="clip3_2_10805">
<rect width="73" height="121.667" fill="white" transform="translate(65 66.3334)"/>
</clipPath>
</defs>
</svg>
