<svg width="83" height="77" viewBox="0 0 83 77" fill="none" xmlns="http://www.w3.org/2000/svg">
<path d="M11.4218 11.5981C19.6032 3.36597 31.0783 -0.53348 42.4471 1.09129C48.0784 1.84952 53.4972 3.90756 58.2785 7.15711C63.0598 10.4067 66.9911 14.6311 69.8599 19.722C75.7037 30.0122 76.5537 42.4688 72.1974 53.4089V52.6507L81.4412 69.0068L82.0788 70.1983L80.6975 69.9816L62.2098 67.057L62.6348 66.9487C57.5348 71.7147 51.1597 74.8559 44.3597 76.1558C42.6596 76.4807 40.9596 76.6973 39.2596 76.6973C30.6533 77.1306 22.1532 74.4227 15.2469 69.1151C13.8656 68.0319 12.5906 66.9487 11.3156 65.7572C10.1468 64.5657 8.97808 63.1576 7.91557 61.8578C-3.55954 46.5849 -2.07203 24.9213 11.4218 11.5981Z" fill="#FE9563"/>
</svg>
