<svg width="224" height="457" viewBox="0 0 224 457" fill="none" xmlns="http://www.w3.org/2000/svg">
<g filter="url(#filter0_d_2_10772)">
<g clip-path="url(#clip0_2_10772)">
<rect x="8" y="8" width="199.969" height="433" rx="9.59852" fill="white"/>
<g filter="url(#filter1_d_2_10772)">
<circle cx="107.985" cy="358.079" r="26.3959" fill="#FE9868"/>
</g>
<path d="M102.885 349.014C99.4432 349.014 96.6528 351.805 96.6528 355.247C96.6528 361.479 104.018 367.145 107.984 368.463C111.95 367.145 119.316 361.479 119.316 355.247C119.316 351.805 116.526 349.014 113.084 349.014C110.976 349.014 109.112 350.061 107.984 351.662C106.857 350.061 104.993 349.014 102.885 349.014Z" fill="white" stroke="white" stroke-width="1.0665" stroke-linecap="round" stroke-linejoin="round"/>
<g filter="url(#filter2_d_2_10772)">
<circle cx="165.842" cy="357.813" r="20.7968" fill="white"/>
</g>
<path d="M165.842 351.48L163.804 355.639L159.176 356.31L162.529 359.588L161.727 364.145L165.842 361.952L169.957 364.145L169.161 359.588L172.508 356.31L167.905 355.639L165.842 351.48Z" fill="#8A2387" stroke="#8A2387" stroke-width="1.0665" stroke-linejoin="round"/>
<g filter="url(#filter3_d_2_10772)">
<circle cx="50.1269" cy="357.813" r="20.7968" fill="white"/>
</g>
<path fill-rule="evenodd" clip-rule="evenodd" d="M46.3227 354.009C46.583 353.748 47.005 353.748 47.2653 354.009L50.1268 356.87L52.9883 354.009C53.2486 353.748 53.6707 353.748 53.931 354.009C54.1913 354.269 54.1913 354.691 53.931 354.951L51.0695 357.813L53.931 360.674C54.1913 360.935 54.1913 361.357 53.931 361.617C53.6707 361.877 53.2486 361.877 52.9883 361.617L50.1268 358.755L47.2653 361.617C47.005 361.877 46.583 361.877 46.3227 361.617C46.0624 361.357 46.0624 360.935 46.3227 360.674L49.1842 357.813L46.3227 354.951C46.0624 354.691 46.0624 354.269 46.3227 354.009Z" fill="#F27121" stroke="#F27121" stroke-width="1.0665" stroke-linecap="round" stroke-linejoin="round"/>
<rect x="159.177" y="31.7296" width="27.1958" height="27.1958" rx="7.73214" fill="white" stroke="#FE9868" stroke-width="0.533251"/>
<path fill-rule="evenodd" clip-rule="evenodd" d="M173.708 39.995C174.003 39.995 174.241 40.2337 174.241 40.5282V42.6613C174.241 42.9558 174.003 43.1945 173.708 43.1945C173.414 43.1945 173.175 42.9558 173.175 42.6613V42.128H167.842C167.548 42.128 167.309 41.8893 167.309 41.5947C167.309 41.3002 167.548 41.0615 167.842 41.0615H173.175V40.5282C173.175 40.2337 173.414 39.995 173.708 39.995ZM175.308 41.5947C175.308 41.3002 175.547 41.0615 175.841 41.0615H177.441C177.735 41.0615 177.974 41.3002 177.974 41.5947C177.974 41.8893 177.735 42.128 177.441 42.128H175.841C175.547 42.128 175.308 41.8893 175.308 41.5947ZM172.108 43.7278C172.403 43.7278 172.642 43.9665 172.642 44.261V44.7943H177.974C178.269 44.7943 178.507 45.033 178.507 45.3275C178.507 45.622 178.269 45.8608 177.974 45.8608H172.642V46.394C172.642 46.6885 172.403 46.9273 172.108 46.9273C171.814 46.9273 171.575 46.6885 171.575 46.394V44.261C171.575 43.9665 171.814 43.7278 172.108 43.7278ZM167.309 45.3275C167.309 45.033 167.548 44.7943 167.842 44.7943H169.975C170.27 44.7943 170.509 45.033 170.509 45.3275C170.509 45.622 170.27 45.8608 169.975 45.8608H167.842C167.548 45.8608 167.309 45.622 167.309 45.3275ZM173.708 47.4605C174.003 47.4605 174.241 47.6993 174.241 47.9938V50.1268C174.241 50.4213 174.003 50.66 173.708 50.66C173.414 50.66 173.175 50.4213 173.175 50.1268V49.5935H167.842C167.548 49.5935 167.309 49.3548 167.309 49.0603C167.309 48.7658 167.548 48.527 167.842 48.527H173.175V47.9938C173.175 47.6993 173.414 47.4605 173.708 47.4605ZM175.308 49.0603C175.308 48.7658 175.547 48.527 175.841 48.527H177.441C177.735 48.527 177.974 48.7658 177.974 49.0603C177.974 49.3548 177.735 49.5935 177.441 49.5935H175.841C175.547 49.5935 175.308 49.3548 175.308 49.0603Z" fill="#FE9868"/>
<rect x="29.5967" y="31.7296" width="27.1958" height="27.1958" rx="7.73214" fill="white" stroke="#FE9868" stroke-width="0.533251"/>
<path fill-rule="evenodd" clip-rule="evenodd" d="M44.9047 48.9041C44.6965 49.1124 44.3588 49.1124 44.1506 48.9041L40.9511 45.7046C40.7428 45.4964 40.7428 45.1587 40.9511 44.9505L44.1506 41.751C44.3588 41.5427 44.6965 41.5427 44.9047 41.751C45.113 41.9592 45.113 42.2969 44.9047 42.5051L42.0823 45.3275L44.9047 48.15C45.113 48.3582 45.113 48.6959 44.9047 48.9041Z" fill="#FE9868"/>
<rect width="199.969" height="18.1305" transform="translate(8 422.869)" fill="#455A64"/>
<rect x="71.9902" y="434.068" width="71.4557" height="2.66626" rx="1.33313" fill="black"/>
<path d="M8 397.273H207.969V422.869H8V397.273Z" fill="#455A64"/>
<rect x="8" y="397.273" width="199.969" height="0.533251" fill="#E8E6EA"/>
<path d="M179.174 409.005C180.204 409.005 181.04 408.169 181.04 407.139C181.04 406.108 180.204 405.272 179.174 405.272C178.143 405.272 177.307 406.108 177.307 407.139C177.307 408.169 178.143 409.005 179.174 409.005Z" fill="#ADAFBB" stroke="#ADAFBB" stroke-width="1.0665" stroke-linecap="round" stroke-linejoin="round"/>
<path d="M174.374 414.551V414.871H183.973V414.551C183.973 413.356 183.973 412.759 183.74 412.303C183.536 411.901 183.21 411.575 182.808 411.37C182.352 411.138 181.755 411.138 180.56 411.138H177.787C176.593 411.138 175.995 411.138 175.539 411.37C175.138 411.575 174.811 411.901 174.607 412.303C174.374 412.759 174.374 413.356 174.374 414.551Z" fill="#ADAFBB" stroke="#ADAFBB" stroke-width="1.0665" stroke-linecap="round" stroke-linejoin="round"/>
<path d="M137.047 410.071C137.047 413.017 134.659 415.404 131.714 415.404C130.122 415.404 126.382 415.404 126.382 415.404C126.382 415.404 126.382 411.424 126.382 410.071C126.382 407.126 128.769 404.739 131.714 404.739C134.659 404.739 137.047 407.126 137.047 410.071Z" fill="#ADAFBB" stroke="#ADAFBB" stroke-width="1.0665" stroke-linecap="round" stroke-linejoin="round"/>
<path d="M129.048 408.472H133.847H129.048Z" fill="#C4C4C4"/>
<path d="M129.048 408.472H133.847" stroke="white" stroke-width="1.0665" stroke-linecap="round" stroke-linejoin="round"/>
<path d="M129.048 410.605H133.847H129.048Z" fill="#C4C4C4"/>
<path d="M129.048 410.605H133.847" stroke="white" stroke-width="1.0665" stroke-linecap="round" stroke-linejoin="round"/>
<path d="M129.048 412.738H131.714H129.048Z" fill="#C4C4C4"/>
<path d="M129.048 412.738H131.714" stroke="white" stroke-width="1.0665" stroke-linecap="round" stroke-linejoin="round"/>
<path d="M81.8553 405.805C80.2355 405.805 78.9224 407.119 78.9224 408.738C78.9224 411.671 82.3886 414.338 84.2549 414.958C86.1213 414.338 89.5874 411.671 89.5874 408.738C89.5874 407.119 88.2743 405.805 86.6546 405.805C85.6626 405.805 84.7857 406.298 84.2549 407.052C83.7242 406.298 82.8472 405.805 81.8553 405.805Z" fill="#ADAFBB" stroke="#ADAFBB" stroke-width="1.0665" stroke-linecap="round" stroke-linejoin="round"/>
<circle cx="88.5209" cy="406.872" r="2.66626" fill="#EEB738" stroke="#F3F3F3" stroke-width="1.0665"/>
<g clip-path="url(#clip1_2_10772)">
<rect x="35.462" y="406.071" width="6.93227" height="9.59852" rx="1.0665" fill="#EEB738" stroke="#F3F3F3" stroke-width="0.533251"/>
<rect x="30.6054" y="406.066" width="6.93227" height="9.59852" rx="1.0665" transform="rotate(-15 30.6054 406.066)" fill="#EEB738" stroke="#F3F3F3" stroke-width="0.533251"/>
</g>
<rect x="20.798" y="397.273" width="31.9951" height="1.0665" fill="#EEB738"/>
<g clip-path="url(#clip2_2_10772)">
<rect x="12" y="74" width="191.756" height="242" rx="3.68762" fill="white"/>
<rect x="41.5009" y="262.069" width="132.754" height="30.8838" rx="8" fill="#FE9868"/>
<path d="M85.2235 274.694H86.888C87.6098 274.694 88.1544 274.798 88.5218 275.007C88.8891 275.217 89.0728 275.577 89.0728 276.09C89.0728 276.304 89.0345 276.498 88.958 276.672C88.884 276.843 88.7756 276.984 88.6327 277.096C88.4899 277.206 88.3139 277.28 88.1047 277.318V277.357C88.3215 277.395 88.5141 277.463 88.6825 277.559C88.8534 277.656 88.9873 277.795 89.0842 277.977C89.1837 278.158 89.2335 278.392 89.2335 278.681C89.2335 279.022 89.1518 279.313 88.9886 279.553C88.8279 279.793 88.597 279.975 88.296 280.1C87.9976 280.225 87.643 280.288 87.2323 280.288H85.2235V274.694ZM86.1418 277.001H87.0219C87.4377 277.001 87.7259 276.933 87.8866 276.798C88.0473 276.663 88.1277 276.465 88.1277 276.205C88.1277 275.94 88.032 275.748 87.8407 275.631C87.6519 275.514 87.3509 275.455 86.9377 275.455H86.1418V277.001ZM86.1418 277.743V279.519H87.1099C87.5384 279.519 87.8394 279.436 88.0129 279.27C88.1863 279.104 88.2731 278.88 88.2731 278.596C88.2731 278.423 88.2335 278.272 88.1544 278.145C88.0779 278.017 87.9517 277.919 87.7756 277.85C87.5996 277.779 87.3624 277.743 87.064 277.743H86.1418ZM96.3488 274.694V278.313C96.3488 278.704 96.2659 279.053 96.1001 279.362C95.9368 279.67 95.6894 279.915 95.3578 280.096C95.0262 280.275 94.6091 280.364 94.1066 280.364C93.3898 280.364 92.8439 280.177 92.4689 279.802C92.0965 279.424 91.9103 278.923 91.9103 278.298V274.694H92.8286V278.218C92.8286 278.684 92.9383 279.029 93.1577 279.251C93.377 279.473 93.7048 279.584 94.141 279.584C94.442 279.584 94.6869 279.531 94.8757 279.427C95.067 279.32 95.2073 279.164 95.2966 278.96C95.3884 278.753 95.4343 278.505 95.4343 278.214V274.694H96.3488ZM100.931 277.246L102.259 274.694H103.25L101.39 278.114V280.288H100.476V278.149L98.6124 274.694H99.6111L100.931 277.246ZM113.823 280.288H112.694L109.954 275.822H109.92C109.93 275.973 109.939 276.132 109.947 276.301C109.957 276.469 109.964 276.642 109.97 276.821C109.977 277 109.984 277.181 109.989 277.364V280.288H109.155V274.694H110.276L113.011 279.128H113.038C113.033 278.998 113.027 278.849 113.019 278.681C113.011 278.512 113.004 278.339 112.996 278.16C112.991 277.979 112.987 277.804 112.985 277.636V274.694H113.823V280.288ZM121.826 277.483C121.826 277.914 121.771 278.307 121.661 278.661C121.554 279.013 121.392 279.317 121.175 279.572C120.958 279.825 120.687 280.02 120.36 280.158C120.034 280.295 119.651 280.364 119.212 280.364C118.766 280.364 118.378 280.295 118.049 280.158C117.723 280.02 117.451 279.823 117.234 279.568C117.02 279.313 116.859 279.008 116.752 278.654C116.645 278.299 116.591 277.906 116.591 277.475C116.591 276.899 116.686 276.396 116.874 275.968C117.066 275.537 117.355 275.202 117.743 274.965C118.133 274.725 118.626 274.606 119.22 274.606C119.801 274.606 120.285 274.724 120.67 274.961C121.055 275.199 121.343 275.533 121.535 275.964C121.729 276.392 121.826 276.899 121.826 277.483ZM117.555 277.483C117.555 277.914 117.614 278.288 117.731 278.604C117.849 278.918 118.029 279.16 118.271 279.331C118.516 279.499 118.83 279.584 119.212 279.584C119.597 279.584 119.911 279.499 120.153 279.331C120.396 279.16 120.574 278.918 120.689 278.604C120.804 278.288 120.861 277.914 120.861 277.483C120.861 276.827 120.73 276.315 120.467 275.945C120.207 275.572 119.791 275.386 119.22 275.386C118.837 275.386 118.522 275.47 118.275 275.639C118.03 275.807 117.849 276.048 117.731 276.362C117.614 276.673 117.555 277.047 117.555 277.483ZM131.21 274.694L129.748 280.288H128.746L127.812 276.936C127.789 276.854 127.764 276.757 127.736 276.645C127.708 276.533 127.68 276.418 127.651 276.301C127.626 276.183 127.603 276.076 127.583 275.979C127.565 275.88 127.552 275.803 127.544 275.75C127.539 275.803 127.528 275.878 127.51 275.975C127.492 276.072 127.47 276.179 127.445 276.297C127.422 276.412 127.396 276.526 127.368 276.641C127.34 276.753 127.315 276.853 127.292 276.94L126.373 280.288H125.375L123.917 274.694H124.839L125.646 277.973C125.672 278.077 125.698 278.191 125.723 278.313C125.751 278.433 125.777 278.554 125.8 278.677C125.825 278.799 125.848 278.919 125.868 279.036C125.889 279.151 125.905 279.256 125.918 279.35C125.931 279.253 125.947 279.146 125.968 279.029C125.988 278.909 126.01 278.788 126.033 278.665C126.058 278.54 126.084 278.42 126.109 278.306C126.138 278.191 126.166 278.087 126.194 277.996L127.104 274.694H128L128.929 278.007C128.957 278.102 128.984 278.207 129.01 278.325C129.038 278.442 129.065 278.562 129.09 278.684C129.116 278.807 129.139 278.925 129.159 279.04C129.179 279.155 129.196 279.258 129.209 279.35C129.227 279.225 129.25 279.082 129.278 278.922C129.306 278.761 129.338 278.598 129.373 278.432C129.409 278.266 129.445 278.113 129.48 277.973L130.284 274.694H131.21Z" fill="white"/>
<path d="M61.9148 188.236V189.527H63.648V190.345H61.9148V191.71H63.8693V192.55H60.8823V187.395H63.8693V188.236H61.9148ZM66.5113 191.599L67.5438 188.465H68.6427L67.1308 192.55H65.877L64.3725 188.465H65.4788L66.5113 191.599ZM73.0209 190.419C73.0209 190.566 73.0111 190.699 72.9914 190.817H70.0044C70.029 191.112 70.1323 191.343 70.3142 191.511C70.4961 191.678 70.7198 191.761 70.9853 191.761C71.3689 191.761 71.6417 191.597 71.804 191.267H72.9177C72.7997 191.66 72.5735 191.985 72.2391 192.241C71.9048 192.491 71.4942 192.617 71.0075 192.617C70.6141 192.617 70.2601 192.531 69.9454 192.359C69.6357 192.182 69.3923 191.933 69.2153 191.614C69.0432 191.294 68.9572 190.925 68.9572 190.507C68.9572 190.085 69.0432 189.713 69.2153 189.394C69.3874 189.074 69.6283 188.828 69.9381 188.656C70.2478 188.484 70.6043 188.398 71.0075 188.398C71.3959 188.398 71.7425 188.482 72.0474 188.649C72.3571 188.816 72.5956 189.055 72.7628 189.364C72.9349 189.669 73.0209 190.021 73.0209 190.419ZM71.9515 190.124C71.9466 189.858 71.8507 189.647 71.6639 189.49C71.477 189.327 71.2484 189.246 70.978 189.246C70.7223 189.246 70.506 189.325 70.329 189.482C70.1569 189.635 70.0512 189.849 70.0118 190.124H71.9515ZM74.8071 189.099C74.9399 188.882 75.1119 188.713 75.3234 188.59C75.5397 188.467 75.7856 188.406 76.0609 188.406V189.49H75.788C75.4635 189.49 75.2177 189.566 75.0505 189.718C74.8882 189.871 74.8071 190.136 74.8071 190.515V192.55H73.7746V188.465H74.8071V189.099ZM80.6652 188.465L78.1355 194.483H77.0366L77.9216 192.447L76.2843 188.465H77.4423L78.4969 191.319L79.5663 188.465H80.6652ZM80.9563 190.493C80.9563 190.08 81.0375 189.713 81.1997 189.394C81.3669 189.074 81.5931 188.828 81.8782 188.656C82.1634 188.484 82.4805 188.398 82.8296 188.398C83.0951 188.398 83.3484 188.457 83.5893 188.575C83.8302 188.688 84.022 188.841 84.1646 189.032V187.093H85.2118V192.55H84.1646V191.946C84.0367 192.147 83.8573 192.309 83.6262 192.432C83.3951 192.555 83.1271 192.617 82.8223 192.617C82.4781 192.617 82.1634 192.528 81.8782 192.351C81.5931 192.174 81.3669 191.926 81.1997 191.606C81.0375 191.282 80.9563 190.911 80.9563 190.493ZM84.1719 190.507C84.1719 190.257 84.1228 190.043 84.0244 189.866C83.9261 189.684 83.7933 189.546 83.6262 189.453C83.459 189.354 83.2795 189.305 83.0878 189.305C82.896 189.305 82.719 189.352 82.5567 189.445C82.3945 189.539 82.2617 189.677 82.1585 189.858C82.0602 190.035 82.011 190.247 82.011 190.493C82.011 190.739 82.0602 190.955 82.1585 191.142C82.2617 191.324 82.3945 191.464 82.5567 191.562C82.7239 191.66 82.9009 191.71 83.0878 191.71C83.2795 191.71 83.459 191.663 83.6262 191.57C83.7933 191.471 83.9261 191.334 84.0244 191.156C84.1228 190.975 84.1719 190.758 84.1719 190.507ZM85.9548 190.493C85.9548 190.08 86.0359 189.713 86.1982 189.394C86.3653 189.074 86.589 188.828 86.8693 188.656C87.1545 188.484 87.4716 188.398 87.8207 188.398C88.1256 188.398 88.3911 188.46 88.6172 188.583C88.8483 188.705 89.0327 188.86 89.1704 189.047V188.465H90.2103V192.55H89.1704V191.953C89.0376 192.145 88.8532 192.305 88.6172 192.432C88.3861 192.555 88.1182 192.617 87.8133 192.617C87.4692 192.617 87.1545 192.528 86.8693 192.351C86.589 192.174 86.3653 191.926 86.1982 191.606C86.0359 191.282 85.9548 190.911 85.9548 190.493ZM89.1704 190.507C89.1704 190.257 89.1212 190.043 89.0229 189.866C88.9245 189.684 88.7918 189.546 88.6246 189.453C88.4574 189.354 88.278 189.305 88.0862 189.305C87.8945 189.305 87.7175 189.352 87.5552 189.445C87.3929 189.539 87.2602 189.677 87.1569 189.858C87.0586 190.035 87.0094 190.247 87.0094 190.493C87.0094 190.739 87.0586 190.955 87.1569 191.142C87.2602 191.324 87.3929 191.464 87.5552 191.562C87.7224 191.66 87.8994 191.71 88.0862 191.71C88.278 191.71 88.4574 191.663 88.6246 191.57C88.7918 191.471 88.9245 191.334 89.0229 191.156C89.1212 190.975 89.1704 190.758 89.1704 190.507ZM95.1276 188.465L92.5979 194.483H91.499L92.384 192.447L90.7467 188.465H91.9046L92.9593 191.319L94.0287 188.465H95.1276ZM57.3374 206.402V209.589C57.3374 209.938 57.4283 210.206 57.6103 210.393C57.7922 210.574 58.0479 210.665 58.3773 210.665C58.7116 210.665 58.9698 210.574 59.1517 210.393C59.3336 210.206 59.4246 209.938 59.4246 209.589V206.402H60.4645V209.581C60.4645 210.019 60.3686 210.39 60.1769 210.695C59.99 210.995 59.7368 211.221 59.4172 211.373C59.1025 211.526 58.751 211.602 58.3625 211.602C57.979 211.602 57.6299 211.526 57.3153 211.373C57.0055 211.221 56.7597 210.995 56.5777 210.695C56.3958 210.39 56.3049 210.019 56.3049 209.581V206.402H57.3374ZM63.7263 207.406C64.2131 207.406 64.6064 207.56 64.9063 207.87C65.2063 208.175 65.3562 208.603 65.3562 209.153V211.55H64.3237V209.294C64.3237 208.969 64.2426 208.721 64.0803 208.549C63.9181 208.372 63.6968 208.283 63.4165 208.283C63.1314 208.283 62.9052 208.372 62.738 208.549C62.5758 208.721 62.4946 208.969 62.4946 209.294V211.55H61.4621V207.465H62.4946V207.973C62.6323 207.796 62.8069 207.659 63.0183 207.56C63.2346 207.457 63.4706 207.406 63.7263 207.406ZM67.3706 206.093V211.55H66.3381V206.093H67.3706ZM68.9144 206.978C68.7325 206.978 68.5801 206.921 68.4572 206.808C68.3392 206.69 68.2802 206.545 68.2802 206.373C68.2802 206.201 68.3392 206.058 68.4572 205.945C68.5801 205.827 68.7325 205.768 68.9144 205.768C69.0964 205.768 69.2463 205.827 69.3643 205.945C69.4872 206.058 69.5487 206.201 69.5487 206.373C69.5487 206.545 69.4872 206.69 69.3643 206.808C69.2463 206.921 69.0964 206.978 68.9144 206.978ZM69.4233 207.465V211.55H68.3908V207.465H69.4233ZM75.5176 207.406C76.0192 207.406 76.4223 207.56 76.7272 207.87C77.0369 208.175 77.1918 208.603 77.1918 209.153V211.55H76.1593V209.294C76.1593 208.974 76.0782 208.731 75.9159 208.563C75.7536 208.391 75.5324 208.305 75.2521 208.305C74.9719 208.305 74.7482 208.391 74.581 208.563C74.4187 208.731 74.3376 208.974 74.3376 209.294V211.55H73.3051V209.294C73.3051 208.974 73.2239 208.731 73.0617 208.563C72.8994 208.391 72.6782 208.305 72.3979 208.305C72.1127 208.305 71.8866 208.391 71.7194 208.563C71.5571 208.731 71.476 208.974 71.476 209.294V211.55H70.4435V207.465H71.476V207.959C71.6088 207.787 71.7784 207.651 71.9849 207.553C72.1963 207.455 72.4274 207.406 72.6782 207.406C72.9978 207.406 73.2829 207.474 73.5337 207.612C73.7845 207.745 73.9787 207.937 74.1163 208.187C74.2491 207.951 74.4409 207.762 74.6916 207.619C74.9473 207.477 75.2226 207.406 75.5176 207.406ZM78.6953 206.978C78.5133 206.978 78.3609 206.921 78.238 206.808C78.12 206.69 78.061 206.545 78.061 206.373C78.061 206.201 78.12 206.058 78.238 205.945C78.3609 205.827 78.5133 205.768 78.6953 205.768C78.8772 205.768 79.0272 205.827 79.1452 205.945C79.2681 206.058 79.3295 206.201 79.3295 206.373C79.3295 206.545 79.2681 206.69 79.1452 206.808C79.0272 206.921 78.8772 206.978 78.6953 206.978ZM79.2042 207.465V211.55H78.1716V207.465H79.2042ZM81.4265 208.313V210.289C81.4265 210.427 81.4584 210.528 81.5223 210.592C81.5912 210.651 81.7043 210.68 81.8616 210.68H82.341V211.55H81.692C80.8217 211.55 80.3866 211.128 80.3866 210.282V208.313H79.8998V207.465H80.3866V206.454H81.4265V207.465H82.341V208.313H81.4265ZM86.8819 209.419C86.8819 209.566 86.8721 209.699 86.8524 209.817H83.8654C83.89 210.112 83.9933 210.343 84.1752 210.511C84.3571 210.678 84.5808 210.761 84.8463 210.761C85.2298 210.761 85.5027 210.597 85.665 210.267H86.7786C86.6606 210.66 86.4345 210.985 86.1001 211.241C85.7658 211.491 85.3552 211.617 84.8685 211.617C84.4751 211.617 84.1211 211.531 83.8064 211.359C83.4967 211.182 83.2533 210.933 83.0763 210.614C82.9042 210.294 82.8181 209.925 82.8181 209.507C82.8181 209.085 82.9042 208.713 83.0763 208.394C83.2484 208.074 83.4893 207.828 83.799 207.656C84.1088 207.484 84.4653 207.398 84.8685 207.398C85.2569 207.398 85.6035 207.482 85.9084 207.649C86.2181 207.816 86.4566 208.055 86.6238 208.364C86.7959 208.669 86.8819 209.021 86.8819 209.419ZM85.8125 209.124C85.8076 208.858 85.7117 208.647 85.5249 208.49C85.338 208.327 85.1094 208.246 84.839 208.246C84.5833 208.246 84.3669 208.325 84.1899 208.482C84.0178 208.635 83.9121 208.849 83.8728 209.124H85.8125ZM87.37 209.493C87.37 209.08 87.4512 208.713 87.6134 208.394C87.7806 208.074 88.0068 207.828 88.292 207.656C88.5771 207.484 88.8943 207.398 89.2434 207.398C89.5089 207.398 89.7621 207.457 90.003 207.575C90.2439 207.688 90.4357 207.841 90.5783 208.032V206.093H91.6256V211.55H90.5783V210.946C90.4504 211.147 90.271 211.309 90.0399 211.432C89.8088 211.555 89.5408 211.617 89.236 211.617C88.8918 211.617 88.5771 211.528 88.292 211.351C88.0068 211.174 87.7806 210.926 87.6134 210.606C87.4512 210.282 87.37 209.911 87.37 209.493ZM90.5856 209.507C90.5856 209.257 90.5365 209.043 90.4381 208.866C90.3398 208.684 90.2071 208.546 90.0399 208.453C89.8727 208.354 89.6932 208.305 89.5015 208.305C89.3097 208.305 89.1327 208.352 88.9705 208.445C88.8082 208.539 88.6755 208.677 88.5722 208.858C88.4739 209.035 88.4247 209.247 88.4247 209.493C88.4247 209.739 88.4739 209.955 88.5722 210.142C88.6755 210.324 88.8082 210.464 88.9705 210.562C89.1376 210.66 89.3147 210.71 89.5015 210.71C89.6932 210.71 89.8727 210.663 90.0399 210.57C90.2071 210.471 90.3398 210.334 90.4381 210.156C90.5365 209.975 90.5856 209.758 90.5856 209.507ZM63.3586 224.402V227.589C63.3586 227.938 63.4495 228.206 63.6315 228.393C63.8134 228.574 64.0691 228.665 64.3985 228.665C64.7328 228.665 64.991 228.574 65.1729 228.393C65.3548 228.206 65.4458 227.938 65.4458 227.589V224.402H66.4857V227.581C66.4857 228.019 66.3898 228.39 66.198 228.695C66.0112 228.995 65.758 229.221 65.4384 229.373C65.1237 229.526 64.7722 229.602 64.3837 229.602C64.0002 229.602 63.6511 229.526 63.3365 229.373C63.0267 229.221 62.7808 228.995 62.5989 228.695C62.417 228.39 62.326 228.019 62.326 227.581V224.402H63.3586ZM68.5158 226.055C68.6486 225.868 68.8305 225.713 69.0616 225.59C69.2976 225.462 69.5656 225.398 69.8655 225.398C70.2146 225.398 70.5293 225.484 70.8095 225.656C71.0947 225.828 71.3184 226.074 71.4807 226.394C71.6478 226.708 71.7314 227.075 71.7314 227.493C71.7314 227.911 71.6478 228.282 71.4807 228.606C71.3184 228.926 71.0947 229.174 70.8095 229.351C70.5293 229.528 70.2146 229.617 69.8655 229.617C69.5656 229.617 69.3001 229.555 69.069 229.432C68.8428 229.309 68.6584 229.155 68.5158 228.968V231.497H67.4833V225.465H68.5158V226.055ZM70.6768 227.493C70.6768 227.247 70.6251 227.035 70.5219 226.858C70.4236 226.677 70.2908 226.539 70.1236 226.445C69.9614 226.352 69.7844 226.305 69.5926 226.305C69.4058 226.305 69.2288 226.354 69.0616 226.453C68.8993 226.546 68.7666 226.684 68.6633 226.866C68.565 227.048 68.5158 227.262 68.5158 227.507C68.5158 227.753 68.565 227.967 68.6633 228.149C68.7666 228.331 68.8993 228.471 69.0616 228.57C69.2288 228.663 69.4058 228.71 69.5926 228.71C69.7844 228.71 69.9614 228.66 70.1236 228.562C70.2908 228.464 70.4236 228.324 70.5219 228.142C70.6251 227.96 70.6768 227.743 70.6768 227.493ZM75.4413 226.313V228.289C75.4413 228.427 75.4732 228.528 75.5372 228.592C75.606 228.651 75.7191 228.68 75.8764 228.68H76.3558V229.55H75.7068C74.8365 229.55 74.4014 229.128 74.4014 228.282V226.313H73.9146V225.465H74.4014V224.454H75.4413V225.465H76.3558V226.313H75.4413ZM78.9128 229.617C78.5194 229.617 78.1654 229.531 77.8507 229.359C77.5361 229.182 77.2878 228.933 77.1058 228.614C76.9288 228.294 76.8403 227.925 76.8403 227.507C76.8403 227.09 76.9313 226.721 77.1132 226.401C77.3001 226.082 77.5533 225.836 77.8729 225.664C78.1925 225.487 78.5489 225.398 78.9423 225.398C79.3356 225.398 79.6921 225.487 80.0117 225.664C80.3313 225.836 80.582 226.082 80.764 226.401C80.9508 226.721 81.0442 227.09 81.0442 227.507C81.0442 227.925 80.9483 228.294 80.7566 228.614C80.5698 228.933 80.3141 229.182 79.9896 229.359C79.67 229.531 79.311 229.617 78.9128 229.617ZM78.9128 228.717C79.0996 228.717 79.2742 228.673 79.4364 228.584C79.6036 228.491 79.7363 228.353 79.8347 228.171C79.933 227.989 79.9822 227.768 79.9822 227.507C79.9822 227.119 79.8789 226.822 79.6724 226.615C79.4708 226.404 79.2225 226.298 78.9275 226.298C78.6325 226.298 78.3842 226.404 78.1826 226.615C77.986 226.822 77.8876 227.119 77.8876 227.507C77.8876 227.896 77.9835 228.196 78.1753 228.407C78.3719 228.614 78.6178 228.717 78.9128 228.717ZM83.4558 225.59C83.4803 225.098 83.6524 224.72 83.972 224.454C84.2965 224.184 84.7218 224.048 85.2479 224.048C85.6069 224.048 85.9142 224.112 86.1698 224.24C86.4255 224.363 86.6173 224.533 86.7451 224.749C86.8779 224.961 86.9442 225.201 86.9442 225.472C86.9442 225.782 86.8631 226.045 86.7009 226.261C86.5435 226.472 86.3542 226.615 86.133 226.689V226.718C86.4181 226.807 86.6394 226.964 86.7967 227.19C86.959 227.417 87.0401 227.707 87.0401 228.061C87.0401 228.356 86.9713 228.619 86.8336 228.85C86.7009 229.081 86.5017 229.263 86.2362 229.396C85.9756 229.523 85.661 229.587 85.2922 229.587C84.7366 229.587 84.2842 229.447 83.9351 229.167C83.5861 228.887 83.4017 228.474 83.382 227.928H84.385C84.3949 228.169 84.476 228.363 84.6284 228.511C84.7858 228.653 84.9996 228.724 85.2701 228.724C85.5208 228.724 85.7126 228.656 85.8453 228.518C85.983 228.375 86.0518 228.193 86.0518 227.972C86.0518 227.677 85.9584 227.466 85.7716 227.338C85.5847 227.21 85.2946 227.146 84.9013 227.146H84.6874V226.298H84.9013C85.5995 226.298 85.9486 226.064 85.9486 225.597C85.9486 225.386 85.8847 225.221 85.7568 225.103C85.6339 224.985 85.4544 224.926 85.2184 224.926C84.9873 224.926 84.8079 224.99 84.68 225.118C84.5571 225.241 84.4858 225.398 84.4662 225.59H83.4558Z" fill="#081F32"/>
<path d="M100.615 187.41V187.956H98.3806V189.689H100.195V190.235H98.3806V192.55H97.7095V187.41H100.615ZM101.175 190.515C101.175 190.102 101.259 189.74 101.426 189.431C101.593 189.116 101.822 188.873 102.112 188.701C102.407 188.528 102.734 188.442 103.093 188.442C103.447 188.442 103.754 188.519 104.015 188.671C104.275 188.823 104.469 189.015 104.597 189.246V188.509H105.276V192.55H104.597V191.798C104.464 192.034 104.265 192.231 104 192.388C103.739 192.541 103.434 192.617 103.085 192.617C102.726 192.617 102.402 192.528 102.112 192.351C101.822 192.174 101.593 191.926 101.426 191.606C101.259 191.287 101.175 190.923 101.175 190.515ZM104.597 190.522C104.597 190.217 104.536 189.952 104.413 189.726C104.29 189.5 104.123 189.327 103.911 189.209C103.705 189.087 103.476 189.025 103.225 189.025C102.975 189.025 102.746 189.084 102.54 189.202C102.333 189.32 102.168 189.492 102.045 189.718C101.922 189.944 101.861 190.21 101.861 190.515C101.861 190.825 101.922 191.095 102.045 191.326C102.168 191.552 102.333 191.727 102.54 191.85C102.746 191.968 102.975 192.027 103.225 192.027C103.476 192.027 103.705 191.968 103.911 191.85C104.123 191.727 104.29 191.552 104.413 191.326C104.536 191.095 104.597 190.827 104.597 190.522ZM107.841 192.617C107.531 192.617 107.253 192.565 107.007 192.462C106.761 192.354 106.567 192.206 106.425 192.019C106.282 191.828 106.203 191.609 106.189 191.363H106.882C106.902 191.565 106.995 191.729 107.162 191.857C107.334 191.985 107.558 192.049 107.833 192.049C108.089 192.049 108.291 191.992 108.438 191.879C108.586 191.766 108.659 191.624 108.659 191.452C108.659 191.274 108.581 191.144 108.423 191.061C108.266 190.972 108.023 190.886 107.693 190.802C107.393 190.724 107.147 190.645 106.956 190.566C106.769 190.483 106.607 190.362 106.469 190.205C106.336 190.043 106.27 189.831 106.27 189.571C106.27 189.364 106.331 189.175 106.454 189.003C106.577 188.831 106.752 188.696 106.978 188.597C107.204 188.494 107.462 188.442 107.752 188.442C108.2 188.442 108.561 188.555 108.836 188.782C109.112 189.008 109.259 189.318 109.279 189.711H108.608C108.593 189.5 108.507 189.33 108.35 189.202C108.197 189.074 107.991 189.01 107.73 189.01C107.489 189.01 107.297 189.062 107.155 189.165C107.012 189.268 106.941 189.404 106.941 189.571C106.941 189.704 106.983 189.814 107.066 189.903C107.155 189.986 107.263 190.055 107.391 190.109C107.524 190.158 107.706 190.215 107.937 190.279C108.227 190.358 108.463 190.436 108.645 190.515C108.827 190.589 108.981 190.702 109.109 190.854C109.242 191.007 109.311 191.206 109.316 191.452C109.316 191.673 109.254 191.872 109.131 192.049C109.008 192.226 108.834 192.366 108.608 192.469C108.387 192.568 108.131 192.617 107.841 192.617ZM112.269 188.435C112.574 188.435 112.849 188.501 113.095 188.634C113.341 188.762 113.533 188.956 113.671 189.217C113.813 189.477 113.884 189.795 113.884 190.168V192.55H113.221V190.264C113.221 189.861 113.12 189.554 112.918 189.342C112.717 189.126 112.441 189.018 112.092 189.018C111.738 189.018 111.456 189.128 111.244 189.35C111.038 189.571 110.934 189.893 110.934 190.316V192.55H110.263V187.093H110.934V189.084C111.067 188.878 111.249 188.718 111.48 188.605C111.716 188.492 111.979 188.435 112.269 188.435ZM115.327 187.852C115.2 187.852 115.091 187.808 115.003 187.72C114.914 187.631 114.87 187.523 114.87 187.395C114.87 187.267 114.914 187.159 115.003 187.071C115.091 186.982 115.2 186.938 115.327 186.938C115.45 186.938 115.554 186.982 115.637 187.071C115.726 187.159 115.77 187.267 115.77 187.395C115.77 187.523 115.726 187.631 115.637 187.72C115.554 187.808 115.45 187.852 115.327 187.852ZM115.652 188.509V192.55H114.981V188.509H115.652ZM118.558 192.617C118.18 192.617 117.836 192.531 117.526 192.359C117.221 192.187 116.98 191.943 116.803 191.629C116.631 191.309 116.545 190.94 116.545 190.522C116.545 190.109 116.634 189.745 116.811 189.431C116.992 189.111 117.238 188.868 117.548 188.701C117.858 188.528 118.204 188.442 118.588 188.442C118.971 188.442 119.318 188.528 119.628 188.701C119.938 188.868 120.181 189.109 120.358 189.423C120.54 189.738 120.631 190.104 120.631 190.522C120.631 190.94 120.537 191.309 120.351 191.629C120.169 191.943 119.92 192.187 119.606 192.359C119.291 192.531 118.942 192.617 118.558 192.617ZM118.558 192.027C118.799 192.027 119.026 191.97 119.237 191.857C119.448 191.744 119.618 191.574 119.746 191.348C119.879 191.122 119.945 190.847 119.945 190.522C119.945 190.198 119.881 189.922 119.753 189.696C119.625 189.47 119.458 189.303 119.252 189.195C119.045 189.082 118.822 189.025 118.581 189.025C118.335 189.025 118.109 189.082 117.902 189.195C117.7 189.303 117.538 189.47 117.415 189.696C117.292 189.922 117.231 190.198 117.231 190.522C117.231 190.852 117.29 191.129 117.408 191.356C117.531 191.582 117.693 191.751 117.895 191.865C118.096 191.973 118.318 192.027 118.558 192.027ZM123.483 188.435C123.974 188.435 124.372 188.585 124.677 188.885C124.982 189.18 125.135 189.608 125.135 190.168V192.55H124.471V190.264C124.471 189.861 124.37 189.554 124.168 189.342C123.967 189.126 123.691 189.018 123.342 189.018C122.988 189.018 122.706 189.128 122.494 189.35C122.288 189.571 122.184 189.893 122.184 190.316V192.55H121.513V188.509H122.184V189.084C122.317 188.878 122.497 188.718 122.723 188.605C122.954 188.492 123.207 188.435 123.483 188.435ZM128.868 189.165C128.986 188.934 129.153 188.755 129.37 188.627C129.591 188.499 129.859 188.435 130.174 188.435V189.128H129.997C129.244 189.128 128.868 189.536 128.868 190.353V192.55H128.197V188.509H128.868V189.165ZM134.636 190.375C134.636 190.503 134.629 190.638 134.614 190.78H131.384C131.408 191.179 131.543 191.491 131.789 191.717C132.04 191.938 132.342 192.049 132.696 192.049C132.986 192.049 133.227 191.983 133.419 191.85C133.616 191.712 133.753 191.53 133.832 191.304H134.555C134.447 191.692 134.23 192.01 133.906 192.255C133.581 192.496 133.178 192.617 132.696 192.617C132.313 192.617 131.969 192.531 131.664 192.359C131.364 192.187 131.128 191.943 130.956 191.629C130.784 191.309 130.698 190.94 130.698 190.522C130.698 190.104 130.781 189.738 130.948 189.423C131.116 189.109 131.349 188.868 131.649 188.701C131.954 188.528 132.303 188.442 132.696 188.442C133.08 188.442 133.419 188.526 133.714 188.693C134.009 188.86 134.235 189.091 134.393 189.386C134.555 189.677 134.636 190.006 134.636 190.375ZM133.943 190.235C133.943 189.979 133.886 189.76 133.773 189.578C133.66 189.391 133.505 189.251 133.309 189.158C133.117 189.059 132.903 189.01 132.667 189.01C132.328 189.01 132.038 189.118 131.797 189.335C131.561 189.551 131.425 189.851 131.391 190.235H133.943ZM137.027 191.931L138.28 188.509H138.996L137.41 192.55H136.628L135.043 188.509H135.765L137.027 191.931ZM140.003 187.852C139.875 187.852 139.767 187.808 139.678 187.72C139.59 187.631 139.546 187.523 139.546 187.395C139.546 187.267 139.59 187.159 139.678 187.071C139.767 186.982 139.875 186.938 140.003 186.938C140.126 186.938 140.229 186.982 140.313 187.071C140.401 187.159 140.445 187.267 140.445 187.395C140.445 187.523 140.401 187.631 140.313 187.72C140.229 187.808 140.126 187.852 140.003 187.852ZM140.327 188.509V192.55H139.656V188.509H140.327ZM145.159 190.375C145.159 190.503 145.151 190.638 145.137 190.78H141.906C141.931 191.179 142.066 191.491 142.312 191.717C142.563 191.938 142.865 192.049 143.219 192.049C143.509 192.049 143.75 191.983 143.942 191.85C144.138 191.712 144.276 191.53 144.355 191.304H145.078C144.969 191.692 144.753 192.01 144.429 192.255C144.104 192.496 143.701 192.617 143.219 192.617C142.836 192.617 142.491 192.531 142.187 192.359C141.887 192.187 141.651 191.943 141.478 191.629C141.306 191.309 141.22 190.94 141.22 190.522C141.22 190.104 141.304 189.738 141.471 189.423C141.638 189.109 141.872 188.868 142.172 188.701C142.477 188.528 142.826 188.442 143.219 188.442C143.603 188.442 143.942 188.526 144.237 188.693C144.532 188.86 144.758 189.091 144.915 189.386C145.078 189.677 145.159 190.006 145.159 190.375ZM144.465 190.235C144.465 189.979 144.409 189.76 144.296 189.578C144.183 189.391 144.028 189.251 143.831 189.158C143.639 189.059 143.426 189.01 143.19 189.01C142.85 189.01 142.56 189.118 142.319 189.335C142.083 189.551 141.948 189.851 141.914 190.235H144.465ZM151.429 188.509L150.167 192.55H149.474L148.501 189.342L147.527 192.55H146.834L145.565 188.509H146.251L147.18 191.901L148.183 188.509H148.869L149.85 191.909L150.765 188.509H151.429ZM153.525 192.617C153.216 192.617 152.938 192.565 152.692 192.462C152.446 192.354 152.252 192.206 152.109 192.019C151.967 191.828 151.888 191.609 151.873 191.363H152.567C152.586 191.565 152.68 191.729 152.847 191.857C153.019 191.985 153.243 192.049 153.518 192.049C153.774 192.049 153.975 191.992 154.123 191.879C154.27 191.766 154.344 191.624 154.344 191.452C154.344 191.274 154.265 191.144 154.108 191.061C153.951 190.972 153.707 190.886 153.378 190.802C153.078 190.724 152.832 190.645 152.64 190.566C152.454 190.483 152.291 190.362 152.154 190.205C152.021 190.043 151.955 189.831 151.955 189.571C151.955 189.364 152.016 189.175 152.139 189.003C152.262 188.831 152.436 188.696 152.663 188.597C152.889 188.494 153.147 188.442 153.437 188.442C153.884 188.442 154.246 188.555 154.521 188.782C154.796 189.008 154.944 189.318 154.964 189.711H154.292C154.278 189.5 154.192 189.33 154.034 189.202C153.882 189.074 153.675 189.01 153.415 189.01C153.174 189.01 152.982 189.062 152.84 189.165C152.697 189.268 152.626 189.404 152.626 189.571C152.626 189.704 152.667 189.814 152.751 189.903C152.84 189.986 152.948 190.055 153.076 190.109C153.208 190.158 153.39 190.215 153.621 190.279C153.911 190.358 154.147 190.436 154.329 190.515C154.511 190.589 154.666 190.702 154.794 190.854C154.927 191.007 154.996 191.206 155 191.452C155 191.673 154.939 191.872 154.816 192.049C154.693 192.226 154.519 192.366 154.292 192.469C154.071 192.568 153.816 192.617 153.525 192.617ZM96.2892 211.602C95.9499 211.602 95.6451 211.543 95.3747 211.425C95.1091 211.302 94.9002 211.135 94.7478 210.924C94.5953 210.707 94.5167 210.459 94.5118 210.179H95.2272C95.2517 210.42 95.3501 210.624 95.5222 210.791C95.6992 210.953 95.9548 211.034 96.2892 211.034C96.6088 211.034 96.8595 210.955 97.0415 210.798C97.2283 210.636 97.3217 210.429 97.3217 210.179C97.3217 209.982 97.2676 209.822 97.1595 209.699C97.0513 209.576 96.9161 209.483 96.7538 209.419C96.5916 209.355 96.3728 209.286 96.0974 209.212C95.7582 209.124 95.4853 209.035 95.2788 208.947C95.0772 208.858 94.9026 208.721 94.7551 208.534C94.6125 208.342 94.5413 208.087 94.5413 207.767C94.5413 207.487 94.6125 207.238 94.7551 207.022C94.8977 206.806 95.0969 206.639 95.3525 206.521C95.6131 206.402 95.9106 206.343 96.2449 206.343C96.7268 206.343 97.1201 206.464 97.425 206.705C97.7347 206.946 97.9093 207.265 97.9486 207.664H97.2111C97.1865 207.467 97.0833 207.295 96.9013 207.147C96.7194 206.995 96.4785 206.919 96.1786 206.919C95.8983 206.919 95.6697 206.993 95.4927 207.14C95.3157 207.283 95.2272 207.484 95.2272 207.745C95.2272 207.932 95.2788 208.084 95.382 208.202C95.4902 208.32 95.6205 208.411 95.7729 208.475C95.9303 208.534 96.1491 208.603 96.4293 208.681C96.7686 208.775 97.0415 208.868 97.248 208.962C97.4545 209.05 97.6315 209.19 97.779 209.382C97.9265 209.569 98.0002 209.825 98.0002 210.149C98.0002 210.4 97.9339 210.636 97.8011 210.857C97.6684 211.078 97.4717 211.258 97.2111 211.396C96.9505 211.533 96.6432 211.602 96.2892 211.602ZM98.7371 209.515C98.7371 209.102 98.8207 208.74 98.9879 208.431C99.1551 208.116 99.3837 207.873 99.6738 207.701C99.9688 207.528 100.296 207.442 100.655 207.442C101.009 207.442 101.316 207.519 101.577 207.671C101.837 207.823 102.031 208.015 102.159 208.246V207.509H102.838V211.55H102.159V210.798C102.026 211.034 101.827 211.231 101.562 211.388C101.301 211.541 100.996 211.617 100.647 211.617C100.288 211.617 99.9639 211.528 99.6738 211.351C99.3837 211.174 99.1551 210.926 98.9879 210.606C98.8207 210.287 98.7371 209.923 98.7371 209.515ZM102.159 209.522C102.159 209.217 102.098 208.952 101.975 208.726C101.852 208.5 101.685 208.327 101.473 208.209C101.267 208.087 101.038 208.025 100.787 208.025C100.537 208.025 100.308 208.084 100.102 208.202C99.895 208.32 99.7303 208.492 99.6074 208.718C99.4845 208.944 99.423 209.21 99.423 209.515C99.423 209.825 99.4845 210.095 99.6074 210.326C99.7303 210.552 99.895 210.727 100.102 210.85C100.308 210.968 100.537 211.027 100.787 211.027C101.038 211.027 101.267 210.968 101.473 210.85C101.685 210.727 101.852 210.552 101.975 210.326C102.098 210.095 102.159 209.827 102.159 209.522ZM104.643 206.093V211.55H103.972V206.093H104.643ZM109.475 209.375C109.475 209.503 109.467 209.638 109.452 209.78H106.222C106.247 210.179 106.382 210.491 106.628 210.717C106.878 210.938 107.181 211.049 107.535 211.049C107.825 211.049 108.066 210.983 108.258 210.85C108.454 210.712 108.592 210.53 108.671 210.304H109.393C109.285 210.692 109.069 211.01 108.744 211.255C108.42 211.496 108.017 211.617 107.535 211.617C107.151 211.617 106.807 211.531 106.502 211.359C106.202 211.187 105.966 210.943 105.794 210.629C105.622 210.309 105.536 209.94 105.536 209.522C105.536 209.104 105.62 208.738 105.787 208.423C105.954 208.109 106.188 207.868 106.488 207.701C106.792 207.528 107.142 207.442 107.535 207.442C107.918 207.442 108.258 207.526 108.553 207.693C108.848 207.86 109.074 208.091 109.231 208.386C109.393 208.677 109.475 209.006 109.475 209.375ZM108.781 209.235C108.781 208.979 108.725 208.76 108.612 208.578C108.499 208.391 108.344 208.251 108.147 208.158C107.955 208.059 107.741 208.01 107.505 208.01C107.166 208.01 106.876 208.118 106.635 208.335C106.399 208.551 106.264 208.851 106.229 209.235H108.781ZM112.076 209.522C112.076 209.104 112.16 208.74 112.327 208.431C112.494 208.116 112.725 207.873 113.02 207.701C113.32 207.528 113.662 207.442 114.045 207.442C114.542 207.442 114.95 207.563 115.269 207.804C115.594 208.045 115.808 208.379 115.911 208.807H115.188C115.119 208.561 114.984 208.367 114.783 208.224C114.586 208.082 114.34 208.01 114.045 208.01C113.662 208.01 113.352 208.143 113.116 208.409C112.88 208.669 112.762 209.04 112.762 209.522C112.762 210.009 112.88 210.385 113.116 210.651C113.352 210.916 113.662 211.049 114.045 211.049C114.34 211.049 114.586 210.98 114.783 210.842C114.979 210.705 115.115 210.508 115.188 210.252H115.911C115.803 210.665 115.587 210.997 115.262 211.248C114.938 211.494 114.532 211.617 114.045 211.617C113.662 211.617 113.32 211.531 113.02 211.359C112.725 211.187 112.494 210.943 112.327 210.629C112.16 210.314 112.076 209.945 112.076 209.522ZM118.569 211.617C118.191 211.617 117.846 211.531 117.537 211.359C117.232 211.187 116.991 210.943 116.814 210.629C116.642 210.309 116.556 209.94 116.556 209.522C116.556 209.109 116.644 208.745 116.821 208.431C117.003 208.111 117.249 207.868 117.559 207.701C117.869 207.528 118.215 207.442 118.599 207.442C118.982 207.442 119.329 207.528 119.639 207.701C119.948 207.868 120.192 208.109 120.369 208.423C120.551 208.738 120.642 209.104 120.642 209.522C120.642 209.94 120.548 210.309 120.361 210.629C120.18 210.943 119.931 211.187 119.617 211.359C119.302 211.531 118.953 211.617 118.569 211.617ZM118.569 211.027C118.81 211.027 119.036 210.97 119.248 210.857C119.459 210.744 119.629 210.574 119.757 210.348C119.889 210.122 119.956 209.847 119.956 209.522C119.956 209.198 119.892 208.922 119.764 208.696C119.636 208.47 119.469 208.303 119.263 208.195C119.056 208.082 118.832 208.025 118.591 208.025C118.346 208.025 118.119 208.082 117.913 208.195C117.711 208.303 117.549 208.47 117.426 208.696C117.303 208.922 117.242 209.198 117.242 209.522C117.242 209.852 117.301 210.129 117.419 210.356C117.542 210.582 117.704 210.751 117.905 210.865C118.107 210.973 118.328 211.027 118.569 211.027ZM126.384 207.435C126.699 207.435 126.979 207.501 127.225 207.634C127.471 207.762 127.665 207.956 127.808 208.217C127.95 208.477 128.022 208.795 128.022 209.168V211.55H127.358V209.264C127.358 208.861 127.257 208.554 127.056 208.342C126.859 208.126 126.591 208.018 126.252 208.018C125.903 208.018 125.625 208.131 125.418 208.357C125.212 208.578 125.108 208.9 125.108 209.323V211.55H124.445V209.264C124.445 208.861 124.344 208.554 124.142 208.342C123.946 208.126 123.678 208.018 123.338 208.018C122.989 208.018 122.712 208.131 122.505 208.357C122.299 208.578 122.195 208.9 122.195 209.323V211.55H121.524V207.509H122.195V208.091C122.328 207.88 122.505 207.718 122.726 207.605C122.952 207.492 123.201 207.435 123.471 207.435C123.81 207.435 124.11 207.511 124.371 207.664C124.632 207.816 124.826 208.04 124.954 208.335C125.067 208.05 125.254 207.828 125.514 207.671C125.775 207.514 126.065 207.435 126.384 207.435ZM129.794 208.254C129.927 208.023 130.123 207.831 130.384 207.678C130.649 207.521 130.957 207.442 131.306 207.442C131.665 207.442 131.989 207.528 132.279 207.701C132.574 207.873 132.805 208.116 132.973 208.431C133.14 208.74 133.223 209.102 133.223 209.515C133.223 209.923 133.14 210.287 132.973 210.606C132.805 210.926 132.574 211.174 132.279 211.351C131.989 211.528 131.665 211.617 131.306 211.617C130.962 211.617 130.657 211.541 130.391 211.388C130.131 211.231 129.931 211.037 129.794 210.806V213.468H129.123V207.509H129.794V208.254ZM132.537 209.515C132.537 209.21 132.476 208.944 132.353 208.718C132.23 208.492 132.063 208.32 131.851 208.202C131.645 208.084 131.416 208.025 131.166 208.025C130.92 208.025 130.691 208.087 130.48 208.209C130.273 208.327 130.106 208.502 129.978 208.733C129.855 208.959 129.794 209.222 129.794 209.522C129.794 209.827 129.855 210.095 129.978 210.326C130.106 210.552 130.273 210.727 130.48 210.85C130.691 210.968 130.92 211.027 131.166 211.027C131.416 211.027 131.645 210.968 131.851 210.85C132.063 210.727 132.23 210.552 132.353 210.326C132.476 210.095 132.537 209.825 132.537 209.515ZM134.453 206.852C134.325 206.852 134.217 206.808 134.129 206.72C134.04 206.631 133.996 206.523 133.996 206.395C133.996 206.267 134.04 206.159 134.129 206.071C134.217 205.982 134.325 205.938 134.453 205.938C134.576 205.938 134.68 205.982 134.763 206.071C134.852 206.159 134.896 206.267 134.896 206.395C134.896 206.523 134.852 206.631 134.763 206.72C134.68 206.808 134.576 206.852 134.453 206.852ZM134.778 207.509V211.55H134.107V207.509H134.778ZM136.593 206.093V211.55H135.922V206.093H136.593ZM137.486 209.515C137.486 209.102 137.57 208.74 137.737 208.431C137.904 208.116 138.133 207.873 138.423 207.701C138.718 207.528 139.045 207.442 139.404 207.442C139.758 207.442 140.065 207.519 140.325 207.671C140.586 207.823 140.78 208.015 140.908 208.246V207.509H141.587V211.55H140.908V210.798C140.775 211.034 140.576 211.231 140.311 211.388C140.05 211.541 139.745 211.617 139.396 211.617C139.037 211.617 138.713 211.528 138.423 211.351C138.133 211.174 137.904 210.926 137.737 210.606C137.57 210.287 137.486 209.923 137.486 209.515ZM140.908 209.522C140.908 209.217 140.847 208.952 140.724 208.726C140.601 208.5 140.434 208.327 140.222 208.209C140.016 208.087 139.787 208.025 139.536 208.025C139.286 208.025 139.057 208.084 138.85 208.202C138.644 208.32 138.479 208.492 138.356 208.718C138.233 208.944 138.172 209.21 138.172 209.515C138.172 209.825 138.233 210.095 138.356 210.326C138.479 210.552 138.644 210.727 138.85 210.85C139.057 210.968 139.286 211.027 139.536 211.027C139.787 211.027 140.016 210.968 140.222 210.85C140.434 210.727 140.601 210.552 140.724 210.326C140.847 210.095 140.908 209.827 140.908 209.522ZM143.539 208.062V210.444C143.539 210.641 143.581 210.781 143.665 210.865C143.748 210.943 143.893 210.983 144.1 210.983H144.594V211.55H143.989C143.616 211.55 143.335 211.464 143.149 211.292C142.962 211.12 142.868 210.837 142.868 210.444V208.062H142.345V207.509H142.868V206.491H143.539V207.509H144.594V208.062H143.539ZM145.754 206.852C145.626 206.852 145.518 206.808 145.429 206.72C145.341 206.631 145.297 206.523 145.297 206.395C145.297 206.267 145.341 206.159 145.429 206.071C145.518 205.982 145.626 205.938 145.754 205.938C145.877 205.938 145.98 205.982 146.064 206.071C146.152 206.159 146.196 206.267 146.196 206.395C146.196 206.523 146.152 206.631 146.064 206.72C145.98 206.808 145.877 206.852 145.754 206.852ZM146.078 207.509V211.55H145.407V207.509H146.078ZM148.985 211.617C148.606 211.617 148.262 211.531 147.952 211.359C147.648 211.187 147.407 210.943 147.23 210.629C147.058 210.309 146.971 209.94 146.971 209.522C146.971 209.109 147.06 208.745 147.237 208.431C147.419 208.111 147.665 207.868 147.975 207.701C148.284 207.528 148.631 207.442 149.014 207.442C149.398 207.442 149.745 207.528 150.054 207.701C150.364 207.868 150.607 208.109 150.784 208.423C150.966 208.738 151.057 209.104 151.057 209.522C151.057 209.94 150.964 210.309 150.777 210.629C150.595 210.943 150.347 211.187 150.032 211.359C149.718 211.531 149.368 211.617 148.985 211.617ZM148.985 211.027C149.226 211.027 149.452 210.97 149.663 210.857C149.875 210.744 150.044 210.574 150.172 210.348C150.305 210.122 150.371 209.847 150.371 209.522C150.371 209.198 150.308 208.922 150.18 208.696C150.052 208.47 149.885 208.303 149.678 208.195C149.472 208.082 149.248 208.025 149.007 208.025C148.761 208.025 148.535 208.082 148.329 208.195C148.127 208.303 147.965 208.47 147.842 208.696C147.719 208.922 147.657 209.198 147.657 209.522C147.657 209.852 147.716 210.129 147.834 210.356C147.957 210.582 148.12 210.751 148.321 210.865C148.523 210.973 148.744 211.027 148.985 211.027ZM153.909 207.435C154.401 207.435 154.799 207.585 155.104 207.885C155.409 208.18 155.561 208.608 155.561 209.168V211.55H154.897V209.264C154.897 208.861 154.796 208.554 154.595 208.342C154.393 208.126 154.118 208.018 153.769 208.018C153.415 208.018 153.132 208.128 152.921 208.35C152.714 208.571 152.611 208.893 152.611 209.316V211.55H151.94V207.509H152.611V208.084C152.744 207.878 152.923 207.718 153.149 207.605C153.38 207.492 153.634 207.435 153.909 207.435ZM158.088 211.617C157.778 211.617 157.501 211.565 157.255 211.462C157.009 211.354 156.815 211.206 156.672 211.019C156.53 210.828 156.451 210.609 156.436 210.363H157.129C157.149 210.565 157.242 210.729 157.41 210.857C157.582 210.985 157.805 211.049 158.081 211.049C158.336 211.049 158.538 210.992 158.686 210.879C158.833 210.766 158.907 210.624 158.907 210.452C158.907 210.274 158.828 210.144 158.671 210.061C158.513 209.972 158.27 209.886 157.941 209.802C157.641 209.724 157.395 209.645 157.203 209.566C157.016 209.483 156.854 209.362 156.716 209.205C156.584 209.043 156.517 208.831 156.517 208.571C156.517 208.364 156.579 208.175 156.702 208.003C156.825 207.831 156.999 207.696 157.225 207.597C157.451 207.494 157.71 207.442 158 207.442C158.447 207.442 158.808 207.555 159.084 207.782C159.359 208.008 159.507 208.318 159.526 208.711H158.855C158.84 208.5 158.754 208.33 158.597 208.202C158.445 208.074 158.238 208.01 157.978 208.01C157.737 208.01 157.545 208.062 157.402 208.165C157.26 208.268 157.188 208.404 157.188 208.571C157.188 208.704 157.23 208.814 157.314 208.903C157.402 208.986 157.51 209.055 157.638 209.109C157.771 209.158 157.953 209.215 158.184 209.279C158.474 209.358 158.71 209.436 158.892 209.515C159.074 209.589 159.229 209.702 159.357 209.854C159.489 210.007 159.558 210.206 159.563 210.452C159.563 210.673 159.502 210.872 159.379 211.049C159.256 211.226 159.081 211.366 158.855 211.469C158.634 211.568 158.378 211.617 158.088 211.617ZM93.4362 225.914C93.4362 226.342 93.2887 226.699 92.9937 226.984C92.7036 227.264 92.2586 227.404 91.6587 227.404H90.6705V229.55H89.9993V224.41H91.6587C92.2389 224.41 92.679 224.55 92.9789 224.83C93.2838 225.111 93.4362 225.472 93.4362 225.914ZM91.6587 226.851C92.0324 226.851 92.3078 226.77 92.4848 226.608C92.6618 226.445 92.7503 226.214 92.7503 225.914C92.7503 225.28 92.3864 224.963 91.6587 224.963H90.6705V226.851H91.6587ZM97.958 227.375C97.958 227.503 97.9506 227.638 97.9358 227.78H94.7055C94.7301 228.179 94.8653 228.491 95.1111 228.717C95.3619 228.938 95.6643 229.049 96.0183 229.049C96.3084 229.049 96.5493 228.983 96.741 228.85C96.9377 228.712 97.0754 228.53 97.154 228.304H97.8768C97.7687 228.692 97.5523 229.01 97.2278 229.255C96.9033 229.496 96.5001 229.617 96.0183 229.617C95.6348 229.617 95.2906 229.531 94.9857 229.359C94.6858 229.187 94.4498 228.943 94.2777 228.629C94.1056 228.309 94.0196 227.94 94.0196 227.522C94.0196 227.104 94.1032 226.738 94.2703 226.423C94.4375 226.109 94.6711 225.868 94.971 225.701C95.2758 225.528 95.6249 225.442 96.0183 225.442C96.4018 225.442 96.741 225.526 97.036 225.693C97.3311 225.86 97.5572 226.091 97.7146 226.386C97.8768 226.677 97.958 227.006 97.958 227.375ZM97.2647 227.235C97.2647 226.979 97.2081 226.76 97.095 226.578C96.982 226.391 96.8271 226.251 96.6304 226.158C96.4387 226.059 96.2248 226.01 95.9888 226.01C95.6495 226.01 95.3594 226.118 95.1185 226.335C94.8825 226.551 94.7473 226.851 94.7128 227.235H97.2647ZM99.515 226.165C99.633 225.934 99.8002 225.755 100.017 225.627C100.238 225.499 100.506 225.435 100.82 225.435V226.128H100.643C99.8911 226.128 99.515 226.536 99.515 227.353V229.55H98.8438V225.509H99.515V226.165ZM103.026 229.617C102.716 229.617 102.438 229.565 102.193 229.462C101.947 229.354 101.752 229.206 101.61 229.019C101.467 228.828 101.389 228.609 101.374 228.363H102.067C102.087 228.565 102.18 228.729 102.347 228.857C102.52 228.985 102.743 229.049 103.019 229.049C103.274 229.049 103.476 228.992 103.623 228.879C103.771 228.766 103.845 228.624 103.845 228.452C103.845 228.274 103.766 228.144 103.609 228.061C103.451 227.972 103.208 227.886 102.878 227.802C102.579 227.724 102.333 227.645 102.141 227.566C101.954 227.483 101.792 227.362 101.654 227.205C101.521 227.043 101.455 226.831 101.455 226.571C101.455 226.364 101.516 226.175 101.639 226.003C101.762 225.831 101.937 225.696 102.163 225.597C102.389 225.494 102.647 225.442 102.937 225.442C103.385 225.442 103.746 225.555 104.022 225.782C104.297 226.008 104.444 226.318 104.464 226.711H103.793C103.778 226.5 103.692 226.33 103.535 226.202C103.382 226.074 103.176 226.01 102.915 226.01C102.674 226.01 102.483 226.062 102.34 226.165C102.197 226.268 102.126 226.404 102.126 226.571C102.126 226.704 102.168 226.814 102.252 226.903C102.34 226.986 102.448 227.055 102.576 227.109C102.709 227.158 102.891 227.215 103.122 227.279C103.412 227.358 103.648 227.436 103.83 227.515C104.012 227.589 104.167 227.702 104.294 227.854C104.427 228.007 104.496 228.206 104.501 228.452C104.501 228.673 104.44 228.872 104.317 229.049C104.194 229.226 104.019 229.366 103.793 229.469C103.572 229.568 103.316 229.617 103.026 229.617ZM107.211 229.617C106.833 229.617 106.488 229.531 106.179 229.359C105.874 229.187 105.633 228.943 105.456 228.629C105.284 228.309 105.198 227.94 105.198 227.522C105.198 227.109 105.286 226.745 105.463 226.431C105.645 226.111 105.891 225.868 106.201 225.701C106.51 225.528 106.857 225.442 107.241 225.442C107.624 225.442 107.971 225.528 108.281 225.701C108.59 225.868 108.834 226.109 109.011 226.423C109.193 226.738 109.284 227.104 109.284 227.522C109.284 227.94 109.19 228.309 109.003 228.629C108.821 228.943 108.573 229.187 108.258 229.359C107.944 229.531 107.595 229.617 107.211 229.617ZM107.211 229.027C107.452 229.027 107.678 228.97 107.89 228.857C108.101 228.744 108.271 228.574 108.399 228.348C108.531 228.122 108.598 227.847 108.598 227.522C108.598 227.198 108.534 226.922 108.406 226.696C108.278 226.47 108.111 226.303 107.904 226.195C107.698 226.082 107.474 226.025 107.233 226.025C106.987 226.025 106.761 226.082 106.555 226.195C106.353 226.303 106.191 226.47 106.068 226.696C105.945 226.922 105.884 227.198 105.884 227.522C105.884 227.852 105.943 228.129 106.061 228.356C106.183 228.582 106.346 228.751 106.547 228.865C106.749 228.973 106.97 229.027 107.211 229.027ZM112.135 225.435C112.627 225.435 113.025 225.585 113.33 225.885C113.635 226.18 113.787 226.608 113.787 227.168V229.55H113.123V227.264C113.123 226.861 113.023 226.554 112.821 226.342C112.619 226.126 112.344 226.018 111.995 226.018C111.641 226.018 111.358 226.128 111.147 226.35C110.94 226.571 110.837 226.893 110.837 227.316V229.55H110.166V225.509H110.837V226.084C110.97 225.878 111.149 225.718 111.376 225.605C111.607 225.492 111.86 225.435 112.135 225.435ZM114.633 227.515C114.633 227.102 114.716 226.74 114.884 226.431C115.051 226.116 115.279 225.873 115.569 225.701C115.864 225.528 116.191 225.442 116.55 225.442C116.904 225.442 117.212 225.519 117.472 225.671C117.733 225.823 117.927 226.015 118.055 226.246V225.509H118.733V229.55H118.055V228.798C117.922 229.034 117.723 229.231 117.458 229.388C117.197 229.541 116.892 229.617 116.543 229.617C116.184 229.617 115.86 229.528 115.569 229.351C115.279 229.174 115.051 228.926 114.884 228.606C114.716 228.287 114.633 227.923 114.633 227.515ZM118.055 227.522C118.055 227.217 117.993 226.952 117.871 226.726C117.748 226.5 117.58 226.327 117.369 226.209C117.162 226.087 116.934 226.025 116.683 226.025C116.432 226.025 116.204 226.084 115.997 226.202C115.791 226.32 115.626 226.492 115.503 226.718C115.38 226.944 115.319 227.21 115.319 227.515C115.319 227.825 115.38 228.095 115.503 228.326C115.626 228.552 115.791 228.727 115.997 228.85C116.204 228.968 116.432 229.027 116.683 229.027C116.934 229.027 117.162 228.968 117.369 228.85C117.58 228.727 117.748 228.552 117.871 228.326C117.993 228.095 118.055 227.827 118.055 227.522ZM120.539 224.093V229.55H119.868V224.093H120.539ZM123.398 227.522C123.398 227.104 123.482 226.74 123.649 226.431C123.816 226.116 124.047 225.873 124.342 225.701C124.642 225.528 124.984 225.442 125.367 225.442C125.864 225.442 126.272 225.563 126.592 225.804C126.916 226.045 127.13 226.379 127.233 226.807H126.51C126.442 226.561 126.306 226.367 126.105 226.224C125.908 226.082 125.662 226.01 125.367 226.01C124.984 226.01 124.674 226.143 124.438 226.409C124.202 226.669 124.084 227.04 124.084 227.522C124.084 228.009 124.202 228.385 124.438 228.651C124.674 228.916 124.984 229.049 125.367 229.049C125.662 229.049 125.908 228.98 126.105 228.842C126.301 228.705 126.437 228.508 126.51 228.252H127.233C127.125 228.665 126.909 228.997 126.584 229.248C126.26 229.494 125.854 229.617 125.367 229.617C124.984 229.617 124.642 229.531 124.342 229.359C124.047 229.187 123.816 228.943 123.649 228.629C123.482 228.314 123.398 227.945 123.398 227.522ZM129.891 229.617C129.513 229.617 129.169 229.531 128.859 229.359C128.554 229.187 128.313 228.943 128.136 228.629C127.964 228.309 127.878 227.94 127.878 227.522C127.878 227.109 127.966 226.745 128.143 226.431C128.325 226.111 128.571 225.868 128.881 225.701C129.191 225.528 129.537 225.442 129.921 225.442C130.304 225.442 130.651 225.528 130.961 225.701C131.271 225.868 131.514 226.109 131.691 226.423C131.873 226.738 131.964 227.104 131.964 227.522C131.964 227.94 131.87 228.309 131.684 228.629C131.502 228.943 131.253 229.187 130.939 229.359C130.624 229.531 130.275 229.617 129.891 229.617ZM129.891 229.027C130.132 229.027 130.359 228.97 130.57 228.857C130.781 228.744 130.951 228.574 131.079 228.348C131.212 228.122 131.278 227.847 131.278 227.522C131.278 227.198 131.214 226.922 131.086 226.696C130.958 226.47 130.791 226.303 130.585 226.195C130.378 226.082 130.154 226.025 129.914 226.025C129.668 226.025 129.442 226.082 129.235 226.195C129.033 226.303 128.871 226.47 128.748 226.696C128.625 226.922 128.564 227.198 128.564 227.522C128.564 227.852 128.623 228.129 128.741 228.356C128.864 228.582 129.026 228.751 129.228 228.865C129.429 228.973 129.65 229.027 129.891 229.027ZM134.815 225.435C135.307 225.435 135.705 225.585 136.01 225.885C136.315 226.18 136.468 226.608 136.468 227.168V229.55H135.804V227.264C135.804 226.861 135.703 226.554 135.501 226.342C135.3 226.126 135.024 226.018 134.675 226.018C134.321 226.018 134.039 226.128 133.827 226.35C133.621 226.571 133.517 226.893 133.517 227.316V229.55H132.846V225.509H133.517V226.084C133.65 225.878 133.83 225.718 134.056 225.605C134.287 225.492 134.54 225.435 134.815 225.435ZM138.995 229.617C138.685 229.617 138.407 229.565 138.161 229.462C137.915 229.354 137.721 229.206 137.579 229.019C137.436 228.828 137.357 228.609 137.343 228.363H138.036C138.056 228.565 138.149 228.729 138.316 228.857C138.488 228.985 138.712 229.049 138.987 229.049C139.243 229.049 139.445 228.992 139.592 228.879C139.74 228.766 139.813 228.624 139.813 228.452C139.813 228.274 139.735 228.144 139.577 228.061C139.42 227.972 139.177 227.886 138.847 227.802C138.547 227.724 138.301 227.645 138.11 227.566C137.923 227.483 137.761 227.362 137.623 227.205C137.49 227.043 137.424 226.831 137.424 226.571C137.424 226.364 137.485 226.175 137.608 226.003C137.731 225.831 137.906 225.696 138.132 225.597C138.358 225.494 138.616 225.442 138.906 225.442C139.354 225.442 139.715 225.555 139.99 225.782C140.266 226.008 140.413 226.318 140.433 226.711H139.762C139.747 226.5 139.661 226.33 139.504 226.202C139.351 226.074 139.145 226.01 138.884 226.01C138.643 226.01 138.451 226.062 138.309 226.165C138.166 226.268 138.095 226.404 138.095 226.571C138.095 226.704 138.137 226.814 138.22 226.903C138.309 226.986 138.417 227.055 138.545 227.109C138.678 227.158 138.859 227.215 139.091 227.279C139.381 227.358 139.617 227.436 139.799 227.515C139.98 227.589 140.135 227.702 140.263 227.854C140.396 228.007 140.465 228.206 140.47 228.452C140.47 228.673 140.408 228.872 140.285 229.049C140.162 229.226 139.988 229.366 139.762 229.469C139.54 229.568 139.285 229.617 138.995 229.617ZM145.001 225.509V229.55H144.33V228.953C144.202 229.16 144.023 229.322 143.792 229.44C143.566 229.553 143.315 229.609 143.04 229.609C142.725 229.609 142.442 229.545 142.192 229.418C141.941 229.285 141.742 229.088 141.594 228.828C141.452 228.567 141.38 228.25 141.38 227.876V225.509H142.044V227.788C142.044 228.186 142.145 228.493 142.346 228.71C142.548 228.921 142.823 229.027 143.172 229.027C143.531 229.027 143.814 228.916 144.021 228.695C144.227 228.474 144.33 228.152 144.33 227.729V225.509H145.001ZM146.806 224.093V229.55H146.135V224.093H146.806ZM148.768 226.062V228.444C148.768 228.641 148.81 228.781 148.894 228.865C148.977 228.943 149.122 228.983 149.329 228.983H149.823V229.55H149.218C148.845 229.55 148.564 229.464 148.377 229.292C148.191 229.12 148.097 228.837 148.097 228.444V226.062H147.574V225.509H148.097V224.491H148.768V225.509H149.823V226.062H148.768ZM152.067 229.617C151.757 229.617 151.479 229.565 151.234 229.462C150.988 229.354 150.793 229.206 150.651 229.019C150.508 228.828 150.43 228.609 150.415 228.363H151.108C151.128 228.565 151.221 228.729 151.388 228.857C151.561 228.985 151.784 229.049 152.06 229.049C152.315 229.049 152.517 228.992 152.664 228.879C152.812 228.766 152.886 228.624 152.886 228.452C152.886 228.274 152.807 228.144 152.65 228.061C152.492 227.972 152.249 227.886 151.919 227.802C151.62 227.724 151.374 227.645 151.182 227.566C150.995 227.483 150.833 227.362 150.695 227.205C150.562 227.043 150.496 226.831 150.496 226.571C150.496 226.364 150.557 226.175 150.68 226.003C150.803 225.831 150.978 225.696 151.204 225.597C151.43 225.494 151.688 225.442 151.978 225.442C152.426 225.442 152.787 225.555 153.063 225.782C153.338 226.008 153.485 226.318 153.505 226.711H152.834C152.819 226.5 152.733 226.33 152.576 226.202C152.423 226.074 152.217 226.01 151.956 226.01C151.715 226.01 151.524 226.062 151.381 226.165C151.238 226.268 151.167 226.404 151.167 226.571C151.167 226.704 151.209 226.814 151.293 226.903C151.381 226.986 151.489 227.055 151.617 227.109C151.75 227.158 151.932 227.215 152.163 227.279C152.453 227.358 152.689 227.436 152.871 227.515C153.053 227.589 153.208 227.702 153.335 227.854C153.468 228.007 153.537 228.206 153.542 228.452C153.542 228.673 153.481 228.872 153.358 229.049C153.235 229.226 153.06 229.366 152.834 229.469C152.613 229.568 152.357 229.617 152.067 229.617Z" fill="#6E798C"/>
<path d="M127.963 167.133L130.671 158.31H130.914L128.207 167.133H127.963ZM131.507 165.51V165.409L131.649 165.369C131.777 165.335 131.865 165.277 131.912 165.196C131.966 165.115 131.997 165.007 132.004 164.872V161.697C132.004 161.549 131.98 161.441 131.933 161.373C131.885 161.299 131.794 161.248 131.659 161.221L131.507 161.18V161.079L133.241 160.491L133.342 160.592L133.423 161.282C133.646 161.059 133.9 160.869 134.184 160.714C134.475 160.558 134.776 160.481 135.086 160.481C135.411 160.481 135.671 160.548 135.867 160.683C136.063 160.812 136.212 161.015 136.314 161.292C136.577 161.042 136.861 160.846 137.165 160.704C137.476 160.555 137.777 160.481 138.068 160.481C138.548 160.481 138.899 160.596 139.123 160.825C139.352 161.055 139.467 161.417 139.467 161.91V164.882C139.467 165.145 139.589 165.311 139.832 165.379L139.944 165.409V165.51H137.601V165.409L137.703 165.379C137.831 165.338 137.919 165.277 137.967 165.196C138.021 165.115 138.048 165.007 138.048 164.872V161.768C138.048 161.485 137.997 161.292 137.896 161.19C137.794 161.082 137.632 161.028 137.409 161.028C137.233 161.028 137.061 161.069 136.892 161.15C136.729 161.224 136.557 161.339 136.374 161.495C136.408 161.603 136.428 161.721 136.435 161.85C136.449 161.978 136.456 162.113 136.456 162.255V164.882C136.462 165.145 136.584 165.311 136.821 165.379L136.912 165.409V165.51H134.559V165.409L134.701 165.369C134.83 165.328 134.917 165.27 134.965 165.196C135.019 165.115 135.046 165.007 135.046 164.872V161.779C135.046 161.508 134.995 161.316 134.894 161.201C134.799 161.086 134.634 161.028 134.397 161.028C134.241 161.028 134.086 161.069 133.93 161.15C133.775 161.224 133.613 161.336 133.444 161.485V164.882C133.444 165.145 133.562 165.311 133.799 165.379L133.89 165.409V165.51H131.507ZM143.312 165.663C142.798 165.663 142.352 165.558 141.973 165.348C141.595 165.132 141.3 164.828 141.091 164.436C140.888 164.043 140.787 163.584 140.787 163.056C140.787 162.529 140.895 162.073 141.111 161.687C141.334 161.302 141.635 161.005 142.014 160.795C142.399 160.585 142.832 160.481 143.312 160.481C143.792 160.481 144.221 160.585 144.6 160.795C144.978 160.998 145.276 161.292 145.492 161.677C145.715 162.063 145.827 162.522 145.827 163.056C145.827 163.59 145.722 164.054 145.512 164.446C145.31 164.831 145.019 165.132 144.64 165.348C144.268 165.558 143.826 165.663 143.312 165.663ZM143.312 165.46C143.548 165.46 143.738 165.392 143.88 165.257C144.022 165.122 144.123 164.882 144.184 164.537C144.251 164.192 144.285 163.705 144.285 163.077C144.285 162.441 144.251 161.951 144.184 161.606C144.123 161.261 144.022 161.021 143.88 160.886C143.738 160.751 143.548 160.683 143.312 160.683C143.075 160.683 142.882 160.751 142.734 160.886C142.592 161.021 142.487 161.261 142.419 161.606C142.359 161.951 142.328 162.441 142.328 163.077C142.328 163.705 142.359 164.192 142.419 164.537C142.487 164.882 142.592 165.122 142.734 165.257C142.882 165.392 143.075 165.46 143.312 165.46Z" fill="#6E798C"/>
<path d="M78.282 165.711C76.1579 165.711 74.4542 165.346 73.1709 164.616C71.9098 163.864 71.2792 162.824 71.2792 161.496C71.2792 160.855 71.4672 160.346 71.8434 159.97C72.2416 159.571 72.7174 159.372 73.2705 159.372C73.8236 159.372 74.2993 159.538 74.6976 159.87C75.0959 160.202 75.3503 160.799 75.4609 161.662L75.5605 162.193C75.7154 163.211 76.0141 163.941 76.4566 164.384C76.9212 164.826 77.5408 165.047 78.3152 165.047V156.85L77.3195 156.485C75.4388 155.843 73.9785 155.002 72.9386 153.962C71.9208 152.9 71.4119 151.573 71.4119 149.98C71.4119 148.21 72.0204 146.738 73.2373 145.566C74.4763 144.393 76.18 143.762 78.3483 143.674V140.687H79.1449V143.674C81.0919 143.718 82.6075 144.161 83.6917 145.002C84.798 145.82 85.3511 146.794 85.3511 147.922C85.3511 148.586 85.1741 149.095 84.8201 149.449C84.4882 149.803 84.0236 149.98 83.4262 149.98C82.9173 149.98 82.4527 149.803 82.0323 149.449C81.634 149.095 81.3464 148.431 81.1694 147.457L81.0366 146.694C80.9039 146.008 80.7047 145.499 80.4392 145.167C80.1737 144.813 79.7423 144.603 79.1449 144.537V152.336L79.7423 152.535C82.0655 153.288 83.6917 154.228 84.621 155.356C85.5724 156.485 86.0481 157.801 86.0481 159.306C86.0481 160.478 85.7605 161.529 85.1852 162.459C84.632 163.366 83.8355 164.107 82.7956 164.682C81.7557 165.258 80.5277 165.59 79.1117 165.678V169.03H78.3152V165.711H78.282ZM74.9299 147.989C74.9299 149.006 75.2065 149.847 75.7596 150.511C76.3349 151.175 77.1978 151.706 78.3483 152.104V144.504C77.8173 144.548 77.2863 144.703 76.7553 144.968C76.2243 145.234 75.7818 145.621 75.4278 146.13C75.0959 146.617 74.9299 147.236 74.9299 147.989ZM82.3974 160.998C82.3974 160.003 82.154 159.228 81.6672 158.675C81.1804 158.122 80.3286 157.602 79.1117 157.115V165.014C80.1295 164.859 80.926 164.428 81.5013 163.72C82.0987 163.012 82.3974 162.105 82.3974 160.998ZM97.041 165.711C95.5586 165.711 94.3417 165.545 93.3903 165.213C92.461 164.881 91.5428 164.494 90.6356 164.052L91.0007 159.737H91.3326L92.7929 162.426C93.7664 164.173 95.1161 165.047 96.8419 165.047C97.8597 165.047 98.6783 164.627 99.2979 163.786C99.9395 162.923 100.26 161.485 100.26 159.472C100.26 157.724 99.9948 156.474 99.4638 155.721C98.9328 154.947 98.0256 154.56 96.7423 154.56H94.751V153.896H96.51C97.6827 153.896 98.5235 153.542 99.0323 152.834C99.5634 152.126 99.8289 150.898 99.8289 149.15C99.8289 147.446 99.5744 146.241 99.0655 145.533C98.5566 144.802 97.8818 144.437 97.041 144.437C96.2003 144.437 95.4922 144.681 94.917 145.167C94.3638 145.654 93.9102 146.23 93.5562 146.893L92.0627 149.681L91.7309 149.648L92.0627 144.769C92.7708 144.459 93.5562 144.205 94.4191 144.006C95.3042 143.785 96.2888 143.674 97.3729 143.674C99.6961 143.674 101.455 144.183 102.65 145.201C103.867 146.196 104.475 147.446 104.475 148.951C104.475 150.035 104.011 151.075 103.081 152.071C102.152 153.044 100.692 153.719 98.7005 154.095C100.957 154.294 102.595 154.903 103.612 155.921C104.63 156.938 105.139 158.166 105.139 159.605C105.139 160.755 104.807 161.795 104.143 162.724C103.502 163.654 102.572 164.384 101.356 164.915C100.161 165.446 98.7226 165.711 97.041 165.711ZM115.701 165.711C114.417 165.711 113.267 165.59 112.249 165.346C111.253 165.125 110.368 164.749 109.594 164.218L109.826 160.036H110.158L111.685 162.757C112.127 163.554 112.669 164.14 113.311 164.516C113.953 164.87 114.661 165.047 115.435 165.047C117.979 165.047 119.252 163.111 119.252 159.239C119.252 157.492 118.909 156.164 118.223 155.257C117.559 154.35 116.563 153.896 115.236 153.896C114.616 153.896 113.997 153.985 113.377 154.162C112.78 154.316 112.227 154.527 111.718 154.792L111.121 154.427L111.851 144.172H123.467V147.955H112.514L112.05 153.697C112.559 153.321 113.245 152.967 114.107 152.635C114.97 152.303 115.878 152.137 116.829 152.137C118.267 152.137 119.539 152.392 120.646 152.9C121.774 153.409 122.648 154.162 123.268 155.157C123.909 156.131 124.23 157.337 124.23 158.775C124.23 160.257 123.854 161.518 123.102 162.558C122.371 163.598 121.365 164.384 120.081 164.915C118.798 165.446 117.338 165.711 115.701 165.711Z" fill="#081F32"/>
<path d="M94.5616 121.782V127.251H93.4645V123.694L91.9992 127.251H91.1685L89.6953 123.694V127.251H88.5983V121.782H89.8442L91.5838 125.849L93.3235 121.782H94.5616ZM98.3105 122.667V124.039H100.152V124.908H98.3105V126.358H100.387V127.251H97.2135V121.774H100.387V122.667H98.3105ZM104.863 121.782C105.438 121.782 105.942 121.894 106.376 122.119C106.815 122.343 107.152 122.665 107.387 123.083C107.627 123.495 107.747 123.976 107.747 124.524C107.747 125.073 107.627 125.554 107.387 125.966C107.152 126.374 106.815 126.69 106.376 126.915C105.942 127.139 105.438 127.251 104.863 127.251H102.951V121.782H104.863ZM104.824 126.319C105.399 126.319 105.843 126.162 106.156 125.849C106.47 125.535 106.627 125.094 106.627 124.524C106.627 123.955 106.47 123.511 106.156 123.192C105.843 122.868 105.399 122.706 104.824 122.706H104.048V126.319H104.824ZM111.233 121.782V127.251H110.136V121.782H111.233ZM114.965 121.782V125.167C114.965 125.538 115.062 125.823 115.255 126.021C115.448 126.214 115.72 126.311 116.07 126.311C116.425 126.311 116.7 126.214 116.893 126.021C117.086 125.823 117.183 125.538 117.183 125.167V121.782H118.288V125.159C118.288 125.624 118.186 126.019 117.982 126.342C117.784 126.661 117.515 126.901 117.175 127.063C116.841 127.225 116.467 127.306 116.054 127.306C115.647 127.306 115.276 127.225 114.942 127.063C114.613 126.901 114.351 126.661 114.158 126.342C113.965 126.019 113.868 125.624 113.868 125.159V121.782H114.965ZM126.878 121.782V127.251H125.781V123.694L124.316 127.251H123.485L122.012 123.694V127.251H120.915V121.782H122.161L123.9 125.849L125.64 121.782H126.878Z" fill="#081F32"/>
<rect x="147.058" y="85.0629" width="45.6343" height="11.0629" rx="2" fill="#FE9868"/>
<path d="M153.004 89.7723H154.028C154.466 89.7723 154.798 89.8338 155.023 89.9568C155.248 90.0799 155.36 90.296 155.36 90.6051C155.36 90.7296 155.34 90.8421 155.3 90.9427C155.261 91.0432 155.204 91.1257 155.129 91.1902C155.054 91.2548 154.962 91.2968 154.854 91.3163V91.3388C154.964 91.3613 155.063 91.4003 155.151 91.4558C155.24 91.5099 155.31 91.5894 155.363 91.6944C155.417 91.7979 155.444 91.936 155.444 92.1086C155.444 92.3081 155.395 92.4792 155.297 92.6217C155.2 92.7643 155.06 92.8738 154.879 92.9503C154.699 93.0254 154.484 93.0629 154.235 93.0629H153.004V89.7723ZM153.702 91.0755H154.107C154.309 91.0755 154.45 91.0439 154.528 90.9809C154.606 90.9164 154.645 90.8219 154.645 90.6973C154.645 90.5713 154.598 90.4813 154.505 90.4272C154.414 90.3717 154.268 90.344 154.069 90.344H153.702V91.0755ZM153.702 91.6291V92.4867H154.156C154.366 92.4867 154.513 92.4462 154.595 92.3651C154.678 92.2841 154.719 92.1753 154.719 92.0388C154.719 91.9578 154.701 91.8865 154.665 91.825C154.629 91.7634 154.568 91.7154 154.483 91.6809C154.399 91.6464 154.282 91.6291 154.134 91.6291H153.702ZM158.918 93.0629H157.023V89.7723H158.918V90.344H157.721V91.0665H158.835V91.6381H157.721V92.4867H158.918V93.0629ZM162.471 92.1491C162.471 92.3441 162.424 92.5137 162.329 92.6577C162.235 92.8018 162.097 92.9128 161.915 92.9908C161.735 93.0689 161.516 93.1079 161.258 93.1079C161.144 93.1079 161.032 93.1004 160.922 93.0854C160.814 93.0704 160.71 93.0486 160.61 93.0201C160.511 92.9901 160.416 92.9533 160.326 92.9098V92.2616C160.482 92.3306 160.644 92.3929 160.812 92.4484C160.98 92.5039 161.147 92.5317 161.312 92.5317C161.426 92.5317 161.517 92.5167 161.586 92.4867C161.657 92.4567 161.708 92.4154 161.74 92.3629C161.771 92.3104 161.787 92.2503 161.787 92.1828C161.787 92.1003 161.759 92.0298 161.703 91.9713C161.648 91.9127 161.571 91.858 161.474 91.807C161.378 91.7559 161.269 91.7012 161.148 91.6426C161.071 91.6066 160.988 91.5631 160.898 91.5121C160.808 91.4596 160.722 91.3958 160.641 91.3208C160.56 91.2458 160.493 91.155 160.441 91.0485C160.39 90.9404 160.364 90.8114 160.364 90.6613C160.364 90.4648 160.409 90.2967 160.499 90.1572C160.589 90.0176 160.718 89.9111 160.884 89.8376C161.052 89.7625 161.25 89.725 161.478 89.725C161.649 89.725 161.812 89.7453 161.967 89.7858C162.123 89.8248 162.286 89.8818 162.455 89.9568L162.23 90.4993C162.079 90.4377 161.943 90.3905 161.823 90.3575C161.703 90.323 161.58 90.3057 161.456 90.3057C161.369 90.3057 161.295 90.32 161.233 90.3485C161.172 90.3755 161.125 90.4145 161.094 90.4655C161.062 90.515 161.046 90.5728 161.046 90.6388C161.046 90.7168 161.069 90.7829 161.114 90.8369C161.16 90.8894 161.229 90.9404 161.321 90.9899C161.414 91.0394 161.529 91.0972 161.667 91.1632C161.836 91.2428 161.979 91.326 162.097 91.4131C162.217 91.4986 162.31 91.5999 162.374 91.7169C162.439 91.8325 162.471 91.9765 162.471 92.1491ZM165.259 93.0629H164.561V90.353H163.667V89.7723H166.152V90.353H165.259V93.0629ZM172.687 91.4131C172.687 91.6667 172.655 91.8977 172.592 92.1063C172.529 92.3134 172.433 92.4919 172.304 92.642C172.177 92.792 172.014 92.9076 171.818 92.9886C171.621 93.0681 171.389 93.1079 171.12 93.1079C170.852 93.1079 170.619 93.0681 170.422 92.9886C170.226 92.9076 170.063 92.792 169.934 92.642C169.806 92.4919 169.711 92.3126 169.648 92.104C169.585 91.8955 169.554 91.6637 169.554 91.4086C169.554 91.068 169.609 90.7716 169.72 90.5195C169.833 90.2659 170.005 90.0694 170.238 89.9298C170.47 89.7903 170.766 89.7205 171.125 89.7205C171.482 89.7205 171.775 89.7903 172.005 89.9298C172.236 90.0694 172.407 90.2659 172.518 90.5195C172.63 90.7731 172.687 91.071 172.687 91.4131ZM170.285 91.4131C170.285 91.6426 170.314 91.8407 170.371 92.0073C170.429 92.1723 170.52 92.2999 170.643 92.3899C170.766 92.4784 170.925 92.5227 171.12 92.5227C171.318 92.5227 171.479 92.4784 171.602 92.3899C171.725 92.2999 171.814 92.1723 171.87 92.0073C171.927 91.8407 171.955 91.6426 171.955 91.4131C171.955 91.068 171.891 90.7964 171.762 90.5983C171.633 90.4002 171.42 90.3012 171.125 90.3012C170.928 90.3012 170.768 90.3462 170.643 90.4362C170.52 90.5248 170.429 90.6523 170.371 90.8189C170.314 90.9839 170.285 91.182 170.285 91.4131ZM174.977 93.0629H174.291V89.7723H176.177V90.344H174.977V91.1925H176.093V91.7619H174.977V93.0629ZM178.429 93.0629H177.742V89.7723H179.628V90.344H178.429V91.1925H179.545V91.7619H178.429V93.0629ZM183.089 93.0629H181.194V89.7723H183.089V90.344H181.892V91.0665H183.006V91.6381H181.892V92.4867H183.089V93.0629ZM185.659 89.7723C185.957 89.7723 186.203 89.8083 186.397 89.8803C186.592 89.9523 186.737 90.0611 186.831 90.2067C186.926 90.3522 186.973 90.536 186.973 90.7581C186.973 90.9082 186.945 91.0394 186.888 91.152C186.831 91.2645 186.755 91.3598 186.662 91.4378C186.569 91.5159 186.469 91.5796 186.361 91.6291L187.329 93.0629H186.554L185.769 91.8002H185.398V93.0629H184.7V89.7723H185.659ZM185.609 90.344H185.398V91.233H185.623C185.854 91.233 186.019 91.1947 186.118 91.1182C186.218 91.0402 186.269 90.9262 186.269 90.7761C186.269 90.6201 186.215 90.509 186.107 90.443C186 90.377 185.834 90.344 185.609 90.344Z" fill="white"/>
</g>
<path d="M71.4635 50.1649L74.1058 41.9553H76.0167L72.4156 52H71.1255L71.4635 50.1649ZM69.0213 41.9553L71.6429 50.1649L72.0016 52H70.7047L67.1173 41.9553H69.0213ZM78.7556 44.5355V52H77.0861V44.5355H78.7556ZM76.9757 42.5762C76.9757 42.3233 77.0585 42.114 77.224 41.9484C77.3942 41.7783 77.6288 41.6932 77.9277 41.6932C78.2221 41.6932 78.4543 41.7783 78.6245 41.9484C78.7947 42.114 78.8797 42.3233 78.8797 42.5762C78.8797 42.8246 78.7947 43.0316 78.6245 43.1971C78.4543 43.3627 78.2221 43.4455 77.9277 43.4455C77.6288 43.4455 77.3942 43.3627 77.224 43.1971C77.0585 43.0316 76.9757 42.8246 76.9757 42.5762ZM83.8676 52.138C83.3157 52.138 82.8167 52.0483 82.3705 51.8689C81.929 51.685 81.5519 51.4297 81.2391 51.1032C80.931 50.7766 80.6941 50.3926 80.5286 49.9511C80.363 49.5095 80.2802 49.0335 80.2802 48.523V48.2471C80.2802 47.663 80.3653 47.134 80.5355 46.6603C80.7056 46.1866 80.9425 45.7819 81.246 45.4461C81.5496 45.1058 81.9083 44.8459 82.3222 44.6666C82.7362 44.4872 83.1846 44.3975 83.6675 44.3975C84.201 44.3975 84.6678 44.4872 85.068 44.6666C85.4681 44.8459 85.7992 45.0989 86.0614 45.4254C86.3281 45.7474 86.5259 46.1314 86.6547 46.5775C86.7881 47.0237 86.8548 47.5158 86.8548 48.0539V48.7645H81.0874V47.571H85.2128V47.4399C85.2036 47.1409 85.1439 46.8604 85.0335 46.5982C84.9277 46.3361 84.7644 46.1245 84.5437 45.9635C84.3229 45.8026 84.0285 45.7221 83.6606 45.7221C83.3847 45.7221 83.1386 45.7819 82.9224 45.9015C82.7109 46.0164 82.5338 46.1843 82.3912 46.4051C82.2487 46.6258 82.1383 46.8926 82.0601 47.2053C81.9865 47.5135 81.9497 47.8607 81.9497 48.2471V48.523C81.9497 48.8495 81.9934 49.1531 82.0808 49.4336C82.1728 49.7096 82.3061 49.9511 82.4809 50.158C82.6557 50.365 82.8672 50.5283 83.1156 50.6478C83.364 50.7628 83.6468 50.8203 83.9642 50.8203C84.3643 50.8203 84.7207 50.7398 85.0335 50.5788C85.3462 50.4179 85.6176 50.1902 85.8475 49.8959L86.7237 50.7444C86.5627 50.979 86.3534 51.2043 86.0959 51.4205C85.8383 51.6321 85.5233 51.8045 85.1508 51.9379C84.7828 52.0713 84.3551 52.138 83.8676 52.138ZM90.18 50.3443L91.9047 44.5355H92.9671L92.6773 46.274L90.9388 52H89.9868L90.18 50.3443ZM89.1659 44.5355L90.5111 50.3719L90.6215 52H89.5591L87.5377 44.5355H89.1659ZM94.5814 50.3029L95.8853 44.5355H97.5065L95.4921 52H94.4296L94.5814 50.3029ZM93.1465 44.5355L94.8505 50.2753L95.0643 52H94.1123L92.3531 46.2671L92.0634 44.5355H93.1465ZM106.137 48.2539H103.522V46.8811H106.137C106.592 46.8811 106.96 46.8075 107.241 46.6603C107.521 46.5132 107.726 46.3108 107.855 46.0532C107.988 45.7911 108.055 45.4921 108.055 45.1564C108.055 44.839 107.988 44.5424 107.855 44.2664C107.726 43.9859 107.521 43.7605 107.241 43.5904C106.96 43.4202 106.592 43.3351 106.137 43.3351H104.053V52H102.322V41.9553H106.137C106.914 41.9553 107.574 42.0933 108.117 42.3693C108.664 42.6406 109.08 43.0178 109.366 43.5007C109.651 43.979 109.793 44.5263 109.793 45.1426C109.793 45.7911 109.651 46.3476 109.366 46.8121C109.08 47.2766 108.664 47.6331 108.117 47.8814C107.574 48.1298 106.914 48.2539 106.137 48.2539ZM112.849 45.9566V52H111.187V44.5355H112.774L112.849 45.9566ZM115.133 44.4872L115.119 46.0325C115.018 46.0141 114.908 46.0003 114.788 45.9911C114.673 45.9819 114.558 45.9773 114.443 45.9773C114.158 45.9773 113.907 46.0187 113.691 46.1015C113.475 46.1797 113.293 46.2947 113.146 46.4465C113.004 46.5936 112.893 46.773 112.815 46.9846C112.737 47.1961 112.691 47.433 112.677 47.6951L112.298 47.7227C112.298 47.2536 112.344 46.819 112.436 46.4189C112.528 46.0187 112.665 45.6669 112.849 45.3634C113.038 45.0598 113.273 44.8229 113.553 44.6528C113.838 44.4826 114.167 44.3975 114.54 44.3975C114.641 44.3975 114.749 44.4067 114.864 44.4251C114.983 44.4435 115.073 44.4642 115.133 44.4872ZM117.955 44.5355V52H116.285V44.5355H117.955ZM116.175 42.5762C116.175 42.3233 116.257 42.114 116.423 41.9484C116.593 41.7783 116.828 41.6932 117.127 41.6932C117.421 41.6932 117.653 41.7783 117.823 41.9484C117.994 42.114 118.079 42.3233 118.079 42.5762C118.079 42.8246 117.994 43.0316 117.823 43.1971C117.653 43.3627 117.421 43.4455 117.127 43.4455C116.828 43.4455 116.593 43.3627 116.423 43.1971C116.257 43.0316 116.175 42.8246 116.175 42.5762ZM122.825 50.8134C123.096 50.8134 123.34 50.7605 123.556 50.6547C123.777 50.5444 123.954 50.3926 124.088 50.1994C124.226 50.0062 124.301 49.7832 124.315 49.5302H125.881C125.872 50.0131 125.73 50.4524 125.454 50.8479C125.178 51.2434 124.812 51.5585 124.357 51.793C123.901 52.023 123.398 52.138 122.846 52.138C122.276 52.138 121.779 52.0414 121.356 51.8482C120.933 51.6505 120.581 51.3791 120.3 51.0342C120.02 50.6892 119.808 50.2914 119.665 49.8407C119.527 49.39 119.459 48.907 119.459 48.3919V48.1505C119.459 47.6354 119.527 47.1524 119.665 46.7017C119.808 46.2464 120.02 45.8463 120.3 45.5013C120.581 45.1564 120.933 44.8873 121.356 44.6942C121.779 44.4964 122.273 44.3975 122.839 44.3975C123.437 44.3975 123.961 44.5171 124.412 44.7563C124.863 44.9908 125.217 45.3197 125.474 45.7428C125.736 46.1613 125.872 46.6488 125.881 47.2053H124.315C124.301 46.9294 124.232 46.681 124.108 46.4603C123.989 46.2349 123.819 46.0555 123.598 45.9222C123.382 45.7888 123.122 45.7221 122.818 45.7221C122.482 45.7221 122.204 45.7911 121.983 45.9291C121.763 46.0624 121.59 46.2464 121.466 46.481C121.342 46.7109 121.252 46.9708 121.197 47.2605C121.146 47.5457 121.121 47.8423 121.121 48.1505V48.3919C121.121 48.7001 121.146 48.999 121.197 49.2888C121.248 49.5785 121.335 49.8384 121.459 50.0683C121.588 50.2937 121.763 50.4754 121.983 50.6133C122.204 50.7467 122.485 50.8134 122.825 50.8134ZM128.937 44.5355V52H127.268V44.5355H128.937ZM127.158 42.5762C127.158 42.3233 127.24 42.114 127.406 41.9484C127.576 41.7783 127.811 41.6932 128.11 41.6932C128.404 41.6932 128.636 41.7783 128.806 41.9484C128.977 42.114 129.062 42.3233 129.062 42.5762C129.062 42.8246 128.977 43.0316 128.806 43.1971C128.636 43.3627 128.404 43.4455 128.11 43.4455C127.811 43.4455 127.576 43.3627 127.406 43.1971C127.24 43.0316 127.158 42.8246 127.158 42.5762ZM132.408 46.1291V52H130.745V44.5355H132.311L132.408 46.1291ZM132.111 47.9918L131.573 47.9849C131.577 47.456 131.651 46.9708 131.794 46.5292C131.941 46.0877 132.143 45.7083 132.401 45.3909C132.663 45.0736 132.976 44.8298 133.339 44.6597C133.702 44.4849 134.107 44.3975 134.553 44.3975C134.912 44.3975 135.236 44.4481 135.526 44.5493C135.82 44.6459 136.071 44.8045 136.278 45.0253C136.489 45.2461 136.65 45.5335 136.761 45.8877C136.871 46.2372 136.926 46.6672 136.926 47.1777V52H135.257V47.1708C135.257 46.8121 135.204 46.5292 135.098 46.3223C134.997 46.1107 134.847 45.9612 134.65 45.8739C134.457 45.7819 134.215 45.7359 133.925 45.7359C133.64 45.7359 133.385 45.7957 133.16 45.9153C132.934 46.0348 132.743 46.1981 132.587 46.4051C132.435 46.612 132.318 46.8512 132.235 47.1225C132.152 47.3939 132.111 47.6836 132.111 47.9918ZM143.404 44.5355H144.915V51.793C144.915 52.4645 144.773 53.0348 144.487 53.5039C144.202 53.9731 143.804 54.3295 143.294 54.5733C142.783 54.8216 142.192 54.9458 141.521 54.9458C141.236 54.9458 140.918 54.9044 140.569 54.8216C140.224 54.7388 139.888 54.6054 139.562 54.4215C139.24 54.2421 138.971 54.0053 138.754 53.7109L139.534 52.7313C139.801 53.0486 140.095 53.2809 140.417 53.4281C140.739 53.5752 141.077 53.6488 141.431 53.6488C141.813 53.6488 142.137 53.5775 142.404 53.435C142.675 53.297 142.885 53.0923 143.032 52.821C143.179 52.5496 143.252 52.2185 143.252 51.8275V46.2257L143.404 44.5355ZM138.334 48.3505V48.2057C138.334 47.64 138.403 47.1248 138.541 46.6603C138.679 46.1912 138.876 45.7888 139.134 45.453C139.391 45.1127 139.704 44.8528 140.072 44.6735C140.44 44.4895 140.856 44.3975 141.321 44.3975C141.804 44.3975 142.215 44.4849 142.556 44.6597C142.901 44.8344 143.188 45.0851 143.418 45.4116C143.648 45.7336 143.827 46.1199 143.956 46.5706C144.09 47.0168 144.188 47.5135 144.253 48.0608V48.523C144.193 49.0565 144.092 49.544 143.949 49.9855C143.807 50.4271 143.618 50.8088 143.384 51.1308C143.149 51.4527 142.859 51.7011 142.514 51.8758C142.174 52.0506 141.772 52.138 141.307 52.138C140.852 52.138 140.44 52.0437 140.072 51.8551C139.709 51.6666 139.396 51.4021 139.134 51.0618C138.876 50.7214 138.679 50.3213 138.541 49.8614C138.403 49.3969 138.334 48.8932 138.334 48.3505ZM139.996 48.2057V48.3505C139.996 48.6909 140.028 49.0082 140.093 49.3026C140.162 49.5969 140.265 49.8568 140.403 50.0821C140.546 50.3029 140.725 50.4777 140.941 50.6064C141.162 50.7306 141.422 50.7927 141.721 50.7927C142.112 50.7927 142.432 50.7099 142.68 50.5444C142.933 50.3788 143.126 50.1557 143.259 49.8752C143.397 49.59 143.494 49.2727 143.549 48.9231V47.6745C143.522 47.4031 143.464 47.1501 143.377 46.9156C143.294 46.681 143.181 46.4764 143.039 46.3016C142.896 46.1222 142.717 45.9842 142.501 45.8877C142.284 45.7865 142.029 45.7359 141.735 45.7359C141.436 45.7359 141.176 45.8003 140.955 45.9291C140.734 46.0578 140.553 46.2349 140.41 46.4603C140.272 46.6856 140.169 46.9478 140.1 47.2467C140.031 47.5457 139.996 47.8653 139.996 48.2057Z" fill="black"/>
</g>
<rect x="8.5" y="8.5" width="198.969" height="432" rx="9.09852" stroke="#455A64"/>
</g>
<defs>
<filter id="filter0_d_2_10772" x="0" y="0" width="223.969" height="457" filterUnits="userSpaceOnUse" color-interpolation-filters="sRGB">
<feFlood flood-opacity="0" result="BackgroundImageFix"/>
<feColorMatrix in="SourceAlpha" type="matrix" values="0 0 0 0 0 0 0 0 0 0 0 0 0 0 0 0 0 0 127 0" result="hardAlpha"/>
<feOffset dx="4" dy="4"/>
<feGaussianBlur stdDeviation="6"/>
<feComposite in2="hardAlpha" operator="out"/>
<feColorMatrix type="matrix" values="0 0 0 0 0 0 0 0 0 0 0 0 0 0 0 0 0 0 0.25 0"/>
<feBlend mode="normal" in2="BackgroundImageFix" result="effect1_dropShadow_2_10772"/>
<feBlend mode="normal" in="SourceGraphic" in2="effect1_dropShadow_2_10772" result="shape"/>
</filter>
<filter id="filter1_d_2_10772" x="73.5899" y="331.683" width="68.7894" height="68.7894" filterUnits="userSpaceOnUse" color-interpolation-filters="sRGB">
<feFlood flood-opacity="0" result="BackgroundImageFix"/>
<feColorMatrix in="SourceAlpha" type="matrix" values="0 0 0 0 0 0 0 0 0 0 0 0 0 0 0 0 0 0 127 0" result="hardAlpha"/>
<feOffset dy="7.99877"/>
<feGaussianBlur stdDeviation="3.99938"/>
<feColorMatrix type="matrix" values="0 0 0 0 0.913725 0 0 0 0 0.25098 0 0 0 0 0.341176 0 0 0 0.2 0"/>
<feBlend mode="normal" in2="BackgroundImageFix" result="effect1_dropShadow_2_10772"/>
<feBlend mode="normal" in="SourceGraphic" in2="effect1_dropShadow_2_10772" result="shape"/>
</filter>
<filter id="filter2_d_2_10772" x="118.383" y="321.018" width="94.9187" height="94.9188" filterUnits="userSpaceOnUse" color-interpolation-filters="sRGB">
<feFlood flood-opacity="0" result="BackgroundImageFix"/>
<feColorMatrix in="SourceAlpha" type="matrix" values="0 0 0 0 0 0 0 0 0 0 0 0 0 0 0 0 0 0 127 0" result="hardAlpha"/>
<feOffset dy="10.665"/>
<feGaussianBlur stdDeviation="13.3313"/>
<feColorMatrix type="matrix" values="0 0 0 0 0 0 0 0 0 0 0 0 0 0 0 0 0 0 0.07 0"/>
<feBlend mode="normal" in2="BackgroundImageFix" result="effect1_dropShadow_2_10772"/>
<feBlend mode="normal" in="SourceGraphic" in2="effect1_dropShadow_2_10772" result="shape"/>
</filter>
<filter id="filter3_d_2_10772" x="2.66752" y="321.018" width="94.9188" height="94.9188" filterUnits="userSpaceOnUse" color-interpolation-filters="sRGB">
<feFlood flood-opacity="0" result="BackgroundImageFix"/>
<feColorMatrix in="SourceAlpha" type="matrix" values="0 0 0 0 0 0 0 0 0 0 0 0 0 0 0 0 0 0 127 0" result="hardAlpha"/>
<feOffset dy="10.665"/>
<feGaussianBlur stdDeviation="13.3313"/>
<feColorMatrix type="matrix" values="0 0 0 0 0 0 0 0 0 0 0 0 0 0 0 0 0 0 0.07 0"/>
<feBlend mode="normal" in2="BackgroundImageFix" result="effect1_dropShadow_2_10772"/>
<feBlend mode="normal" in="SourceGraphic" in2="effect1_dropShadow_2_10772" result="shape"/>
</filter>
<clipPath id="clip0_2_10772">
<rect x="8" y="8" width="199.969" height="433" rx="9.59852" fill="white"/>
</clipPath>
<clipPath id="clip1_2_10772">
<rect width="12.798" height="12.798" fill="white" transform="translate(30.3965 403.672)"/>
</clipPath>
<clipPath id="clip2_2_10772">
<rect width="191.756" height="242" fill="white" transform="translate(12 74)"/>
</clipPath>
</defs>
</svg>
