<svg width="209" height="452" viewBox="0 0 209 452" fill="none" xmlns="http://www.w3.org/2000/svg">
<g clip-path="url(#clip0_2_11036)">
<rect width="208.654" height="451.803" rx="10.0169" fill="white"/>
<path d="M0 404.849H208.653V431.556H0V404.849Z" fill="#455A64"/>
<rect y="404.849" width="208.653" height="0.556408" fill="#E8E6EA"/>
<path d="M178.607 417.09C179.682 417.09 180.554 416.218 180.554 415.142C180.554 414.067 179.682 413.195 178.607 413.195C177.531 413.195 176.659 414.067 176.659 415.142C176.659 416.218 177.531 417.09 178.607 417.09Z" fill="#ADAFBB" stroke="#ADAFBB" stroke-width="1.11282" stroke-linecap="round" stroke-linejoin="round"/>
<path d="M173.599 422.876V423.21H183.615V422.876C183.615 421.63 183.615 421.006 183.372 420.53C183.159 420.112 182.818 419.771 182.399 419.558C181.923 419.315 181.3 419.315 180.054 419.315H177.16C175.914 419.315 175.291 419.315 174.814 419.558C174.396 419.771 174.055 420.112 173.842 420.53C173.599 421.006 173.599 421.63 173.599 422.876Z" fill="#ADAFBB" stroke="#ADAFBB" stroke-width="1.11282" stroke-linecap="round" stroke-linejoin="round"/>
<path d="M134.651 418.203C134.651 421.275 132.16 423.767 129.087 423.767C127.425 423.767 123.522 423.767 123.522 423.767C123.522 423.767 123.522 419.614 123.522 418.203C123.522 415.13 126.014 412.638 129.087 412.638C132.16 412.638 134.651 415.13 134.651 418.203Z" fill="#ADAFBB" stroke="#ADAFBB" stroke-width="1.11282" stroke-linecap="round" stroke-linejoin="round"/>
<path d="M126.305 416.533H131.312H126.305Z" fill="#C4C4C4"/>
<path d="M126.305 416.533H131.312" stroke="white" stroke-width="1.11282" stroke-linecap="round" stroke-linejoin="round"/>
<path d="M126.305 418.759H131.312H126.305Z" fill="#C4C4C4"/>
<path d="M126.305 418.759H131.312" stroke="white" stroke-width="1.11282" stroke-linecap="round" stroke-linejoin="round"/>
<path d="M126.305 420.984H129.087H126.305Z" fill="#C4C4C4"/>
<path d="M126.305 420.984H129.087" stroke="white" stroke-width="1.11282" stroke-linecap="round" stroke-linejoin="round"/>
<path d="M77.0625 413.751C75.3723 413.751 74.0022 415.121 74.0022 416.811C74.0022 419.872 77.6189 422.654 79.5663 423.301C81.5137 422.654 85.1304 419.872 85.1304 416.811C85.1304 415.121 83.7602 413.751 82.0701 413.751C81.0351 413.751 80.1201 414.265 79.5663 415.051C79.0125 414.265 78.0975 413.751 77.0625 413.751Z" fill="#ADAFBB" stroke="#ADAFBB" stroke-width="1.11282" stroke-linecap="round" stroke-linejoin="round"/>
<circle cx="84.0176" cy="414.864" r="2.78204" fill="#EEB738" stroke="#F3F3F3" stroke-width="1.11282"/>
<g clip-path="url(#clip1_2_11036)">
<rect x="28.6545" y="414.028" width="7.2333" height="10.0153" rx="1.11282" fill="#EEB738" stroke="#F3F3F3" stroke-width="0.556408"/>
<rect x="23.587" y="414.023" width="7.2333" height="10.0153" rx="1.11282" transform="rotate(-15 23.587 414.023)" fill="#EEB738" stroke="#F3F3F3" stroke-width="0.556408"/>
</g>
<rect x="13.3538" y="404.849" width="33.3845" height="1.11282" fill="#EEB738"/>
<rect y="431.978" width="208.685" height="19.8251" fill="#455A64"/>
<rect x="157.399" y="29.494" width="28.3768" height="28.3768" rx="8.06791" fill="white" stroke="#FE9868" stroke-width="0.556408"/>
<path fill-rule="evenodd" clip-rule="evenodd" d="M172.561 38.1182C172.868 38.1182 173.118 38.3673 173.118 38.6746V40.9002C173.118 41.2075 172.868 41.4566 172.561 41.4566C172.254 41.4566 172.005 41.2075 172.005 40.9002V40.3438H166.441C166.133 40.3438 165.884 40.0947 165.884 39.7874C165.884 39.4801 166.133 39.231 166.441 39.231H172.005V38.6746C172.005 38.3673 172.254 38.1182 172.561 38.1182ZM174.23 39.7874C174.23 39.4801 174.48 39.231 174.787 39.231H176.456C176.763 39.231 177.012 39.4801 177.012 39.7874C177.012 40.0947 176.763 40.3438 176.456 40.3438H174.787C174.48 40.3438 174.23 40.0947 174.23 39.7874ZM170.892 42.013C171.199 42.013 171.448 42.2621 171.448 42.5694V43.1258H177.012C177.32 43.1258 177.569 43.3749 177.569 43.6822C177.569 43.9895 177.32 44.2386 177.012 44.2386H171.448V44.7951C171.448 45.1024 171.199 45.3515 170.892 45.3515C170.585 45.3515 170.336 45.1024 170.336 44.7951V42.5694C170.336 42.2621 170.585 42.013 170.892 42.013ZM165.884 43.6822C165.884 43.3749 166.133 43.1258 166.441 43.1258H168.666C168.974 43.1258 169.223 43.3749 169.223 43.6822C169.223 43.9895 168.974 44.2386 168.666 44.2386H166.441C166.133 44.2386 165.884 43.9895 165.884 43.6822ZM172.561 45.9079C172.868 45.9079 173.118 46.157 173.118 46.4643V48.6899C173.118 48.9972 172.868 49.2463 172.561 49.2463C172.254 49.2463 172.005 48.9972 172.005 48.6899V48.1335H166.441C166.133 48.1335 165.884 47.8844 165.884 47.5771C165.884 47.2698 166.133 47.0207 166.441 47.0207H172.005V46.4643C172.005 46.157 172.254 45.9079 172.561 45.9079ZM174.23 47.5771C174.23 47.2698 174.48 47.0207 174.787 47.0207H176.456C176.763 47.0207 177.012 47.2698 177.012 47.5771C177.012 47.8844 176.763 48.1335 176.456 48.1335H174.787C174.48 48.1335 174.23 47.8844 174.23 47.5771Z" fill="#FE9868"/>
<rect x="22.191" y="29.494" width="28.3768" height="28.3768" rx="8.06791" fill="white" stroke="#FE9868" stroke-width="0.556408"/>
<path fill-rule="evenodd" clip-rule="evenodd" d="M38.1639 47.4142C37.9466 47.6315 37.5943 47.6315 37.3771 47.4142L34.0386 44.0757C33.8213 43.8584 33.8213 43.5061 34.0386 43.2889L37.3771 39.9504C37.5943 39.7331 37.9466 39.7331 38.1639 39.9504C38.3812 40.1677 38.3812 40.52 38.1639 40.7373L35.2189 43.6823L38.1639 46.6273C38.3812 46.8446 38.3812 47.1969 38.1639 47.4142Z" fill="#FE9868"/>
<path d="M168.028 126.053L150.482 138.312C146.163 141.325 140.264 140.063 137.41 135.502C134.557 130.94 135.752 124.709 140.071 121.695L157.616 109.437C161.935 106.423 167.835 107.686 170.688 112.247C173.542 116.808 172.346 123.039 168.028 126.053Z" fill="#FACEA7"/>
<path d="M140.15 208.035C144.045 248.761 119.635 258.372 97.4244 259.065C63.9534 260.124 43.4004 195.98 52.1923 186.735C54.159 184.658 57.3595 185.554 65.573 181.481C71.9356 178.305 75.9845 174.802 77.6812 173.418C84.3522 168.042 110.882 150.285 126.499 158.186C140.536 165.272 138.53 191.256 140.15 208.035Z" fill="#FACEA7"/>
<path d="M127.809 203.596C124.686 222.982 110.302 246.643 91.3303 247.254C62.7566 248.15 45.2114 193.252 52.6922 185.391C54.3503 183.64 57.0881 184.414 64.1062 180.871C69.5433 178.142 72.9753 175.169 74.4791 173.988C80.1862 169.386 102.821 154.195 116.164 160.956C128.156 166.983 130.123 189.383 127.809 203.596Z" fill="#F8BE91"/>
<path d="M60.984 248.761C54.6985 248.761 43.8629 244.77 43.8629 232.063V165.272C43.8629 158.715 48.9915 153.34 55.2769 153.34C61.5624 153.34 66.691 158.715 66.691 165.272V232.063C66.691 238.62 60.984 248.761 60.984 248.761Z" fill="#FACEA7"/>
<path d="M66.6886 255.807C75.6971 255.807 82.9999 246.015 82.9999 233.937C82.9999 221.858 75.6971 212.067 66.6886 212.067C57.6801 212.067 50.3773 221.858 50.3773 233.937C50.3773 246.015 57.6801 255.807 66.6886 255.807Z" fill="#FACEA7"/>
<path d="M132.976 248.761H54.0413V275.518H132.976V248.761Z" fill="#FE9868"/>
<path d="M132.976 271.568H54.0413V272.952H132.976V271.568Z" fill="#ECECEC"/>
<path d="M56.4338 232.063V165.272C56.4338 161.118 58.4775 157.494 61.5624 155.335C59.75 154.073 57.5906 153.34 55.2769 153.34C48.9915 153.34 43.8629 158.715 43.8629 165.272V232.063C43.8629 244.77 54.6985 248.761 60.984 248.761C60.984 248.761 61.7552 247.376 62.7578 245.258C59.2102 242.693 56.4338 238.498 56.4338 232.063Z" fill="#F8BE91"/>
<path d="M132.976 251.938H54.0413V253.323H132.976V251.938Z" fill="#ECECEC"/>
<path d="M45.5591 177.572H43.8238V176.798H45.5591C50.2635 176.798 54.1196 172.725 54.1196 167.757V161.689H43.8238V160.915H54.8523V167.798C54.8908 173.173 50.6877 177.572 45.5591 177.572Z" fill="#FCDBBF"/>
<path d="M145.546 243.547L69.0024 243.507C66.6888 243.507 64.7993 241.511 64.7993 239.067L64.8764 83.738C64.8764 81.2944 66.7659 79.2988 69.0796 79.2988L145.623 79.3396C147.937 79.3396 149.826 81.3351 149.826 83.7787L149.749 239.108C149.749 241.552 147.86 243.547 145.546 243.547Z" fill="#455A64"/>
<path d="M143.464 222.941L71.0855 222.9C70.8156 222.9 70.5842 222.656 70.5842 222.371L70.6613 91.029C70.6613 90.7439 70.8927 90.4995 71.1626 90.4995L143.542 90.5402C143.812 90.5402 144.043 90.7846 144.043 91.0697L143.966 222.411C144.004 222.697 143.773 222.941 143.464 222.941Z" fill="white"/>
<path d="M118.556 86.3039H94.0307C93.2595 86.3039 92.6425 85.6522 92.6425 84.8377C92.6425 84.0232 93.2595 83.3716 94.0307 83.3716H118.556C119.327 83.3716 119.944 84.0232 119.944 84.8377C119.982 85.6522 119.327 86.3446 118.556 86.3039Z" fill="#FE9868"/>
<path d="M122.604 86.3449C121.833 86.3449 121.216 85.6933 121.216 84.8787C121.216 84.0642 121.833 83.4126 122.604 83.4126C123.375 83.4126 123.992 84.0642 123.992 84.8787C123.992 85.6525 123.375 86.3449 122.604 86.3449Z" fill="#FE9868"/>
<path d="M156.614 184.414L151.139 188.242C146.82 191.256 140.92 189.993 138.067 185.432C135.213 180.871 136.408 174.639 140.727 171.626L146.203 167.797C150.522 164.784 156.422 166.046 159.275 170.608C162.129 175.21 160.933 181.4 156.614 184.414Z" fill="#FACEA7"/>
<path d="M159.275 170.607C159.198 170.485 159.121 170.404 159.044 170.281C161.165 174.028 160.123 178.956 156.653 181.4L148.478 187.101C145.008 189.545 140.303 188.608 137.835 185.106C137.912 185.228 137.951 185.35 138.028 185.432C140.882 189.993 146.781 191.255 151.1 188.242L156.576 184.413C160.933 181.4 162.129 175.209 159.275 170.607Z" fill="#F8BE91"/>
<path d="M147.09 186.165C146.936 186.165 146.82 186.165 146.666 186.124C145.895 186.002 145.201 185.554 144.738 184.902L140.458 178.59C139.571 177.287 139.802 175.454 140.998 174.436L143.736 172.155C145.008 171.096 146.589 170.648 148.209 170.893C149.905 171.137 151.448 172.155 152.489 173.703C154.61 176.798 154.108 181.156 151.409 183.395L148.826 185.554C148.363 185.92 147.746 186.165 147.09 186.165ZM145.355 184.454C145.702 184.943 146.203 185.269 146.782 185.391C147.36 185.472 147.939 185.31 148.401 184.943L150.985 182.785C153.376 180.789 153.8 176.92 151.949 174.151C151.024 172.766 149.674 171.87 148.17 171.666C146.782 171.463 145.355 171.87 144.275 172.766L141.538 175.047C140.651 175.78 140.458 177.164 141.113 178.142L145.355 184.454Z" fill="#FCDBBF"/>
<path d="M158.504 203.351L153.144 206.121C148.941 208.279 143.812 206.447 141.768 202.007C139.725 197.568 141.46 192.152 145.663 189.993L151.023 187.224C155.226 185.065 160.355 186.898 162.399 191.337C164.481 195.776 162.746 201.193 158.504 203.351Z" fill="#FACEA7"/>
<path d="M162.437 191.337C162.398 191.215 162.321 191.134 162.283 191.011C163.748 194.636 162.283 198.912 158.889 200.664L150.946 204.736C147.552 206.487 143.465 205.062 141.652 201.6C141.691 201.722 141.73 201.804 141.768 201.926C143.812 206.365 148.94 208.239 153.144 206.039L158.504 203.27C162.745 201.193 164.481 195.776 162.437 191.337Z" fill="#F8BE91"/>
<path d="M150.175 203.799C149.943 203.799 149.712 203.759 149.481 203.677C148.787 203.474 148.208 202.985 147.861 202.293L144.738 196.102C144.082 194.799 144.506 193.17 145.702 192.396L148.401 190.686C149.673 189.871 151.139 189.668 152.566 190.115C154.069 190.563 155.342 191.663 156.113 193.17C157.656 196.224 156.73 200.093 154.031 201.763L151.486 203.351C151.1 203.677 150.638 203.799 150.175 203.799ZM151.139 190.726C150.329 190.726 149.519 190.971 148.787 191.419L146.087 193.129C145.2 193.659 144.892 194.84 145.393 195.776L148.517 201.967C148.748 202.456 149.172 202.822 149.673 202.944C150.175 203.107 150.715 203.026 151.139 202.741L153.684 201.152C156.036 199.686 156.846 196.265 155.496 193.577C154.802 192.233 153.722 191.297 152.411 190.889C151.949 190.767 151.524 190.726 151.139 190.726Z" fill="#FCDBBF"/>
<path d="M134.905 222.9H78.7986V198.301C78.7986 187.102 87.3977 177.979 98.0405 177.979H115.663C126.267 177.979 134.905 187.061 134.905 198.301V222.9Z" fill="#FE9868"/>
<path d="M154.301 163.969L148.132 167.757C143.273 170.77 136.64 169.508 133.44 164.987C130.201 160.467 131.55 154.317 136.409 151.344L142.579 147.556C147.438 144.543 154.07 145.805 157.271 150.326C160.51 154.846 159.16 160.996 154.301 163.969Z" fill="#FACEA7"/>
<path d="M157.269 150.326C157.192 150.204 157.115 150.122 156.999 150C159.39 153.706 158.233 158.593 154.3 160.996L145.122 166.657C141.189 169.06 135.906 168.164 133.168 164.662C133.246 164.784 133.323 164.906 133.4 164.987C136.639 169.508 143.233 170.771 148.091 167.757L154.261 163.969C159.158 160.996 160.508 154.847 157.269 150.326Z" fill="#F8BE91"/>
<path d="M142.269 165.639C142.115 165.639 141.999 165.639 141.845 165.598C141.074 165.476 140.38 165.028 139.917 164.377L135.637 158.064C134.75 156.761 134.981 154.928 136.177 153.91L138.915 151.629C140.187 150.571 141.768 150.123 143.388 150.367C145.084 150.611 146.627 151.629 147.668 153.177C149.75 156.272 149.287 160.63 146.588 162.87L144.005 165.028C143.542 165.436 142.925 165.639 142.269 165.639ZM140.534 163.929C140.881 164.417 141.382 164.743 141.961 164.865C142.539 164.947 143.118 164.784 143.58 164.417L146.164 162.259C148.555 160.263 148.979 156.394 147.128 153.625C146.203 152.24 144.853 151.344 143.31 151.141C141.922 150.937 140.534 151.344 139.416 152.24L136.678 154.521C135.791 155.254 135.598 156.639 136.254 157.616L140.534 163.929Z" fill="#FCDBBF"/>
<path d="M106.832 240.534C110.729 240.534 113.889 237.198 113.889 233.082C113.889 228.965 110.729 225.629 106.832 225.629C102.935 225.629 99.7753 228.965 99.7753 233.082C99.7753 237.198 102.935 240.534 106.832 240.534Z" fill="#FE9868"/>
<path d="M116.472 179.852L115.623 157.616L99.042 157.127L98.0394 183.192C97.9238 186.043 100.276 185.513 102.975 185.391L112.114 184.902C114.659 184.74 116.587 182.5 116.472 179.852Z" fill="#FACBB6"/>
<path d="M99.6602 162.259L116.203 172.522L115.624 157.616L99.6602 162.259Z" fill="#F6B7A0"/>
<path d="M135.407 141.773C135.407 145.398 132.631 148.33 129.199 148.33C125.767 148.33 122.99 145.398 122.99 141.773C122.99 138.149 125.767 135.217 129.199 135.217C132.631 135.217 135.407 138.149 135.407 141.773Z" fill="#FACBB6"/>
<path d="M86.3561 148.331C89.7849 148.331 92.5644 145.395 92.5644 141.774C92.5644 138.152 89.7849 135.217 86.3561 135.217C82.9273 135.217 80.1478 138.152 80.1478 141.774C80.1478 145.395 82.9273 148.331 86.3561 148.331Z" fill="#FACBB6"/>
<path d="M127.076 130.045C127.076 138.394 125.919 145.602 124.801 150.734C123.683 155.743 120.521 159.245 116.086 162.056L115.277 162.544C110.534 165.558 104.518 165.639 99.6981 162.748C94.8779 159.856 91.5231 156.028 90.482 150.652C88.5925 140.878 88.3997 130.045 88.3997 130.045C88.3997 130.045 86.5873 108.949 107.449 109.356C128.31 109.804 127.076 130.045 127.076 130.045Z" fill="#FACBB6"/>
<path d="M89.5188 138.638C89.5188 138.638 93.9148 123.651 90.7142 113.958C90.7528 113.958 78.4519 117.664 89.5188 138.638Z" fill="#01384F"/>
<path d="M126.306 138.638C126.306 138.638 120.753 123.651 123.954 113.958C123.915 113.958 135.406 116.931 126.306 138.638Z" fill="#01384F"/>
<path d="M91.6385 120.678C91.6385 120.678 95.1476 113.958 101.472 117.664C107.796 121.37 114.042 124.913 125.341 121.981L123.837 113.917C123.837 113.917 108.143 96.2827 90.636 113.917L91.6385 120.678Z" fill="#01384F"/>
<path d="M90.636 113.917C90.636 113.917 91.6385 101.699 107.988 100.64C124.338 99.5814 129.158 108.785 129.158 108.785L126.189 109.356C126.189 109.356 131.896 111.962 133.4 114.487L130.199 115.668L134.441 119.659C134.441 119.659 121.099 125.117 113.734 122.184L107.603 112.41L90.636 113.917Z" fill="#01384F"/>
<path d="M100.855 177.694L93.9529 177.817C93.9529 177.817 93.2202 187.061 106.678 187.509C120.136 187.957 120.367 178.387 120.367 178.387L113.079 177.694H100.855Z" fill="#FACBB6"/>
<path d="M131.357 166.25H81.5361V113.673H131.357V166.25ZM82.1916 165.599H130.701V114.324H82.1916V165.599Z" fill="#455A64"/>
<mask id="mask0_2_11036" style="mask-type:alpha" maskUnits="userSpaceOnUse" x="81" y="130" width="51" height="24">
<path d="M131.165 130.533H81.7682V153.055H131.165V130.533Z" fill="url(#paint0_linear_2_11036)"/>
</mask>
<g mask="url(#mask0_2_11036)">
<path d="M131.163 130.533H81.7666V153.055H131.163V130.533Z" fill="#455A64"/>
</g>
<rect x="31.3029" y="352.677" width="138.519" height="32.2249" rx="8.3474" fill="#FE9868"/>
<rect x="59.4756" y="444.499" width="88.6911" height="3.13028" rx="1.56514" fill="#0C0C0C"/>
<path d="M73.988 365.231H75.7248C76.478 365.231 77.0462 365.341 77.4295 365.559C77.8128 365.777 78.0044 366.154 78.0044 366.689C78.0044 366.912 77.9645 367.115 77.8847 367.296C77.8075 367.474 77.6943 367.622 77.5453 367.739C77.3962 367.853 77.2126 367.93 76.9943 367.97V368.01C77.2206 368.05 77.4215 368.121 77.5972 368.222C77.7755 368.323 77.9153 368.468 78.0164 368.657C78.1202 368.846 78.1721 369.091 78.1721 369.392C78.1721 369.748 78.0869 370.052 77.9166 370.302C77.7489 370.552 77.508 370.742 77.194 370.873C76.8826 371.003 76.5126 371.068 76.0841 371.068H73.988V365.231ZM74.9462 367.639H75.8645C76.2983 367.639 76.5991 367.568 76.7668 367.427C76.9345 367.286 77.0183 367.08 77.0183 366.808C77.0183 366.532 76.9185 366.332 76.7189 366.21C76.5219 366.087 76.2078 366.026 75.7767 366.026H74.9462V367.639ZM74.9462 368.413V370.266H75.9563C76.4035 370.266 76.7175 370.179 76.8985 370.006C77.0795 369.833 77.17 369.599 77.17 369.304C77.17 369.123 77.1288 368.966 77.0462 368.833C76.9664 368.7 76.8346 368.597 76.651 368.525C76.4673 368.451 76.2198 368.413 75.9084 368.413H74.9462ZM85.5964 365.231V369.008C85.5964 369.415 85.5099 369.78 85.3369 370.102C85.1666 370.424 84.9084 370.68 84.5624 370.869C84.2164 371.055 83.7812 371.148 83.2569 371.148C82.5089 371.148 81.9394 370.953 81.5481 370.561C81.1595 370.167 80.9652 369.644 80.9652 368.992V365.231H81.9234V368.908C81.9234 369.396 82.0378 369.755 82.2667 369.986C82.4956 370.218 82.8376 370.334 83.2928 370.334C83.6069 370.334 83.8624 370.279 84.0593 370.17C84.2589 370.058 84.4053 369.896 84.4985 369.683C84.5943 369.467 84.6422 369.208 84.6422 368.904V365.231H85.5964ZM90.3777 367.894L91.7631 365.231H92.7971L90.8568 368.801V371.068H89.9026V368.837L87.9583 365.231H89.0003L90.3777 367.894ZM103.829 371.068H102.651L99.7927 366.409H99.7567C99.7674 366.566 99.7767 366.733 99.7847 366.908C99.7953 367.084 99.8033 367.265 99.8086 367.451C99.8166 367.638 99.8233 367.827 99.8286 368.018V371.068H98.9582V365.231H100.128L102.983 369.859H103.011C103.005 369.723 102.999 369.567 102.991 369.392C102.983 369.216 102.975 369.035 102.967 368.849C102.961 368.66 102.957 368.477 102.955 368.302V365.231H103.829V371.068ZM112.18 368.142C112.18 368.592 112.122 369.002 112.008 369.372C111.896 369.739 111.727 370.056 111.501 370.322C111.275 370.585 110.991 370.789 110.65 370.933C110.31 371.076 109.911 371.148 109.453 371.148C108.987 371.148 108.582 371.076 108.239 370.933C107.898 370.789 107.615 370.584 107.389 370.318C107.165 370.052 106.997 369.734 106.886 369.364C106.774 368.994 106.718 368.584 106.718 368.134C106.718 367.532 106.816 367.008 107.013 366.561C107.213 366.111 107.515 365.762 107.92 365.515C108.327 365.265 108.841 365.14 109.461 365.14C110.068 365.14 110.572 365.263 110.974 365.511C111.376 365.758 111.676 366.107 111.876 366.557C112.078 367.004 112.18 367.532 112.18 368.142ZM107.724 368.142C107.724 368.592 107.785 368.982 107.908 369.312C108.03 369.639 108.218 369.892 108.471 370.07C108.726 370.246 109.053 370.334 109.453 370.334C109.855 370.334 110.182 370.246 110.435 370.07C110.688 369.892 110.874 369.639 110.994 369.312C111.114 368.982 111.173 368.592 111.173 368.142C111.173 367.458 111.036 366.923 110.762 366.537C110.491 366.148 110.057 365.954 109.461 365.954C109.061 365.954 108.733 366.042 108.475 366.218C108.219 366.393 108.03 366.645 107.908 366.972C107.785 367.297 107.724 367.687 107.724 368.142ZM121.971 365.231L120.446 371.068H119.4L118.426 367.571C118.402 367.486 118.376 367.385 118.346 367.268C118.317 367.15 118.288 367.031 118.258 366.908C118.232 366.786 118.208 366.674 118.187 366.573C118.168 366.469 118.155 366.389 118.147 366.333C118.141 366.389 118.129 366.468 118.111 366.569C118.092 366.67 118.069 366.782 118.043 366.904C118.019 367.024 117.992 367.144 117.963 367.264C117.934 367.381 117.907 367.484 117.883 367.575L116.925 371.068H115.883L114.362 365.231H115.324L116.166 368.653C116.193 368.762 116.22 368.881 116.246 369.008C116.275 369.133 116.302 369.26 116.326 369.388C116.353 369.515 116.377 369.64 116.398 369.763C116.419 369.883 116.437 369.992 116.45 370.09C116.463 369.989 116.48 369.877 116.502 369.755C116.523 369.63 116.546 369.503 116.57 369.376C116.596 369.245 116.623 369.12 116.649 369C116.679 368.881 116.708 368.773 116.737 368.677L117.687 365.231H118.622L119.592 368.689C119.621 368.787 119.649 368.898 119.676 369.02C119.705 369.143 119.733 369.268 119.76 369.396C119.786 369.523 119.81 369.647 119.831 369.767C119.853 369.887 119.87 369.994 119.883 370.09C119.902 369.96 119.926 369.811 119.955 369.643C119.984 369.475 120.018 369.305 120.055 369.132C120.092 368.959 120.13 368.799 120.167 368.653L121.005 365.231H121.971Z" fill="white"/>
</g>
<rect x="0.521712" y="0.521712" width="207.61" height="450.76" rx="9.49517" stroke="#455A64" stroke-width="1.04342"/>
<defs>
<linearGradient id="paint0_linear_2_11036" x1="106.443" y1="128.703" x2="106.443" y2="152.021" gradientUnits="userSpaceOnUse">
<stop stop-color="white"/>
<stop offset="1"/>
</linearGradient>
<clipPath id="clip0_2_11036">
<rect width="208.654" height="451.803" rx="10.0169" fill="white"/>
</clipPath>
<clipPath id="clip1_2_11036">
<rect width="13.3538" height="13.3538" fill="white" transform="translate(23.3691 411.526)"/>
</clipPath>
</defs>
</svg>
